<?xml version="1.0" encoding="utf-8"?>
<!-- Generator: Adobe Illustrator 16.0.0, SVG Export Plug-In . SVG Version: 6.00 Build 0)  -->
<!DOCTYPE svg PUBLIC "-//W3C//DTD SVG 1.1//EN" "http://www.w3.org/Graphics/SVG/1.1/DTD/svg11.dtd">
<svg version="1.1" id="Layer_1" xmlns="http://www.w3.org/2000/svg" xmlns:xlink="http://www.w3.org/1999/xlink" x="0px" y="0px"
	 width="170.045px" height="88.316px" viewBox="1706.802 -530.25 170.045 88.316"
	 enable-background="new 1706.802 -530.25 170.045 88.316" xml:space="preserve">
<g>
	<path fill="#FFFFFF" d="M1720.578-527.071c1.899,0,3.66,0.356,5.283,1.068c1.622,0.712,3.067,1.703,4.336,2.969
		c1.264,1.268,2.256,2.731,2.968,4.394c0.712,1.663,1.068,3.444,1.068,5.344v63.293c0,1.267-0.634,1.9-1.899,1.9h-3.8
		c-1.268,0-1.899-0.633-1.899-1.9v-33.844h-12.231v33.844c0,1.267-0.635,1.9-1.9,1.9h-3.8c-0.475,0-0.911-0.178-1.306-0.534
		c-0.397-0.357-0.595-0.812-0.595-1.366v-63.293c0-1.9,0.356-3.681,1.068-5.344c0.714-1.662,1.702-3.126,2.97-4.394
		c1.265-1.266,2.73-2.256,4.394-2.969C1716.896-526.715,1718.677-527.071,1720.578-527.071z M1726.634-491.447v-21.85
		c0-1.74-0.595-3.206-1.782-4.393s-2.612-1.781-4.274-1.781c-1.742,0-3.207,0.594-4.395,1.781s-1.78,2.653-1.78,4.393v21.85
		H1726.634z"/>
	<path fill="#FFFFFF" d="M1771.52-497.503c0,1.979-0.376,3.82-1.128,5.522c-0.754,1.703-1.802,3.187-3.147,4.453
		c1.346,1.268,2.394,2.731,3.147,4.394c0.752,1.663,1.128,3.485,1.128,5.463v15.912c0,1.9-0.356,3.663-1.069,5.285
		c-0.712,1.623-1.703,3.068-2.968,4.333c-1.268,1.268-2.714,2.257-4.335,2.97c-1.623,0.711-3.384,1.068-5.284,1.068h-9.974
		c-1.031,0-1.921-0.357-2.673-1.068c-0.754-0.713-1.128-1.622-1.128-2.732v-71.368c0-1.028,0.374-1.918,1.128-2.672
		c0.752-0.751,1.642-1.128,2.673-1.128h9.974c1.9,0,3.661,0.356,5.284,1.068c1.621,0.712,3.067,1.703,4.335,2.969
		c1.265,1.268,2.256,2.731,2.968,4.394c0.713,1.663,1.069,3.444,1.069,5.344V-497.503z M1763.92-513.297
		c0-1.74-0.594-3.206-1.781-4.393s-2.612-1.781-4.275-1.781h-6.175v28.144h6.175c1.663,0,3.088-0.594,4.275-1.781
		s1.781-2.652,1.781-4.394V-513.297z M1763.92-477.672c0-1.663-0.594-3.088-1.781-4.275s-2.612-1.781-4.275-1.781h-6.175v28.024
		h6.175c1.663,0,3.088-0.594,4.275-1.781s1.781-2.612,1.781-4.275V-477.672z"/>
	<path fill="#FFFFFF" d="M1795.15-527.071c1.899,0,3.66,0.356,5.284,1.068c1.622,0.712,3.067,1.703,4.335,2.969
		c1.266,1.268,2.256,2.731,2.969,4.394c0.713,1.663,1.068,3.444,1.068,5.344v51.537c0,1.9-0.355,3.681-1.068,5.345
		c-0.713,1.662-1.703,3.107-2.969,4.333c-1.268,1.229-2.713,2.197-4.335,2.91c-1.624,0.711-3.385,1.068-5.284,1.068
		c-1.9,0-3.682-0.357-5.344-1.068c-1.662-0.713-3.129-1.682-4.394-2.91c-1.267-1.226-2.256-2.671-2.969-4.333
		c-0.712-1.664-1.068-3.444-1.068-5.345v-51.537c0-1.9,0.356-3.681,1.068-5.344c0.713-1.662,1.702-3.126,2.969-4.394
		c1.265-1.266,2.731-2.256,4.394-2.969C1791.468-526.715,1793.25-527.071,1795.15-527.071z M1801.207-513.297
		c0-1.74-0.594-3.206-1.782-4.393c-1.188-1.188-2.612-1.781-4.274-1.781c-1.742,0-3.206,0.594-4.394,1.781s-1.781,2.653-1.781,4.393
		v51.537c0,1.663,0.594,3.087,1.781,4.275s2.651,1.781,4.394,1.781c1.662,0,3.087-0.594,4.274-1.781
		c1.188-1.188,1.782-2.612,1.782-4.275V-513.297z"/>
	<path fill="#FFFFFF" d="M1845.558-526.478c0.356,0.396,0.534,0.831,0.534,1.306v63.411c0,1.9-0.356,3.681-1.069,5.345
		c-0.711,1.662-1.703,3.107-2.967,4.333c-1.268,1.229-2.714,2.197-4.336,2.91c-1.623,0.711-3.384,1.068-5.283,1.068
		c-1.9,0-3.682-0.357-5.344-1.068c-1.663-0.713-3.129-1.682-4.394-2.91c-1.269-1.226-2.256-2.671-2.97-4.333
		c-0.712-1.664-1.068-3.444-1.068-5.345v-63.411c0-0.475,0.197-0.91,0.595-1.306c0.394-0.396,0.831-0.594,1.306-0.594h3.8
		c0.553,0,1.009,0.198,1.365,0.594c0.356,0.396,0.535,0.831,0.535,1.306v63.411c0,1.663,0.593,3.087,1.78,4.275
		s2.652,1.781,4.395,1.781c1.662,0,3.087-0.594,4.274-1.781s1.782-2.612,1.782-4.275v-63.411c0-0.475,0.178-0.91,0.533-1.306
		c0.356-0.396,0.812-0.594,1.365-0.594h3.801C1844.746-527.071,1845.203-526.873,1845.558-526.478z"/>
	<path fill="#FFFFFF" d="M1876.314-526.478c0.356,0.396,0.534,0.831,0.534,1.306v3.8c0,1.267-0.634,1.9-1.9,1.9h-5.343v69.468
		c0,1.267-0.635,1.9-1.9,1.9h-3.801c-1.266,0-1.898-0.633-1.898-1.9v-69.468h-5.345c-1.267,0-1.899-0.633-1.899-1.9v-3.8
		c0-0.475,0.178-0.91,0.534-1.306c0.356-0.396,0.811-0.594,1.365-0.594h18.287C1875.5-527.071,1875.957-526.873,1876.314-526.478z"
		/>
</g>
</svg>
