<?xml version="1.0" encoding="utf-8"?>
<!-- Generator: Adobe Illustrator 16.0.0, SVG Export Plug-In . SVG Version: 6.00 Build 0)  -->
<!DOCTYPE svg PUBLIC "-//W3C//DTD SVG 1.1//EN" "http://www.w3.org/Graphics/SVG/1.1/DTD/svg11.dtd">
<svg version="1.1" id="Layer_1" xmlns="http://www.w3.org/2000/svg" xmlns:xlink="http://www.w3.org/1999/xlink" x="0px" y="0px"
	 width="223.6px" height="85.149px" viewBox="2387.783 -530.25 223.6 85.149"
	 enable-background="new 2387.783 -530.25 223.6 85.149" xml:space="preserve">
<g>
	<path fill="#FFFFFF" d="M2407.496-509.377v-4.038c0-1.663-0.594-3.087-1.781-4.274s-2.612-1.781-4.274-1.781
		c-1.663,0-3.089,0.594-4.276,1.781s-1.779,2.612-1.779,4.274v51.655c0,1.663,0.592,3.087,1.779,4.275s2.613,1.781,4.276,1.781
		c1.662,0,3.087-0.594,4.274-1.781s1.781-2.612,1.781-4.275v-4.393c0-1.265,0.646-1.9,1.939-1.9h3.879c1.266,0,1.9,0.635,1.9,1.9
		v4.393c0,1.9-0.358,3.663-1.072,5.285c-0.715,1.623-1.718,3.068-3.01,4.333c-1.293,1.268-2.758,2.257-4.392,2.97
		c-1.636,0.711-3.401,1.068-5.301,1.068c-1.901,0-3.682-0.357-5.345-1.068c-1.662-0.713-3.107-1.702-4.334-2.97
		c-1.229-1.265-2.195-2.711-2.91-4.333c-0.711-1.622-1.068-3.385-1.068-5.285v-51.655c0-1.899,0.357-3.661,1.068-5.284
		c0.715-1.621,1.682-3.067,2.91-4.334c1.227-1.266,2.672-2.256,4.334-2.969c1.663-0.712,3.443-1.068,5.345-1.068
		c1.899,0,3.665,0.356,5.301,1.068c1.634,0.712,3.099,1.703,4.392,2.969c1.292,1.268,2.295,2.713,3.01,4.334
		c0.714,1.624,1.072,3.385,1.072,5.284v4.038c0,1.267-0.635,1.9-1.9,1.9h-3.879C2408.142-507.478,2407.496-508.11,2407.496-509.377z
		"/>
	<path fill="#FFFFFF" d="M2437.539-527.071c1.9,0,3.661,0.356,5.284,1.068c1.621,0.712,3.067,1.703,4.335,2.969
		c1.265,1.268,2.256,2.731,2.969,4.394c0.711,1.663,1.068,3.444,1.068,5.344v51.537c0,1.9-0.357,3.681-1.068,5.345
		c-0.713,1.662-1.704,3.107-2.969,4.333c-1.268,1.229-2.714,2.197-4.335,2.91c-1.623,0.711-3.384,1.068-5.284,1.068
		s-3.682-0.357-5.344-1.068c-1.663-0.713-3.129-1.682-4.395-2.91c-1.266-1.226-2.256-2.671-2.968-4.333
		c-0.713-1.664-1.069-3.444-1.069-5.345v-51.537c0-1.9,0.356-3.681,1.069-5.344c0.712-1.662,1.702-3.126,2.968-4.394
		c1.266-1.266,2.731-2.256,4.395-2.969C2433.857-526.715,2435.638-527.071,2437.539-527.071z M2443.595-513.297
		c0-1.74-0.594-3.206-1.781-4.393s-2.613-1.781-4.275-1.781c-1.742,0-3.207,0.594-4.395,1.781s-1.781,2.653-1.781,4.393v51.537
		c0,1.663,0.594,3.087,1.781,4.275s2.652,1.781,4.395,1.781c1.662,0,3.088-0.594,4.275-1.781s1.781-2.612,1.781-4.275V-513.297z"/>
	<path fill="#FFFFFF" d="M2474.825-527.071c1.899,0,3.66,0.356,5.284,1.068c1.622,0.712,3.066,1.703,4.334,2.969
		c1.266,1.268,2.256,2.731,2.969,4.394c0.713,1.663,1.068,3.444,1.068,5.344v63.293c0,1.267-0.633,1.9-1.899,1.9h-3.8
		c-1.267,0-1.9-0.633-1.9-1.9v-63.293c0-1.74-0.594-3.206-1.781-4.393s-2.612-1.781-4.274-1.781c-1.741,0-3.206,0.594-4.394,1.781
		s-1.781,2.653-1.781,4.393v63.293c0,1.267-0.635,1.9-1.899,1.9h-3.8c-1.269,0-1.9-0.633-1.9-1.9v-63.293
		c0-1.9,0.355-3.681,1.068-5.344c0.713-1.662,1.701-3.126,2.969-4.394c1.266-1.266,2.731-2.256,4.393-2.969
		C2471.144-526.715,2472.925-527.071,2474.825-527.071z"/>
	<path fill="#FFFFFF" d="M2515.139-526.478c0.356,0.396,0.535,0.831,0.535,1.306v3.8c0,1.267-0.636,1.9-1.901,1.9h-5.343v69.468
		c0,1.267-0.635,1.9-1.901,1.9h-3.799c-1.268,0-1.9-0.633-1.9-1.9v-69.468h-5.344c-1.267,0-1.899-0.633-1.899-1.9v-3.8
		c0-0.475,0.179-0.91,0.535-1.306c0.355-0.396,0.81-0.594,1.364-0.594h18.287C2514.327-527.071,2514.783-526.873,2515.139-526.478z"
		/>
	<path fill="#FFFFFF" d="M2534.554-527.071c1.899,0,3.66,0.356,5.283,1.068c1.623,0.712,3.068,1.703,4.336,2.969
		c1.264,1.268,2.256,2.731,2.968,4.394c0.712,1.663,1.068,3.444,1.068,5.344v63.293c0,1.267-0.634,1.9-1.899,1.9h-3.8
		c-1.267,0-1.899-0.633-1.899-1.9v-33.844h-12.231v33.844c0,1.267-0.635,1.9-1.899,1.9h-3.801c-0.475,0-0.911-0.178-1.306-0.534
		c-0.397-0.357-0.595-0.812-0.595-1.366v-63.293c0-1.9,0.357-3.681,1.068-5.344c0.714-1.662,1.702-3.126,2.97-4.394
		c1.265-1.266,2.731-2.256,4.394-2.969C2530.873-526.715,2532.654-527.071,2534.554-527.071z M2540.611-491.447v-21.85
		c0-1.74-0.595-3.206-1.782-4.393s-2.612-1.781-4.274-1.781c-1.742,0-3.207,0.594-4.395,1.781s-1.78,2.653-1.78,4.393v21.85
		H2540.611z"/>
	<path fill="#FFFFFF" d="M2577.777-509.377v-4.038c0-1.663-0.592-3.087-1.779-4.274s-2.613-1.781-4.276-1.781
		c-1.661,0-3.087,0.594-4.274,1.781s-1.782,2.612-1.782,4.274v51.655c0,1.663,0.595,3.087,1.782,4.275s2.613,1.781,4.274,1.781
		c1.663,0,3.089-0.594,4.276-1.781s1.779-2.612,1.779-4.275v-4.393c0-1.265,0.646-1.9,1.939-1.9h3.881
		c1.265,0,1.899,0.635,1.899,1.9v4.393c0,1.9-0.358,3.663-1.073,5.285c-0.714,1.623-1.718,3.068-3.009,4.333
		c-1.294,1.268-2.758,2.257-4.392,2.97c-1.635,0.711-3.4,1.068-5.302,1.068c-1.899,0-3.682-0.357-5.343-1.068
		c-1.663-0.713-3.109-1.702-4.336-2.97c-1.227-1.265-2.196-2.711-2.908-4.333c-0.713-1.622-1.068-3.385-1.068-5.285v-51.655
		c0-1.899,0.355-3.661,1.068-5.284c0.712-1.621,1.682-3.067,2.908-4.334c1.227-1.266,2.673-2.256,4.336-2.969
		c1.661-0.712,3.443-1.068,5.343-1.068c1.901,0,3.667,0.356,5.302,1.068c1.634,0.712,3.098,1.703,4.392,2.969
		c1.291,1.268,2.295,2.713,3.009,4.334c0.715,1.624,1.073,3.385,1.073,5.284v4.038c0,1.267-0.635,1.9-1.899,1.9h-3.881
		C2578.423-507.478,2577.777-508.11,2577.777-509.377z"/>
	<path fill="#FFFFFF" d="M2610.849-526.478c0.355,0.396,0.533,0.831,0.533,1.306v3.8c0,1.267-0.635,1.9-1.899,1.9h-5.344v69.468
		c0,1.267-0.635,1.9-1.899,1.9h-3.8c-1.269,0-1.901-0.633-1.901-1.9v-69.468h-5.342c-1.269,0-1.902-0.633-1.902-1.9v-3.8
		c0-0.475,0.18-0.91,0.535-1.306c0.357-0.396,0.811-0.594,1.367-0.594h18.286C2610.037-527.071,2610.493-526.873,2610.849-526.478z"
		/>
</g>
</svg>
