<?xml version="1.0" encoding="utf-8"?>
<!-- Generator: Adobe Illustrator 16.0.0, SVG Export Plug-In . SVG Version: 6.00 Build 0)  -->
<!DOCTYPE svg PUBLIC "-//W3C//DTD SVG 1.1//EN" "http://www.w3.org/Graphics/SVG/1.1/DTD/svg11.dtd">
<svg version="1.1" id="Layer_1" xmlns="http://www.w3.org/2000/svg" xmlns:xlink="http://www.w3.org/1999/xlink" x="0px" y="0px"
	 width="150.865px" height="89.188px" viewBox="1449.107 -530.25 150.865 89.188"
	 enable-background="new 1449.107 -530.25 150.865 89.188" xml:space="preserve">
<g>
	<path fill="#FFFFFF" d="M1475.884-526.393c0.355,0.397,0.534,0.832,0.534,1.307v75.167c0,1.267-0.635,1.9-1.9,1.9h-3.681
		c-1.268,0-1.899-0.633-1.899-1.9v-33.725h-12.231v33.725c0,1.267-0.635,1.9-1.9,1.9h-3.8c-1.268,0-1.899-0.633-1.899-1.9v-75.049
		v-0.119c0-0.475,0.178-0.91,0.534-1.307c0.356-0.395,0.811-0.594,1.365-0.594h3.8c0.553,0,1.01,0.199,1.366,0.594
		c0.355,0.397,0.534,0.832,0.534,1.307v33.843h12.231v-33.843c0-0.475,0.178-0.91,0.534-1.307c0.355-0.395,0.811-0.594,1.365-0.594
		h3.681C1475.072-526.986,1475.529-526.788,1475.884-526.393z"/>
	<path fill="#FFFFFF" d="M1500.048-526.986c1.899,0,3.661,0.357,5.284,1.068c1.622,0.713,3.067,1.704,4.334,2.969
		c1.266,1.268,2.256,2.732,2.969,4.394s1.068,3.443,1.068,5.344v51.537c0,1.9-0.355,3.681-1.068,5.344
		c-0.713,1.663-1.703,3.108-2.969,4.333c-1.267,1.229-2.712,2.198-4.334,2.91c-1.623,0.712-3.385,1.069-5.284,1.069
		c-1.9,0-3.682-0.357-5.344-1.069c-1.662-0.712-3.129-1.682-4.395-2.91c-1.267-1.226-2.256-2.671-2.969-4.333
		c-0.712-1.663-1.068-3.444-1.068-5.344v-51.537c0-1.9,0.356-3.682,1.068-5.344c0.713-1.662,1.702-3.126,2.969-4.394
		c1.266-1.265,2.732-2.256,4.395-2.969C1496.367-526.629,1498.148-526.986,1500.048-526.986z M1506.104-513.211
		c0-1.74-0.594-3.206-1.781-4.393s-2.612-1.781-4.274-1.781c-1.742,0-3.207,0.594-4.395,1.781s-1.781,2.653-1.781,4.393v51.537
		c0,1.663,0.594,3.087,1.781,4.275s2.652,1.781,4.395,1.781c1.662,0,3.087-0.594,4.274-1.781s1.781-2.612,1.781-4.275V-513.211z"/>
	<path fill="#FFFFFF" d="M1557.047-526.986c1.899,0,3.681,0.357,5.343,1.068c1.663,0.713,3.127,1.704,4.395,2.969
		c1.266,1.268,2.256,2.732,2.969,4.394c0.712,1.662,1.068,3.443,1.068,5.344v63.293c0,0.554-0.198,1.009-0.594,1.366
		c-0.396,0.356-0.832,0.535-1.307,0.535h-3.8c-1.267,0-1.899-0.633-1.899-1.9v-63.293c0-1.74-0.595-3.206-1.782-4.393
		s-2.652-1.781-4.393-1.781c-1.663,0-3.088,0.594-4.275,1.781s-1.781,2.653-1.781,4.393v63.293c0,1.267-0.635,1.9-1.9,1.9h-3.8
		c-1.268,0-1.899-0.633-1.899-1.9v-63.293c0-1.74-0.594-3.206-1.782-4.393c-1.188-1.188-2.611-1.781-4.273-1.781
		c-1.743,0-3.207,0.594-4.395,1.781s-1.781,2.653-1.781,4.393v63.293c0,1.267-0.635,1.9-1.9,1.9h-3.8
		c-0.475,0-0.911-0.179-1.306-0.535c-0.397-0.356-0.594-0.812-0.594-1.366v-63.293c0-1.9,0.356-3.682,1.068-5.344
		c0.713-1.662,1.702-3.126,2.969-4.394c1.266-1.265,2.731-2.256,4.394-2.969c1.663-0.711,3.444-1.068,5.345-1.068
		c1.898,0,3.699,0.377,5.402,1.128c1.701,0.754,3.186,1.802,4.453,3.147c1.265-1.345,2.75-2.393,4.453-3.147
		C1553.345-526.609,1555.147-526.986,1557.047-526.986z"/>
	<path fill="#FFFFFF" d="M1588.276-519.386v28.143h10.331c1.266,0,1.9,0.634,1.9,1.9v3.8c0,0.475-0.178,0.911-0.535,1.306
		c-0.355,0.397-0.812,0.594-1.365,0.594h-10.331v28.024h10.331c0.553,0,1.01,0.198,1.365,0.594c0.357,0.397,0.535,0.832,0.535,1.306
		v3.8c0,1.267-0.635,1.9-1.9,1.9h-14.131c-1.109,0-2.019-0.357-2.73-1.069c-0.713-0.712-1.069-1.622-1.069-2.731v-71.368
		c0-1.028,0.356-1.918,1.069-2.672c0.712-0.751,1.621-1.128,2.73-1.128h14.131c0.553,0,1.01,0.199,1.365,0.594
		c0.357,0.397,0.535,0.832,0.535,1.307v3.8c0,1.267-0.635,1.9-1.9,1.9H1588.276z"/>
</g>
</svg>
