<?xml version="1.0" encoding="utf-8"?>
<!-- Generator: Adobe Illustrator 16.0.0, SVG Export Plug-In . SVG Version: 6.00 Build 0)  -->
<!DOCTYPE svg PUBLIC "-//W3C//DTD SVG 1.1//EN" "http://www.w3.org/Graphics/SVG/1.1/DTD/svg11.dtd">
<svg version="1.1" id="Layer_1" xmlns="http://www.w3.org/2000/svg" xmlns:xlink="http://www.w3.org/1999/xlink" x="0px" y="0px"
	 width="500px" height="500px" viewBox="868.273 -530.25 500 500" enable-background="new 868.273 -530.25 500 500"
	 xml:space="preserve">
<g>
	<path fill="#1CADA6" d="M934.654-409.052v-7.503c0-3.09-1.104-5.738-3.31-7.945c-2.207-2.207-4.855-3.31-7.945-3.31
		c-3.089,0-5.737,1.103-7.944,3.31s-3.311,4.855-3.311,7.945v95.998c0,3.09,1.104,5.738,3.311,7.945s4.855,3.31,7.944,3.31
		c3.09,0,5.738-1.103,7.945-3.31c2.206-2.207,3.31-4.855,3.31-7.945v-41.268h-7.724c-2.355,0-3.531-1.176-3.531-3.531v-7.062
		c0-2.352,1.176-3.531,3.531-3.531h18.316c2.353,0,3.531,1.179,3.531,3.531v51.861c0,3.531-0.662,6.807-1.986,9.821
		c-1.324,3.017-3.165,5.703-5.517,8.055c-2.355,2.355-5.041,4.193-8.056,5.517c-3.017,1.324-6.289,1.986-9.82,1.986
		c-3.53,0-6.807-0.662-9.82-1.986c-3.017-1.324-5.703-3.162-8.055-5.517c-2.355-2.352-4.193-5.038-5.518-8.055
		c-1.324-3.014-1.986-6.29-1.986-9.821v-95.998c0-3.531,0.662-6.803,1.986-9.821c1.324-3.014,3.162-5.7,5.518-8.055
		c2.352-2.352,5.038-4.193,8.055-5.517c3.014-1.324,6.29-1.986,9.82-1.986c3.531,0,6.804,0.662,9.82,1.986
		c3.015,1.324,5.7,3.166,8.056,5.517c2.352,2.355,4.192,5.041,5.517,8.055c1.324,3.018,1.986,6.29,1.986,9.821v7.503
		c0,2.355-1.179,3.531-3.531,3.531h-7.062C935.83-405.521,934.654-406.697,934.654-409.052z"/>
	<path fill="#1CADA6" d="M1012.333-386.983c0,7.358-2.575,13.461-7.724,18.317c5.148,4.855,7.724,11.034,7.724,18.537v51.42
		c0,2.355-1.179,3.531-3.53,3.531h-7.062c-2.355,0-3.531-1.176-3.531-3.531v-51.42c0-3.234-1.103-5.958-3.31-8.165
		c-2.207-2.207-4.855-3.311-7.945-3.311h-11.255v62.896c0,1.031-0.368,1.875-1.104,2.538c-0.737,0.662-1.544,0.993-2.427,0.993
		h-7.062c-2.354,0-3.53-1.176-3.53-3.531v-136.163c0-1.91,0.661-3.565,1.985-4.965c1.324-1.396,3.014-2.097,5.076-2.097h18.316
		c3.531,0,6.842,0.662,9.932,1.986c3.089,1.324,5.771,3.166,8.055,5.517c2.279,2.355,4.083,5.076,5.406,8.165
		c1.324,3.09,1.986,6.4,1.986,9.931V-386.983z M998.208-416.334c0-3.234-1.103-5.958-3.31-8.166s-4.855-3.31-7.945-3.31h-11.255
		v52.082h11.255c3.09,0,5.738-1.104,7.945-3.311c2.207-2.207,3.31-4.855,3.31-7.944V-416.334z"/>
	<path fill="#1CADA6" d="M1051.834-441.934c3.531,0,6.804,0.662,9.82,1.986c3.014,1.324,5.7,3.166,8.056,5.517
		c2.352,2.355,4.192,5.076,5.517,8.165c1.324,3.09,1.986,6.4,1.986,9.931v117.625c0,2.355-1.179,3.531-3.531,3.531h-7.062
		c-2.355,0-3.531-1.176-3.531-3.531v-62.896h-22.73v62.896c0,2.355-1.179,3.531-3.53,3.531h-7.062c-0.883,0-1.693-0.331-2.428-0.993
		c-0.737-0.662-1.104-1.507-1.104-2.538v-117.625c0-3.531,0.662-6.841,1.986-9.931c1.324-3.089,3.162-5.81,5.518-8.165
		c2.352-2.352,5.075-4.193,8.165-5.517C1044.994-441.272,1048.304-441.934,1051.834-441.934z M1063.089-375.729v-40.606
		c0-3.234-1.104-5.958-3.31-8.166c-2.207-2.207-4.855-3.31-7.945-3.31c-3.237,0-5.958,1.103-8.165,3.31s-3.311,4.931-3.311,8.166
		v40.606H1063.089z"/>
	<path fill="#1CADA6" d="M1138.894-440.831c0.662,0.738,0.993,1.545,0.993,2.427v51.42c0,5.886-1.73,11.034-5.186,15.448
		c-3.459,4.414-7.835,7.431-13.131,9.048v63.778c0,1.031-0.369,1.875-1.104,2.538c-0.738,0.662-1.545,0.993-2.428,0.993h-7.062
		c-2.355,0-3.531-1.176-3.531-3.531v-63.778c-5.444-1.617-9.896-4.634-13.352-9.048c-3.458-4.414-5.186-9.562-5.186-15.448v-51.42
		c0-0.882,0.331-1.689,0.993-2.427c0.662-0.734,1.507-1.104,2.537-1.104h7.062c1.027,0,1.876,0.369,2.538,1.104
		c0.661,0.738,0.992,1.545,0.992,2.427v51.42c0,3.089,1.104,5.738,3.311,7.944c2.207,2.207,4.928,3.311,8.165,3.311
		c3.09,0,5.738-1.104,7.945-3.311c2.207-2.207,3.31-4.855,3.31-7.944v-51.42c0-0.882,0.331-1.689,0.993-2.427
		c0.662-0.734,1.507-1.104,2.538-1.104h7.062C1137.384-441.934,1138.232-441.565,1138.894-440.831z"/>
	<path fill="#1CADA6" d="M1213.373-409.052v-7.503c0-3.09-1.104-5.738-3.311-7.945s-4.855-3.31-7.945-3.31
		c-3.089,0-5.737,1.103-7.944,3.31s-3.311,4.855-3.311,7.945v11.255c0,1.324,0.035,2.134,0.11,2.427
		c0.073,0.297,0.256,0.738,0.552,1.324l31.779,56.054c1.027,1.914,1.838,3.386,2.427,4.414c0.587,1.031,0.993,1.986,1.214,2.869
		s0.366,1.804,0.441,2.759c0.072,0.958,0.11,2.245,0.11,3.862v11.034c0,3.531-0.662,6.841-1.986,9.931
		c-1.323,3.089-3.165,5.775-5.517,8.055c-2.355,2.283-5.041,4.083-8.055,5.407c-3.018,1.324-6.29,1.986-9.821,1.986
		c-3.53,0-6.807-0.662-9.82-1.986c-3.017-1.324-5.703-3.124-8.055-5.407c-2.355-2.279-4.193-4.965-5.518-8.055
		c-1.323-3.09-1.985-6.4-1.985-9.931v-7.503c0-0.883,0.331-1.69,0.993-2.428c0.662-0.734,1.507-1.104,2.537-1.104h7.062
		c1.027,0,1.876,0.369,2.538,1.104c0.661,0.738,0.992,1.545,0.992,2.428v7.503c0,3.238,1.104,5.958,3.311,8.166
		s4.855,3.31,7.944,3.31c3.09,0,5.738-1.103,7.945-3.31s3.311-4.928,3.311-8.166v-11.034c0-1.176-0.038-1.91-0.11-2.207
		c-0.076-0.293-0.259-0.735-0.552-1.324l-31.779-56.054c-1.03-1.91-1.841-3.382-2.428-4.414c-0.589-1.027-0.992-1.986-1.213-2.869
		c-0.221-0.883-0.369-1.838-0.441-2.869c-0.076-1.027-0.11-2.352-0.11-3.972v-11.255c0-3.531,0.662-6.803,1.985-9.821
		c1.324-3.014,3.162-5.7,5.518-8.055c2.352-2.352,5.038-4.193,8.055-5.517c3.014-1.324,6.29-1.986,9.82-1.986
		c3.531,0,6.804,0.662,9.821,1.986c3.014,1.324,5.699,3.166,8.055,5.517c2.352,2.355,4.193,5.041,5.517,8.055
		c1.324,3.018,1.986,6.29,1.986,9.821v7.503c0,2.355-1.179,3.531-3.53,3.531h-7.062
		C1214.548-405.521,1213.373-406.697,1213.373-409.052z"/>
	<path fill="#1CADA6" d="M1253.316-427.81v52.302h19.2c2.352,0,3.53,1.179,3.53,3.531v7.062c0,0.883-0.331,1.693-0.993,2.427
		c-0.662,0.738-1.51,1.104-2.537,1.104h-19.2v52.082h19.2c1.027,0,1.875,0.369,2.537,1.104c0.662,0.738,0.993,1.545,0.993,2.428
		v7.062c0,2.355-1.179,3.531-3.53,3.531h-26.262c-2.062,0-3.752-0.662-5.076-1.986c-1.324-1.324-1.986-3.014-1.986-5.076v-132.631
		c0-1.91,0.662-3.565,1.986-4.965c1.324-1.396,3.014-2.097,5.076-2.097h26.262c1.027,0,1.875,0.369,2.537,1.104
		c0.662,0.738,0.993,1.545,0.993,2.427v7.062c0,2.355-1.179,3.531-3.53,3.531H1253.316z"/>
	<path fill="#1CADA6" d="M1315.549-441.934c3.531,0,6.804,0.662,9.82,1.986c3.014,1.324,5.7,3.166,8.056,5.517
		c2.352,2.355,4.192,5.076,5.517,8.165c1.324,3.09,1.986,6.4,1.986,9.931v117.625c0,2.355-1.179,3.531-3.531,3.531h-7.062
		c-2.355,0-3.531-1.176-3.531-3.531v-62.896h-22.73v62.896c0,2.355-1.179,3.531-3.53,3.531h-7.062c-0.883,0-1.693-0.331-2.428-0.993
		c-0.737-0.662-1.104-1.507-1.104-2.538v-117.625c0-3.531,0.662-6.841,1.986-9.931c1.324-3.089,3.162-5.81,5.518-8.165
		c2.352-2.352,5.075-4.193,8.165-5.517C1308.708-441.272,1312.019-441.934,1315.549-441.934z M1326.804-375.729v-40.606
		c0-3.234-1.104-5.958-3.31-8.166c-2.207-2.207-4.855-3.31-7.945-3.31c-3.237,0-5.958,1.103-8.165,3.31s-3.311,4.931-3.311,8.166
		v40.606H1326.804z"/>
	<path fill="#1CADA6" d="M951.756-221.266v-7.503c0-3.09-1.104-5.738-3.31-7.945c-2.207-2.207-4.855-3.31-7.945-3.31
		c-3.089,0-5.737,1.103-7.944,3.31s-3.311,4.855-3.311,7.945v95.998c0,3.09,1.104,5.738,3.311,7.945s4.855,3.31,7.944,3.31
		c3.09,0,5.738-1.103,7.945-3.31c2.206-2.207,3.31-4.855,3.31-7.945v-8.165c0-2.352,1.2-3.531,3.604-3.531h7.21
		c2.353,0,3.531,1.179,3.531,3.531v8.165c0,3.531-0.665,6.807-1.993,9.821c-1.327,3.017-3.192,5.703-5.593,8.055
		c-2.403,2.355-5.124,4.193-8.162,5.517c-3.038,1.324-6.32,1.986-9.852,1.986c-3.53,0-6.841-0.662-9.931-1.986
		c-3.09-1.324-5.775-3.162-8.055-5.517c-2.283-2.352-4.083-5.038-5.407-8.055c-1.324-3.014-1.986-6.29-1.986-9.821v-95.998
		c0-3.531,0.662-6.803,1.986-9.821c1.324-3.014,3.124-5.7,5.407-8.055c2.279-2.352,4.965-4.193,8.055-5.517
		c3.09-1.324,6.4-1.986,9.931-1.986c3.531,0,6.813,0.662,9.852,1.986c3.038,1.324,5.759,3.166,8.162,5.517
		c2.4,2.355,4.266,5.041,5.593,8.055c1.328,3.018,1.993,6.29,1.993,9.821v7.503c0,2.355-1.179,3.531-3.531,3.531h-7.21
		C952.957-217.735,951.756-218.911,951.756-221.266z"/>
	<path fill="#1CADA6" d="M1023.919-199.197c0,7.358-2.575,13.461-7.724,18.317c5.148,4.855,7.724,11.034,7.724,18.537v51.42
		c0,2.355-1.179,3.531-3.53,3.531h-7.062c-2.355,0-3.531-1.176-3.531-3.531v-51.42c0-3.234-1.103-5.958-3.31-8.165
		c-2.207-2.207-4.855-3.311-7.945-3.311h-11.255v62.896c0,1.031-0.368,1.875-1.104,2.538c-0.737,0.662-1.544,0.993-2.427,0.993
		h-7.062c-2.354,0-3.53-1.176-3.53-3.531v-136.163c0-1.91,0.661-3.565,1.985-4.965c1.324-1.396,3.014-2.097,5.076-2.097h18.316
		c3.531,0,6.842,0.662,9.932,1.986c3.089,1.324,5.771,3.166,8.055,5.517c2.279,2.355,4.083,5.076,5.406,8.165
		c1.324,3.09,1.986,6.4,1.986,9.931V-199.197z M1009.795-228.548c0-3.234-1.103-5.958-3.31-8.166s-4.855-3.31-7.945-3.31h-11.255
		v52.082h11.255c3.09,0,5.738-1.104,7.945-3.311c2.207-2.207,3.31-4.855,3.31-7.944V-228.548z"/>
	<path fill="#1CADA6" d="M1051.946-240.024v52.302h19.2c2.352,0,3.53,1.179,3.53,3.531v7.062c0,0.883-0.331,1.693-0.993,2.427
		c-0.662,0.738-1.51,1.104-2.537,1.104h-19.2v52.082h19.2c1.027,0,1.875,0.369,2.537,1.104c0.662,0.738,0.993,1.545,0.993,2.428
		v7.062c0,2.355-1.179,3.531-3.53,3.531h-26.262c-2.062,0-3.752-0.662-5.076-1.986c-1.324-1.324-1.986-3.014-1.986-5.076v-132.631
		c0-1.91,0.662-3.565,1.986-4.965c1.324-1.396,3.014-2.097,5.076-2.097h26.262c1.027,0,1.875,0.369,2.537,1.104
		c0.662,0.738,0.993,1.545,0.993,2.427v7.062c0,2.355-1.179,3.531-3.53,3.531H1051.946z"/>
	<path fill="#1CADA6" d="M1114.179-254.148c3.531,0,6.804,0.662,9.82,1.986c3.014,1.324,5.7,3.166,8.056,5.517
		c2.352,2.355,4.192,5.076,5.517,8.165c1.324,3.09,1.986,6.4,1.986,9.931v117.625c0,2.355-1.179,3.531-3.531,3.531h-7.062
		c-2.355,0-3.531-1.176-3.531-3.531v-62.896h-22.73v62.896c0,2.355-1.179,3.531-3.53,3.531h-7.062c-0.883,0-1.693-0.331-2.428-0.993
		c-0.737-0.662-1.104-1.507-1.104-2.538v-117.625c0-3.531,0.662-6.841,1.986-9.931c1.324-3.089,3.162-5.81,5.518-8.165
		c2.352-2.352,5.075-4.193,8.165-5.517C1107.338-253.486,1110.649-254.148,1114.179-254.148z M1125.434-187.942v-40.606
		c0-3.234-1.104-5.958-3.31-8.166c-2.207-2.207-4.855-3.31-7.945-3.31c-3.237,0-5.958,1.103-8.165,3.31s-3.311,4.931-3.311,8.166
		v40.606H1125.434z"/>
	<path fill="#1CADA6" d="M1184.687-253.044c0.662,0.738,0.993,1.545,0.993,2.427v7.062c0,2.355-1.179,3.531-3.531,3.531h-9.931
		v129.101c0,2.355-1.179,3.531-3.53,3.531h-7.062c-2.354,0-3.531-1.176-3.531-3.531v-129.101h-9.931c-2.354,0-3.53-1.176-3.53-3.531
		v-7.062c0-0.882,0.331-1.689,0.993-2.427c0.662-0.734,1.507-1.104,2.537-1.104h33.985
		C1183.177-254.148,1184.025-253.779,1184.687-253.044z"/>
	<path fill="#1CADA6" d="M1208.188-110.923c0,2.355-1.179,3.531-3.53,3.531h-7.062c-2.354,0-3.531-1.176-3.531-3.531v-139.473
		v-0.221c0-0.882,0.331-1.689,0.993-2.427c0.662-0.734,1.507-1.104,2.538-1.104h7.062c1.027,0,1.875,0.369,2.537,1.104
		c0.662,0.738,0.993,1.545,0.993,2.427V-110.923z"/>
	<path fill="#1CADA6" d="M1271.853-253.044c0.662,0.738,0.993,1.545,0.993,2.427v0.221v106.149c0,5.003-1.399,9.71-4.193,14.124
		l-11.917,20.965c-0.737,1.179-1.765,1.766-3.089,1.766h-12.358c-1.324,0-2.355-0.586-3.09-1.766l-11.917-20.965
		c-2.797-4.414-4.193-9.121-4.193-14.124v-106.37c0-0.882,0.331-1.689,0.993-2.427c0.662-0.734,1.507-1.104,2.538-1.104h7.062
		c0.882,0,1.689,0.369,2.427,1.104c0.734,0.738,1.104,1.545,1.104,2.427v106.37c0,0.738,0.035,1.362,0.11,1.876
		c0.072,0.517,0.183,1.069,0.331,1.655l10.813,18.979l10.593-18.979c0.441-1.028,0.662-2.207,0.662-3.531v-106.37
		c0-0.882,0.331-1.689,0.993-2.427c0.662-0.734,1.507-1.104,2.538-1.104h7.062C1270.343-254.148,1271.191-253.779,1271.853-253.044z
		"/>
	<path fill="#1CADA6" d="M1301.093-240.024v52.302h19.2c2.352,0,3.53,1.179,3.53,3.531v7.062c0,0.883-0.331,1.693-0.993,2.427
		c-0.662,0.738-1.51,1.104-2.537,1.104h-19.2v52.082h19.2c1.027,0,1.875,0.369,2.537,1.104c0.662,0.738,0.993,1.545,0.993,2.428
		v7.062c0,2.355-1.179,3.531-3.53,3.531h-26.262c-2.062,0-3.752-0.662-5.076-1.986c-1.324-1.324-1.986-3.014-1.986-5.076v-132.631
		c0-1.91,0.662-3.565,1.986-4.965c1.324-1.396,3.014-2.097,5.076-2.097h26.262c1.027,0,1.875,0.369,2.537,1.104
		c0.662,0.738,0.993,1.545,0.993,2.427v7.062c0,2.355-1.179,3.531-3.53,3.531H1301.093z"/>
</g>
</svg>
