<?xml version="1.0" encoding="utf-8"?>
<!-- Generator: Adobe Illustrator 16.0.0, SVG Export Plug-In . SVG Version: 6.00 Build 0)  -->
<!DOCTYPE svg PUBLIC "-//W3C//DTD SVG 1.1//EN" "http://www.w3.org/Graphics/SVG/1.1/DTD/svg11.dtd">
<svg version="1.1" id="Layer_1" xmlns="http://www.w3.org/2000/svg" xmlns:xlink="http://www.w3.org/1999/xlink" x="0px" y="0px"
	 width="266.825px" height="108.084px" viewBox="-704.362 633.494 266.825 108.084"
	 enable-background="new -704.362 633.494 266.825 108.084" xml:space="preserve">
<g>
	<path fill="#FFFFFF" d="M-673.956,663.698v-4.51c0-1.856-0.663-3.447-1.989-4.773s-2.917-1.989-4.774-1.989
		c-1.856,0-3.448,0.663-4.774,1.989s-1.989,2.917-1.989,4.773v57.689c0,1.857,0.663,3.448,1.989,4.774s2.918,1.989,4.774,1.989
		c1.857,0,3.448-0.663,4.774-1.989s1.989-2.917,1.989-4.774v-4.906c0-1.413,0.721-2.122,2.166-2.122h4.333
		c1.413,0,2.122,0.709,2.122,2.122v4.906c0,2.122-0.4,4.091-1.198,5.902c-0.798,1.812-1.918,3.427-3.361,4.84
		c-1.444,1.416-3.08,2.521-4.905,3.316c-1.826,0.795-3.798,1.193-5.92,1.193s-4.111-0.398-5.968-1.193
		c-1.857-0.796-3.471-1.9-4.841-3.316c-1.372-1.413-2.453-3.027-3.249-4.84c-0.796-1.812-1.193-3.78-1.193-5.902v-57.689
		c0-2.121,0.397-4.088,1.193-5.901c0.796-1.811,1.877-3.425,3.249-4.841c1.37-1.413,2.984-2.52,4.841-3.315
		c1.856-0.795,3.846-1.193,5.968-1.193s4.095,0.398,5.92,1.193c1.825,0.796,3.46,1.902,4.905,3.315
		c1.442,1.416,2.563,3.03,3.361,4.841c0.798,1.813,1.198,3.78,1.198,5.901v4.51c0,1.415-0.708,2.122-2.122,2.122h-4.333
		C-673.235,665.82-673.956,665.113-673.956,663.698z"/>
	<path fill="#FFFFFF" d="M-640.404,643.938c2.122,0,4.088,0.398,5.901,1.193c1.811,0.796,3.425,1.902,4.841,3.315
		c1.413,1.416,2.52,3.051,3.315,4.907c0.795,1.856,1.193,3.846,1.193,5.968v57.557c0,2.122-0.398,4.111-1.193,5.969
		c-0.796,1.856-1.902,3.471-3.315,4.84c-1.416,1.372-3.03,2.454-4.841,3.25c-1.813,0.795-3.78,1.193-5.901,1.193
		c-2.122,0-4.111-0.398-5.968-1.193c-1.856-0.796-3.494-1.878-4.907-3.25c-1.415-1.369-2.52-2.983-3.315-4.84
		c-0.796-1.857-1.193-3.847-1.193-5.969v-57.557c0-2.122,0.397-4.111,1.193-5.968s1.9-3.491,3.315-4.907
		c1.413-1.413,3.05-2.52,4.907-3.315C-644.515,644.336-642.526,643.938-640.404,643.938z M-633.64,659.321
		c0-1.943-0.663-3.58-1.99-4.906c-1.326-1.326-2.917-1.989-4.774-1.989c-1.946,0-3.581,0.663-4.907,1.989s-1.989,2.963-1.989,4.906
		v57.557c0,1.857,0.663,3.448,1.989,4.774s2.961,1.989,4.907,1.989c1.856,0,3.448-0.663,4.774-1.989
		c1.327-1.326,1.99-2.917,1.99-4.774V659.321z"/>
	<path fill="#FFFFFF" d="M-598.762,643.938c2.122,0,4.088,0.398,5.901,1.193c1.811,0.796,3.425,1.902,4.841,3.315
		c1.413,1.416,2.52,3.051,3.315,4.907c0.795,1.856,1.193,3.846,1.193,5.968v70.687c0,1.415-0.708,2.122-2.122,2.122h-4.244
		c-1.415,0-2.122-0.707-2.122-2.122v-70.687c0-1.943-0.663-3.58-1.99-4.906c-1.326-1.326-2.917-1.989-4.774-1.989
		c-1.946,0-3.581,0.663-4.907,1.989s-1.989,2.963-1.989,4.906v70.687c0,1.415-0.708,2.122-2.122,2.122h-4.244
		c-1.415,0-2.122-0.707-2.122-2.122v-70.687c0-2.122,0.397-4.111,1.193-5.968s1.9-3.491,3.315-4.907
		c1.413-1.413,3.05-2.52,4.907-3.315C-602.874,644.336-600.884,643.938-598.762,643.938z"/>
	<path fill="#FFFFFF" d="M-553.738,644.601c0.398,0.443,0.597,0.929,0.597,1.459v4.244c0,1.415-0.708,2.122-2.122,2.122h-5.968
		v77.582c0,1.415-0.708,2.122-2.122,2.122h-4.244c-1.415,0-2.122-0.707-2.122-2.122v-77.582h-5.968
		c-1.415,0-2.122-0.707-2.122-2.122v-4.244c0-0.53,0.199-1.016,0.597-1.459c0.398-0.441,0.905-0.663,1.525-0.663h20.423
		C-554.646,643.938-554.136,644.159-553.738,644.601z"/>
	<path fill="#FFFFFF" d="M-532.056,643.938c2.122,0,4.088,0.398,5.901,1.193c1.811,0.796,3.425,1.902,4.841,3.315
		c1.413,1.416,2.52,3.051,3.315,4.907c0.795,1.856,1.193,3.846,1.193,5.968v70.687c0,1.415-0.708,2.122-2.122,2.122h-4.244
		c-1.415,0-2.122-0.707-2.122-2.122v-37.797h-13.66v37.797c0,1.415-0.708,2.122-2.122,2.122h-4.244c-0.53,0-1.018-0.199-1.458-0.597
		c-0.444-0.398-0.663-0.906-0.663-1.525v-70.687c0-2.122,0.397-4.111,1.193-5.968s1.9-3.491,3.315-4.907
		c1.413-1.413,3.05-2.52,4.907-3.315C-536.167,644.336-534.178,643.938-532.056,643.938z M-525.292,683.724v-24.402
		c0-1.943-0.663-3.58-1.99-4.906c-1.326-1.326-2.917-1.989-4.774-1.989c-1.946,0-3.581,0.663-4.907,1.989s-1.989,2.963-1.989,4.906
		v24.402H-525.292z"/>
	<path fill="#FFFFFF" d="M-483.783,663.698v-4.51c0-1.856-0.663-3.447-1.989-4.773s-2.917-1.989-4.774-1.989
		c-1.856,0-3.448,0.663-4.774,1.989s-1.989,2.917-1.989,4.773v57.689c0,1.857,0.663,3.448,1.989,4.774s2.918,1.989,4.774,1.989
		c1.857,0,3.448-0.663,4.774-1.989s1.989-2.917,1.989-4.774v-4.906c0-1.413,0.721-2.122,2.166-2.122h4.333
		c1.413,0,2.122,0.709,2.122,2.122v4.906c0,2.122-0.4,4.091-1.198,5.902c-0.798,1.812-1.918,3.427-3.361,4.84
		c-1.444,1.416-3.08,2.521-4.905,3.316c-1.826,0.795-3.798,1.193-5.92,1.193s-4.111-0.398-5.968-1.193
		c-1.857-0.796-3.471-1.9-4.841-3.316c-1.372-1.413-2.453-3.027-3.249-4.84c-0.796-1.812-1.193-3.78-1.193-5.902v-57.689
		c0-2.121,0.397-4.088,1.193-5.901c0.796-1.811,1.877-3.425,3.249-4.841c1.37-1.413,2.984-2.52,4.841-3.315
		c1.856-0.795,3.846-1.193,5.968-1.193s4.095,0.398,5.92,1.193c1.825,0.796,3.46,1.902,4.905,3.315
		c1.442,1.416,2.563,3.03,3.361,4.841c0.798,1.813,1.198,3.78,1.198,5.901v4.51c0,1.415-0.708,2.122-2.122,2.122h-4.333
		C-483.062,665.82-483.783,665.113-483.783,663.698z"/>
	<path fill="#FFFFFF" d="M-446.849,644.601c0.398,0.443,0.597,0.929,0.597,1.459v4.244c0,1.415-0.708,2.122-2.122,2.122h-5.968
		v77.582c0,1.415-0.708,2.122-2.122,2.122h-4.244c-1.415,0-2.122-0.707-2.122-2.122v-77.582h-5.968
		c-1.415,0-2.122-0.707-2.122-2.122v-4.244c0-0.53,0.199-1.016,0.597-1.459c0.398-0.441,0.905-0.663,1.525-0.663h20.423
		C-447.757,643.938-447.247,644.159-446.849,644.601z"/>
</g>
</svg>
