<?xml version="1.0" encoding="utf-8"?>
<!-- Generator: Adobe Illustrator 16.0.0, SVG Export Plug-In . SVG Version: 6.00 Build 0)  -->
<!DOCTYPE svg PUBLIC "-//W3C//DTD SVG 1.1//EN" "http://www.w3.org/Graphics/SVG/1.1/DTD/svg11.dtd">
<svg version="1.1" id="Layer_1" xmlns="http://www.w3.org/2000/svg" xmlns:xlink="http://www.w3.org/1999/xlink" x="0px" y="0px"
	 width="325.322px" height="108.084px" viewBox="-704.362 513.5 325.322 108.084"
	 enable-background="new -704.362 513.5 325.322 108.084" xml:space="preserve">
<g>
	<path fill="#FFFFFF" d="M-680.509,523.943c2.122,0,4.088,0.398,5.901,1.193c1.812,0.796,3.426,1.902,4.841,3.315
		c1.413,1.416,2.52,3.051,3.315,4.907c0.796,1.856,1.194,3.846,1.194,5.968v17.639c0,2.122-0.398,4.111-1.194,5.968
		c-0.795,1.856-1.902,3.471-3.315,4.841c-1.415,1.372-3.029,2.453-4.841,3.249c-1.813,0.796-3.779,1.193-5.901,1.193h-6.896v37.797
		c0,0.619-0.199,1.127-0.597,1.525c-0.397,0.397-0.862,0.597-1.392,0.597h-4.244c-1.415,0-2.122-0.707-2.122-2.122v-37.797v-8.487
		v-37.531v-0.133c0-0.53,0.199-1.016,0.597-1.459c0.398-0.441,0.905-0.663,1.525-0.663H-680.509z M-673.745,539.327
		c0-1.943-0.663-3.58-1.989-4.906s-2.917-1.989-4.774-1.989h-6.896v31.298h6.896c1.857,0,3.448-0.663,4.774-1.989
		s1.989-2.918,1.989-4.774V539.327z"/>
	<path fill="#FFFFFF" d="M-641.519,523.943c2.122,0,4.088,0.398,5.901,1.193c1.811,0.796,3.425,1.902,4.841,3.315
		c1.413,1.416,2.52,3.051,3.315,4.907c0.795,1.856,1.193,3.846,1.193,5.968v57.557c0,2.122-0.398,4.111-1.193,5.969
		c-0.796,1.856-1.902,3.471-3.315,4.84c-1.416,1.372-3.03,2.454-4.841,3.25c-1.813,0.795-3.78,1.193-5.901,1.193
		c-2.122,0-4.111-0.398-5.968-1.193c-1.856-0.796-3.494-1.878-4.907-3.25c-1.415-1.369-2.52-2.983-3.315-4.84
		c-0.796-1.857-1.193-3.847-1.193-5.969v-57.557c0-2.122,0.397-4.111,1.193-5.968s1.9-3.491,3.315-4.907
		c1.413-1.413,3.05-2.52,4.907-3.315C-645.63,524.342-643.641,523.943-641.519,523.943z M-634.755,539.327
		c0-1.943-0.663-3.58-1.99-4.906c-1.326-1.326-2.917-1.989-4.774-1.989c-1.946,0-3.581,0.663-4.907,1.989s-1.989,2.963-1.989,4.906
		v57.557c0,1.857,0.663,3.448,1.989,4.774s2.961,1.989,4.907,1.989c1.856,0,3.448-0.663,4.774-1.989
		c1.327-1.326,1.99-2.917,1.99-4.774V539.327z"/>
	<path fill="#FFFFFF" d="M-585.421,556.966c0,4.422-1.548,8.09-4.642,11.008c3.094,2.917,4.642,6.631,4.642,11.14v30.9
		c0,1.415-0.709,2.122-2.122,2.122h-4.244c-1.416,0-2.122-0.707-2.122-2.122v-30.9c0-1.943-0.663-3.581-1.989-4.907
		s-2.917-1.989-4.774-1.989h-6.764v37.797c0,0.619-0.222,1.127-0.663,1.525c-0.443,0.397-0.928,0.597-1.458,0.597h-4.244
		c-1.415,0-2.122-0.707-2.122-2.122v-81.826c0-1.148,0.397-2.143,1.193-2.984c0.796-0.839,1.811-1.26,3.05-1.26h11.007
		c2.122,0,4.111,0.398,5.968,1.193c1.857,0.796,3.469,1.902,4.841,3.315c1.37,1.416,2.454,3.051,3.249,4.907
		c0.796,1.856,1.194,3.846,1.194,5.968V556.966z M-593.909,539.327c0-1.943-0.663-3.58-1.989-4.906s-2.917-1.989-4.774-1.989h-6.764
		v31.298h6.764c1.857,0,3.448-0.663,4.774-1.989s1.989-2.918,1.989-4.774V539.327z"/>
	<path fill="#FFFFFF" d="M-555.648,524.606c0.398,0.443,0.597,0.929,0.597,1.459v4.244c0,1.415-0.708,2.122-2.122,2.122h-5.968
		v77.582c0,1.415-0.708,2.122-2.122,2.122h-4.244c-1.415,0-2.122-0.707-2.122-2.122v-77.582h-5.968
		c-1.415,0-2.122-0.707-2.122-2.122v-4.244c0-0.53,0.199-1.016,0.597-1.459c0.398-0.441,0.905-0.663,1.525-0.663h20.423
		C-556.556,523.943-556.046,524.165-555.648,524.606z"/>
	<path fill="#FFFFFF" d="M-536.884,532.432v31.431h11.538c1.413,0,2.122,0.708,2.122,2.122v4.243c0,0.53-0.199,1.018-0.597,1.459
		c-0.398,0.443-0.907,0.663-1.525,0.663h-11.538v37.664c0,1.415-0.708,2.122-2.122,2.122h-4.244c-1.415,0-2.122-0.707-2.122-2.122
		v-81.826c0-1.148,0.418-2.143,1.26-2.984c0.839-0.839,1.834-1.26,2.984-1.26h15.782c0.618,0,1.127,0.222,1.525,0.663
		c0.398,0.443,0.597,0.929,0.597,1.459v4.244c0,1.415-0.709,2.122-2.122,2.122H-536.884z"/>
	<path fill="#FFFFFF" d="M-496.832,523.943c2.122,0,4.088,0.398,5.901,1.193c1.811,0.796,3.425,1.902,4.841,3.315
		c1.413,1.416,2.52,3.051,3.315,4.907c0.795,1.856,1.193,3.846,1.193,5.968v57.557c0,2.122-0.398,4.111-1.193,5.969
		c-0.796,1.856-1.902,3.471-3.315,4.84c-1.416,1.372-3.03,2.454-4.841,3.25c-1.813,0.795-3.78,1.193-5.901,1.193
		c-2.122,0-4.111-0.398-5.968-1.193c-1.856-0.796-3.494-1.878-4.907-3.25c-1.415-1.369-2.52-2.983-3.315-4.84
		c-0.796-1.857-1.193-3.847-1.193-5.969v-57.557c0-2.122,0.397-4.111,1.193-5.968s1.9-3.491,3.315-4.907
		c1.413-1.413,3.05-2.52,4.907-3.315C-500.943,524.342-498.954,523.943-496.832,523.943z M-490.068,539.327
		c0-1.943-0.663-3.58-1.99-4.906c-1.326-1.326-2.917-1.989-4.774-1.989c-1.946,0-3.581,0.663-4.907,1.989s-1.989,2.963-1.989,4.906
		v57.557c0,1.857,0.663,3.448,1.989,4.774s2.961,1.989,4.907,1.989c1.856,0,3.448-0.663,4.774-1.989
		c1.327-1.326,1.99-2.917,1.99-4.774V539.327z"/>
	<path fill="#FFFFFF" d="M-449.156,604.311c0.398,0.443,0.597,0.929,0.597,1.459v4.244c0,1.415-0.708,2.122-2.122,2.122h-15.649
		c-1.239,0-2.254-0.398-3.05-1.193c-0.796-0.796-1.193-1.812-1.193-3.051v-81.826c0-0.53,0.199-1.016,0.597-1.459
		c0.398-0.441,0.905-0.663,1.525-0.663h4.244c0.53,0,1.015,0.222,1.458,0.663c0.441,0.443,0.663,0.929,0.663,1.459v77.582h11.405
		C-450.064,603.647-449.554,603.869-449.156,604.311z"/>
	<path fill="#FFFFFF" d="M-430.391,610.014c0,1.415-0.708,2.122-2.122,2.122h-4.244c-1.415,0-2.122-0.707-2.122-2.122v-83.815
		v-0.133c0-0.53,0.199-1.016,0.597-1.459c0.398-0.441,0.905-0.663,1.525-0.663h4.244c0.617,0,1.127,0.222,1.525,0.663
		c0.398,0.443,0.597,0.929,0.597,1.459V610.014z"/>
	<path fill="#FFFFFF" d="M-404.001,523.943c2.122,0,4.088,0.398,5.901,1.193c1.811,0.796,3.425,1.902,4.841,3.315
		c1.413,1.416,2.52,3.051,3.315,4.907c0.795,1.856,1.193,3.846,1.193,5.968v57.557c0,2.122-0.398,4.111-1.193,5.969
		c-0.796,1.856-1.902,3.471-3.315,4.84c-1.416,1.372-3.03,2.454-4.841,3.25c-1.813,0.795-3.78,1.193-5.901,1.193
		c-2.122,0-4.111-0.398-5.968-1.193c-1.856-0.796-3.494-1.878-4.907-3.25c-1.415-1.369-2.52-2.983-3.315-4.84
		c-0.796-1.857-1.193-3.847-1.193-5.969v-57.557c0-2.122,0.397-4.111,1.193-5.968s1.9-3.491,3.315-4.907
		c1.413-1.413,3.05-2.52,4.907-3.315C-408.112,524.342-406.123,523.943-404.001,523.943z M-397.237,539.327
		c0-1.943-0.663-3.58-1.99-4.906c-1.326-1.326-2.917-1.989-4.774-1.989c-1.946,0-3.581,0.663-4.907,1.989s-1.989,2.963-1.989,4.906
		v57.557c0,1.857,0.663,3.448,1.989,4.774s2.961,1.989,4.907,1.989c1.856,0,3.448-0.663,4.774-1.989
		c1.327-1.326,1.99-2.917,1.99-4.774V539.327z"/>
</g>
</svg>
