<?xml version="1.0" encoding="utf-8"?>
<!-- Generator: Adobe Illustrator 16.0.0, SVG Export Plug-In . SVG Version: 6.00 Build 0)  -->
<!DOCTYPE svg PUBLIC "-//W3C//DTD SVG 1.1//EN" "http://www.w3.org/Graphics/SVG/1.1/DTD/svg11.dtd">
<svg version="1.1" id="Layer_1" xmlns="http://www.w3.org/2000/svg" xmlns:xlink="http://www.w3.org/1999/xlink" x="0px" y="0px"
	 width="274.898px" height="85.149px" viewBox="1991.264 -530.25 274.898 85.149"
	 enable-background="new 1991.264 -530.25 274.898 85.149" xml:space="preserve">
<g>
	<path fill="#FFFFFF" d="M2004.921-526.986c1.899,0,3.66,0.356,5.283,1.068c1.623,0.712,3.067,1.703,4.335,2.969
		c1.265,1.268,2.256,2.731,2.969,4.394c0.713,1.663,1.068,3.444,1.068,5.344v15.794c0,1.9-0.355,3.681-1.068,5.344
		c-0.713,1.662-1.704,3.107-2.969,4.334c-1.268,1.229-2.712,2.196-4.335,2.909c-1.623,0.712-3.384,1.068-5.283,1.068h-6.175v33.844
		c0,0.554-0.179,1.009-0.535,1.366c-0.355,0.356-0.771,0.534-1.246,0.534h-3.801c-1.267,0-1.9-0.633-1.9-1.9v-33.844v-7.6v-33.606
		v-0.119c0-0.475,0.179-0.91,0.535-1.306c0.356-0.396,0.811-0.594,1.365-0.594H2004.921z M2010.977-513.211
		c0-1.74-0.594-3.206-1.781-4.393s-2.612-1.781-4.274-1.781h-6.175v28.024h6.175c1.662,0,3.087-0.594,4.274-1.781
		s1.781-2.613,1.781-4.275V-513.211z"/>
	<path fill="#FFFFFF" d="M2039.833-526.986c1.899,0,3.66,0.356,5.283,1.068c1.622,0.712,3.067,1.703,4.335,2.969
		c1.265,1.268,2.256,2.731,2.969,4.394c0.712,1.663,1.068,3.444,1.068,5.344v51.537c0,1.9-0.356,3.681-1.068,5.345
		c-0.713,1.662-1.704,3.107-2.969,4.333c-1.268,1.229-2.713,2.197-4.335,2.91c-1.623,0.711-3.384,1.068-5.283,1.068
		c-1.901,0-3.681-0.357-5.345-1.068c-1.662-0.713-3.129-1.682-4.393-2.91c-1.268-1.226-2.256-2.671-2.97-4.333
		c-0.712-1.664-1.069-3.444-1.069-5.345v-51.537c0-1.9,0.357-3.681,1.069-5.344c0.714-1.662,1.702-3.126,2.97-4.394
		c1.264-1.266,2.73-2.256,4.393-2.969C2036.153-526.629,2037.932-526.986,2039.833-526.986z M2045.889-513.211
		c0-1.74-0.594-3.206-1.781-4.393s-2.613-1.781-4.274-1.781c-1.743,0-3.208,0.594-4.396,1.781s-1.779,2.653-1.779,4.393v51.537
		c0,1.663,0.592,3.087,1.779,4.275s2.652,1.781,4.396,1.781c1.661,0,3.087-0.594,4.274-1.781s1.781-2.612,1.781-4.275V-513.211z"/>
	<path fill="#FFFFFF" d="M2090.063-497.417c0,3.959-1.387,7.244-4.156,9.856c2.77,2.612,4.156,5.938,4.156,9.975v27.668
		c0,1.267-0.635,1.9-1.9,1.9h-3.799c-1.268,0-1.9-0.633-1.9-1.9v-27.668c0-1.74-0.594-3.207-1.781-4.394s-2.611-1.781-4.275-1.781
		h-6.057v33.844c0,0.554-0.197,1.009-0.594,1.366c-0.396,0.356-0.831,0.534-1.305,0.534h-3.801c-1.268,0-1.9-0.633-1.9-1.9v-73.268
		c0-1.028,0.356-1.918,1.069-2.672c0.712-0.751,1.622-1.128,2.73-1.128h9.856c1.9,0,3.682,0.356,5.344,1.068
		c1.662,0.712,3.105,1.703,4.334,2.969c1.227,1.268,2.197,2.731,2.91,4.394c0.713,1.663,1.068,3.444,1.068,5.344V-497.417z
		 M2082.463-513.211c0-1.74-0.594-3.206-1.781-4.393s-2.611-1.781-4.275-1.781h-6.057v28.024h6.057c1.664,0,3.088-0.594,4.275-1.781
		s1.781-2.613,1.781-4.275V-513.211z"/>
	<path fill="#FFFFFF" d="M2116.722-526.392c0.356,0.396,0.534,0.831,0.534,1.306v3.8c0,1.267-0.635,1.9-1.9,1.9h-5.344v69.468
		c0,1.267-0.635,1.9-1.899,1.9h-3.8c-1.268,0-1.9-0.633-1.9-1.9v-69.468h-5.344c-1.268,0-1.9-0.633-1.9-1.9v-3.8
		c0-0.475,0.179-0.91,0.535-1.306c0.357-0.396,0.811-0.594,1.365-0.594h18.287C2115.91-526.986,2116.366-526.788,2116.722-526.392z"
		/>
	<path fill="#FFFFFF" d="M2133.524-519.386v28.144h10.33c1.267,0,1.901,0.634,1.901,1.9v3.799c0,0.475-0.179,0.911-0.535,1.307
		c-0.356,0.397-0.812,0.593-1.366,0.593h-10.33v33.725c0,1.267-0.635,1.9-1.9,1.9h-3.8c-1.267,0-1.899-0.633-1.899-1.9v-73.268
		c0-1.028,0.375-1.918,1.127-2.672c0.752-0.751,1.643-1.128,2.673-1.128h14.13c0.555,0,1.01,0.198,1.366,0.594
		c0.356,0.396,0.535,0.831,0.535,1.306v3.8c0,1.267-0.635,1.9-1.901,1.9H2133.524z"/>
	<path fill="#FFFFFF" d="M2169.385-526.986c1.9,0,3.662,0.356,5.285,1.068c1.621,0.712,3.066,1.703,4.334,2.969
		c1.266,1.268,2.256,2.731,2.97,4.394c0.712,1.663,1.068,3.444,1.068,5.344v51.537c0,1.9-0.356,3.681-1.068,5.345
		c-0.714,1.662-1.704,3.107-2.97,4.333c-1.268,1.229-2.713,2.197-4.334,2.91c-1.623,0.711-3.385,1.068-5.285,1.068
		c-1.898,0-3.681-0.357-5.343-1.068c-1.663-0.713-3.128-1.682-4.394-2.91c-1.267-1.226-2.257-2.671-2.969-4.333
		c-0.713-1.664-1.068-3.444-1.068-5.345v-51.537c0-1.9,0.355-3.681,1.068-5.344c0.712-1.662,1.702-3.126,2.969-4.394
		c1.266-1.266,2.73-2.256,4.394-2.969C2165.705-526.629,2167.487-526.986,2169.385-526.986z M2175.442-513.211
		c0-1.74-0.593-3.206-1.781-4.393c-1.188-1.188-2.611-1.781-4.275-1.781c-1.741,0-3.205,0.594-4.393,1.781s-1.781,2.653-1.781,4.393
		v51.537c0,1.663,0.594,3.087,1.781,4.275s2.651,1.781,4.393,1.781c1.664,0,3.088-0.594,4.275-1.781
		c1.188-1.188,1.781-2.612,1.781-4.275V-513.211z"/>
	<path fill="#FFFFFF" d="M2212.075-455.025c0.357,0.397,0.535,0.832,0.535,1.307v3.8c0,1.267-0.635,1.9-1.9,1.9h-14.012
		c-1.109,0-2.019-0.357-2.732-1.068c-0.711-0.713-1.068-1.622-1.068-2.732v-73.268c0-0.475,0.179-0.91,0.535-1.306
		c0.355-0.396,0.811-0.594,1.365-0.594h3.801c0.475,0,0.908,0.198,1.305,0.594c0.396,0.396,0.595,0.831,0.595,1.306v69.467h10.212
		C2211.262-455.619,2211.719-455.42,2212.075-455.025z"/>
	<path fill="#FFFFFF" d="M2228.877-449.918c0,1.267-0.635,1.9-1.898,1.9h-3.801c-1.268,0-1.9-0.633-1.9-1.9v-75.049v-0.119
		c0-0.475,0.178-0.91,0.535-1.306c0.356-0.396,0.811-0.594,1.365-0.594h3.801c0.553,0,1.009,0.198,1.365,0.594
		c0.355,0.396,0.533,0.831,0.533,1.306V-449.918z"/>
	<path fill="#FFFFFF" d="M2252.508-526.986c1.899,0,3.66,0.356,5.283,1.068c1.622,0.712,3.067,1.703,4.336,2.969
		c1.264,1.268,2.256,2.731,2.967,4.394c0.713,1.663,1.068,3.444,1.068,5.344v51.537c0,1.9-0.355,3.681-1.068,5.345
		c-0.711,1.662-1.703,3.107-2.967,4.333c-1.269,1.229-2.714,2.197-4.336,2.91c-1.623,0.711-3.384,1.068-5.283,1.068
		c-1.9,0-3.682-0.357-5.345-1.068c-1.662-0.713-3.128-1.682-4.394-2.91c-1.268-1.226-2.256-2.671-2.969-4.333
		c-0.712-1.664-1.068-3.444-1.068-5.345v-51.537c0-1.9,0.356-3.681,1.068-5.344c0.713-1.662,1.701-3.126,2.969-4.394
		c1.266-1.266,2.731-2.256,4.394-2.969C2248.827-526.629,2250.608-526.986,2252.508-526.986z M2258.565-513.211
		c0-1.74-0.596-3.206-1.783-4.393s-2.612-1.781-4.273-1.781c-1.742,0-3.207,0.594-4.395,1.781s-1.781,2.653-1.781,4.393v51.537
		c0,1.663,0.594,3.087,1.781,4.275s2.652,1.781,4.395,1.781c1.661,0,3.086-0.594,4.273-1.781s1.783-2.612,1.783-4.275V-513.211z"/>
</g>
</svg>
