<?xml version="1.0" encoding="utf-8"?>
<!-- Generator: Adobe Illustrator 16.0.0, SVG Export Plug-In . SVG Version: 6.00 Build 0)  -->
<!DOCTYPE svg PUBLIC "-//W3C//DTD SVG 1.1//EN" "http://www.w3.org/Graphics/SVG/1.1/DTD/svg11.dtd">
<svg version="1.1" id="Layer_1" xmlns="http://www.w3.org/2000/svg" xmlns:xlink="http://www.w3.org/1999/xlink" x="0px" y="0px"
	 width="452.535px" height="89.996px" viewBox="-452.535 -172.149 452.535 89.996"
	 enable-background="new -452.535 -172.149 452.535 89.996" xml:space="preserve">
<g>
	<path fill="#1CADA6" d="M-422.574-148.299v-3.876c0-1.596-0.57-2.964-1.71-4.104s-2.508-1.71-4.104-1.71
		c-1.596,0-2.964,0.57-4.104,1.71s-1.71,2.508-1.71,4.104v49.592c0,1.596,0.57,2.964,1.71,4.104c1.14,1.141,2.508,1.711,4.104,1.711
		c1.596,0,2.964-0.57,4.104-1.711c1.14-1.14,1.71-2.508,1.71-4.104v-21.319h-3.99c-1.216,0-1.824-0.607-1.824-1.823v-3.649
		c0-1.215,0.608-1.824,1.824-1.824h9.462c1.215,0,1.824,0.609,1.824,1.824v26.792c0,1.824-0.342,3.516-1.026,5.073
		c-0.684,1.559-1.635,2.946-2.85,4.161c-1.217,1.217-2.604,2.166-4.162,2.85c-1.559,0.685-3.249,1.026-5.073,1.026
		c-1.824,0-3.516-0.342-5.073-1.026c-1.559-0.684-2.947-1.633-4.162-2.85c-1.216-1.215-2.166-2.603-2.85-4.161
		c-0.684-1.558-1.026-3.249-1.026-5.073v-49.592c0-1.824,0.342-3.515,1.026-5.073c0.684-1.557,1.634-2.945,2.85-4.162
		c1.215-1.215,2.603-2.166,4.162-2.85c1.557-0.684,3.249-1.026,5.073-1.026c1.824,0,3.515,0.342,5.073,1.026
		c1.557,0.684,2.945,1.635,4.162,2.85c1.215,1.217,2.166,2.604,2.85,4.162c0.684,1.559,1.026,3.249,1.026,5.073v3.876
		c0,1.217-0.609,1.824-1.824,1.824h-3.648C-421.967-146.475-422.574-147.083-422.574-148.299z"/>
	<path fill="#1CADA6" d="M-380.166-136.899c0,3.801-1.331,6.955-3.99,9.462c2.659,2.508,3.99,5.7,3.99,9.576v26.563
		c0,1.217-0.609,1.824-1.824,1.824h-3.648c-1.216,0-1.824-0.607-1.824-1.824v-26.563c0-1.671-0.57-3.078-1.71-4.218
		c-1.14-1.14-2.508-1.71-4.104-1.71h-5.814v32.491c0,0.533-0.19,0.969-0.57,1.312c-0.381,0.342-0.798,0.513-1.254,0.513h-3.648
		c-1.216,0-1.824-0.607-1.824-1.824v-70.341c0-0.987,0.342-1.842,1.026-2.565c0.684-0.721,1.557-1.083,2.622-1.083h9.462
		c1.824,0,3.534,0.342,5.13,1.026c1.596,0.684,2.982,1.635,4.161,2.85c1.177,1.217,2.109,2.623,2.793,4.218
		c0.684,1.596,1.026,3.306,1.026,5.13V-136.899z M-387.462-152.062c0-1.671-0.57-3.078-1.71-4.218c-1.14-1.14-2.508-1.71-4.104-1.71
		h-5.814v26.905h5.814c1.596,0,2.964-0.57,4.104-1.71c1.14-1.14,1.71-2.508,1.71-4.104V-152.062z"/>
	<path fill="#1CADA6" d="M-357.479-165.286c1.824,0,3.515,0.342,5.073,1.026c1.557,0.684,2.944,1.635,4.161,2.85
		c1.215,1.217,2.166,2.623,2.85,4.218c0.684,1.596,1.026,3.306,1.026,5.13v60.765c0,1.217-0.609,1.824-1.824,1.824h-3.648
		c-1.216,0-1.824-0.607-1.824-1.824v-32.491h-11.743v32.491c0,1.217-0.609,1.824-1.824,1.824h-3.648
		c-0.456,0-0.875-0.171-1.254-0.513c-0.381-0.343-0.57-0.778-0.57-1.312v-60.765c0-1.824,0.342-3.534,1.026-5.13
		c0.684-1.596,1.634-3.001,2.85-4.218c1.215-1.215,2.623-2.166,4.218-2.85C-361.013-164.944-359.303-165.286-357.479-165.286z
		 M-351.664-131.084v-20.977c0-1.671-0.57-3.078-1.71-4.218c-1.14-1.14-2.508-1.71-4.104-1.71c-1.673,0-3.078,0.57-4.218,1.71
		s-1.71,2.547-1.71,4.218v20.977H-351.664z"/>
	<path fill="#1CADA6" d="M-315.981-148.299v-3.876c0-1.596-0.57-2.964-1.71-4.104s-2.508-1.71-4.104-1.71
		c-1.596,0-2.964,0.57-4.104,1.71s-1.71,2.508-1.71,4.104v49.592c0,1.596,0.57,2.964,1.71,4.104c1.14,1.141,2.508,1.711,4.104,1.711
		c1.596,0,2.964-0.57,4.104-1.711c1.14-1.14,1.71-2.508,1.71-4.104v-4.219c0-1.215,0.62-1.824,1.861-1.824h3.725
		c1.215,0,1.824,0.609,1.824,1.824v4.219c0,1.824-0.344,3.516-1.029,5.073c-0.686,1.559-1.649,2.946-2.889,4.161
		c-1.242,1.217-2.647,2.166-4.217,2.85c-1.569,0.685-3.265,1.026-5.089,1.026c-1.824,0-3.534-0.342-5.13-1.026
		c-1.596-0.684-2.984-1.633-4.161-2.85c-1.179-1.215-2.109-2.603-2.793-4.161c-0.684-1.558-1.026-3.249-1.026-5.073v-49.592
		c0-1.824,0.342-3.515,1.026-5.073c0.684-1.557,1.614-2.945,2.793-4.162c1.177-1.215,2.565-2.166,4.161-2.85
		c1.596-0.684,3.306-1.026,5.13-1.026c1.824,0,3.52,0.342,5.089,1.026c1.569,0.684,2.975,1.635,4.217,2.85
		c1.24,1.217,2.203,2.604,2.889,4.162c0.686,1.559,1.029,3.249,1.029,5.073v3.876c0,1.217-0.609,1.824-1.824,1.824h-3.725
		C-315.361-146.475-315.981-147.083-315.981-148.299z"/>
	<path fill="#1CADA6" d="M-293.067-157.99v27.019h9.918c1.215,0,1.824,0.609,1.824,1.824v3.648c0,0.456-0.171,0.874-0.513,1.254
		c-0.342,0.381-0.78,0.57-1.311,0.57h-9.918v26.905h9.918c0.531,0,0.969,0.19,1.311,0.569c0.342,0.382,0.513,0.798,0.513,1.254
		v3.648c0,1.217-0.609,1.824-1.824,1.824h-13.567c-1.065,0-1.938-0.342-2.622-1.026c-0.684-0.684-1.026-1.557-1.026-2.622v-68.517
		c0-0.987,0.342-1.842,1.026-2.565c0.684-0.721,1.557-1.083,2.622-1.083h13.567c0.531,0,0.969,0.19,1.311,0.57
		c0.342,0.381,0.513,0.798,0.513,1.254v3.648c0,1.217-0.609,1.824-1.824,1.824H-293.067z"/>
	<path fill="#1CADA6" d="M-247.18-164.716c0.342,0.381,0.513,0.798,0.513,1.254v26.563c0,3.041-0.895,5.7-2.679,7.98
		c-1.787,2.28-4.047,3.838-6.783,4.674v32.947c0,0.533-0.191,0.969-0.57,1.312c-0.381,0.342-0.798,0.513-1.254,0.513h-3.648
		c-1.216,0-1.824-0.607-1.824-1.824v-32.947c-2.813-0.836-5.113-2.394-6.897-4.674c-1.787-2.28-2.679-4.939-2.679-7.98v-26.563
		c0-0.456,0.171-0.873,0.513-1.254c0.342-0.379,0.778-0.57,1.311-0.57h3.648c0.531,0,0.969,0.19,1.311,0.57
		c0.342,0.381,0.513,0.798,0.513,1.254v26.563c0,1.596,0.57,2.964,1.71,4.104c1.14,1.14,2.546,1.71,4.218,1.71
		c1.596,0,2.964-0.57,4.104-1.71c1.14-1.14,1.71-2.508,1.71-4.104v-26.563c0-0.456,0.171-0.873,0.513-1.254
		c0.342-0.379,0.779-0.57,1.311-0.57h3.648C-247.96-165.286-247.522-165.096-247.18-164.716z"/>
	<path fill="#1CADA6" d="M-189.78-165.286c1.824,0,3.534,0.342,5.13,1.026c1.596,0.684,3.001,1.635,4.218,2.85
		c1.215,1.217,2.166,2.623,2.85,4.218c0.684,1.596,1.026,3.306,1.026,5.13v60.765c0,0.533-0.19,0.969-0.57,1.312
		c-0.381,0.342-0.798,0.513-1.254,0.513h-3.648c-1.217,0-1.824-0.607-1.824-1.824v-60.765c0-1.671-0.57-3.078-1.71-4.218
		s-2.547-1.71-4.218-1.71c-1.596,0-2.964,0.57-4.104,1.71s-1.71,2.547-1.71,4.218v60.765c0,1.217-0.609,1.824-1.824,1.824h-3.648
		c-1.216,0-1.824-0.607-1.824-1.824v-60.765c0-1.671-0.57-3.078-1.71-4.218c-1.14-1.14-2.508-1.71-4.104-1.71
		c-1.673,0-3.078,0.57-4.218,1.71s-1.71,2.547-1.71,4.218v60.765c0,1.217-0.609,1.824-1.824,1.824h-3.648
		c-0.456,0-0.875-0.171-1.254-0.513c-0.381-0.343-0.57-0.778-0.57-1.312v-60.765c0-1.824,0.342-3.534,1.026-5.13
		c0.684-1.596,1.634-3.001,2.85-4.218c1.215-1.215,2.623-2.166,4.218-2.85c1.596-0.684,3.306-1.026,5.13-1.026
		s3.552,0.362,5.187,1.083c1.634,0.723,3.059,1.73,4.275,3.021c1.215-1.291,2.64-2.298,4.275-3.021
		C-193.333-164.924-191.604-165.286-189.78-165.286z"/>
	<path fill="#1CADA6" d="M-153.87-165.286c1.824,0,3.515,0.342,5.073,1.026c1.557,0.684,2.944,1.635,4.161,2.85
		c1.215,1.217,2.166,2.623,2.85,4.218c0.684,1.596,1.026,3.306,1.026,5.13v49.479c0,1.824-0.342,3.534-1.026,5.13
		s-1.635,2.983-2.85,4.161c-1.217,1.18-2.604,2.109-4.161,2.793c-1.559,0.685-3.249,1.026-5.073,1.026s-3.534-0.342-5.13-1.026
		c-1.596-0.684-3.003-1.613-4.218-2.793c-1.216-1.178-2.166-2.565-2.85-4.161s-1.026-3.306-1.026-5.13v-49.479
		c0-1.824,0.342-3.534,1.026-5.13c0.684-1.596,1.634-3.001,2.85-4.218c1.215-1.215,2.623-2.166,4.218-2.85
		C-157.404-164.944-155.694-165.286-153.87-165.286z M-148.055-152.062c0-1.671-0.57-3.078-1.71-4.218
		c-1.14-1.14-2.508-1.71-4.104-1.71c-1.673,0-3.078,0.57-4.218,1.71s-1.71,2.547-1.71,4.218v49.479c0,1.596,0.57,2.964,1.71,4.104
		c1.14,1.141,2.545,1.711,4.218,1.711c1.596,0,2.964-0.57,4.104-1.711c1.14-1.14,1.71-2.508,1.71-4.104V-152.062z"/>
	<path fill="#1CADA6" d="M-105.646-136.899c0,3.801-1.331,6.955-3.99,9.462c2.659,2.508,3.99,5.7,3.99,9.576v26.563
		c0,1.217-0.609,1.824-1.824,1.824h-3.648c-1.216,0-1.824-0.607-1.824-1.824v-26.563c0-1.671-0.57-3.078-1.71-4.218
		c-1.14-1.14-2.508-1.71-4.104-1.71h-5.814v32.491c0,0.533-0.19,0.969-0.57,1.312c-0.381,0.342-0.798,0.513-1.254,0.513h-3.648
		c-1.216,0-1.824-0.607-1.824-1.824v-70.341c0-0.987,0.342-1.842,1.026-2.565c0.684-0.721,1.557-1.083,2.622-1.083h9.462
		c1.824,0,3.534,0.342,5.13,1.026c1.596,0.684,2.982,1.635,4.161,2.85c1.177,1.217,2.109,2.623,2.793,4.218
		c0.684,1.596,1.026,3.306,1.026,5.13V-136.899z M-112.942-152.062c0-1.671-0.57-3.078-1.71-4.218c-1.14-1.14-2.508-1.71-4.104-1.71
		h-5.814v26.905h5.814c1.596,0,2.964-0.57,4.104-1.71c1.14-1.14,1.71-2.508,1.71-4.104V-152.062z"/>
	<path fill="#1CADA6" d="M-80.052-164.716c0.342,0.381,0.513,0.798,0.513,1.254v3.648c0,1.217-0.609,1.824-1.824,1.824h-5.13v66.693
		c0,1.217-0.609,1.824-1.824,1.824h-3.648c-1.216,0-1.824-0.607-1.824-1.824v-66.693h-5.13c-1.217,0-1.824-0.607-1.824-1.824v-3.648
		c0-0.456,0.171-0.873,0.513-1.254c0.342-0.379,0.778-0.57,1.311-0.57h17.557C-80.832-165.286-80.394-165.096-80.052-164.716z"/>
	<path fill="#1CADA6" d="M-61.413-165.286c1.824,0,3.515,0.342,5.073,1.026c1.557,0.684,2.944,1.635,4.161,2.85
		c1.215,1.217,2.166,2.623,2.85,4.218c0.684,1.596,1.026,3.306,1.026,5.13v49.479c0,1.824-0.342,3.534-1.026,5.13
		s-1.635,2.983-2.85,4.161c-1.217,1.18-2.604,2.109-4.161,2.793c-1.559,0.685-3.249,1.026-5.073,1.026s-3.534-0.342-5.13-1.026
		c-1.596-0.684-3.003-1.613-4.218-2.793c-1.216-1.178-2.166-2.565-2.85-4.161s-1.026-3.306-1.026-5.13v-49.479
		c0-1.824,0.342-3.534,1.026-5.13c0.684-1.596,1.634-3.001,2.85-4.218c1.215-1.215,2.623-2.166,4.218-2.85
		C-64.947-164.944-63.237-165.286-61.413-165.286z M-55.598-152.062c0-1.671-0.57-3.078-1.71-4.218
		c-1.14-1.14-2.508-1.71-4.104-1.71c-1.673,0-3.078,0.57-4.218,1.71s-1.71,2.547-1.71,4.218v49.479c0,1.596,0.57,2.964,1.71,4.104
		c1.14,1.141,2.545,1.711,4.218,1.711c1.596,0,2.964-0.57,4.104-1.711c1.14-1.14,1.71-2.508,1.71-4.104V-152.062z"/>
	<path fill="#1CADA6" d="M-25.615-165.286c1.824,0,3.515,0.342,5.073,1.026c1.557,0.684,2.944,1.635,4.161,2.85
		c1.215,1.217,2.166,2.623,2.85,4.218c0.684,1.596,1.026,3.306,1.026,5.13v60.765c0,1.217-0.609,1.824-1.824,1.824h-3.648
		c-1.216,0-1.824-0.607-1.824-1.824v-60.765c0-1.671-0.57-3.078-1.71-4.218c-1.14-1.14-2.508-1.71-4.104-1.71
		c-1.673,0-3.078,0.57-4.218,1.71s-1.71,2.547-1.71,4.218v60.765c0,1.217-0.609,1.824-1.824,1.824h-3.648
		c-1.217,0-1.824-0.607-1.824-1.824v-60.765c0-1.824,0.342-3.534,1.026-5.13c0.684-1.596,1.634-3.001,2.85-4.218
		c1.215-1.215,2.623-2.166,4.218-2.85C-29.149-164.944-27.439-165.286-25.615-165.286z"/>
</g>
</svg>
