<?xml version="1.0" encoding="utf-8"?>
<!-- Generator: Adobe Illustrator 16.0.0, SVG Export Plug-In . SVG Version: 6.00 Build 0)  -->
<!DOCTYPE svg PUBLIC "-//W3C//DTD SVG 1.1//EN" "http://www.w3.org/Graphics/SVG/1.1/DTD/svg11.dtd">
<svg version="1.1" id="Layer_1" xmlns="http://www.w3.org/2000/svg" xmlns:xlink="http://www.w3.org/1999/xlink" x="0px" y="0px"
	 width="268.662px" height="103.5px" viewBox="613.675 245 268.662 103.5" enable-background="new 613.675 245 268.662 103.5"
	 xml:space="preserve">
<g>
	<path fill="#1CADA6" d="M650.377,273.338v-4.019c0-1.654-0.591-3.072-1.772-4.255c-1.183-1.182-2.601-1.772-4.255-1.772
		s-3.073,0.591-4.255,1.772c-1.182,1.183-1.772,2.601-1.772,4.255v51.41c0,1.654,0.591,3.072,1.772,4.254
		c1.182,1.183,2.601,1.773,4.255,1.773s3.072-0.591,4.255-1.773c1.182-1.182,1.772-2.6,1.772-4.254v-4.373
		c0-1.26,0.643-1.891,1.93-1.891h3.861c1.26,0,1.891,0.631,1.891,1.891v4.373c0,1.891-0.356,3.645-1.067,5.259
		c-0.711,1.616-1.71,3.055-2.995,4.313c-1.287,1.262-2.744,2.246-4.371,2.955s-3.385,1.063-5.275,1.063s-3.664-0.354-5.318-1.063
		s-3.093-1.693-4.313-2.955c-1.223-1.259-2.187-2.697-2.896-4.313c-0.709-1.614-1.063-3.368-1.063-5.259v-51.41
		c0-1.891,0.354-3.644,1.063-5.259c0.709-1.614,1.673-3.053,2.896-4.313c1.221-1.26,2.659-2.246,4.313-2.955
		s3.428-1.063,5.318-1.063s3.648,0.354,5.275,1.063s3.084,1.695,4.371,2.955c1.285,1.261,2.284,2.699,2.995,4.313
		c0.711,1.615,1.067,3.368,1.067,5.259v4.019c0,1.261-0.631,1.891-1.891,1.891h-3.861
		C651.02,275.229,650.377,274.599,650.377,273.338z"/>
	<path fill="#1CADA6" d="M691.386,285.156c0,3.94-1.379,7.209-4.137,9.81c2.758,2.6,4.137,5.908,4.137,9.927v27.537
		c0,1.261-0.632,1.891-1.891,1.891h-3.782c-1.261,0-1.891-0.63-1.891-1.891v-27.537c0-1.732-0.591-3.191-1.772-4.373
		c-1.183-1.182-2.601-1.772-4.255-1.772h-6.027v33.683c0,0.552-0.198,1.004-0.591,1.358c-0.396,0.354-0.827,0.532-1.301,0.532
		h-3.781c-1.262,0-1.892-0.63-1.892-1.891v-72.919c0-1.023,0.355-1.91,1.064-2.659c0.709-0.748,1.613-1.123,2.718-1.123h9.81
		c1.891,0,3.663,0.354,5.318,1.063c1.654,0.709,3.091,1.695,4.313,2.955c1.221,1.261,2.187,2.718,2.896,4.372
		c0.709,1.655,1.063,3.428,1.063,5.318V285.156z M683.823,269.438c0-1.731-0.591-3.19-1.772-4.373
		c-1.183-1.182-2.601-1.772-4.255-1.772h-6.027v27.892h6.027c1.654,0,3.072-0.591,4.255-1.772c1.182-1.183,1.772-2.601,1.772-4.255
		V269.438z"/>
	<path fill="#1CADA6" d="M708.759,263.292v28.01h10.282c1.259,0,1.891,0.632,1.891,1.891v3.782c0,0.473-0.178,0.906-0.532,1.3
		c-0.354,0.396-0.809,0.591-1.358,0.591h-10.282v27.892h10.282c0.55,0,1.004,0.197,1.358,0.591c0.354,0.395,0.532,0.827,0.532,1.3
		v3.782c0,1.261-0.632,1.891-1.891,1.891h-14.064c-1.104,0-2.009-0.354-2.718-1.063s-1.063-1.614-1.063-2.719v-71.027
		c0-1.023,0.354-1.91,1.063-2.659c0.709-0.748,1.613-1.123,2.718-1.123h14.064c0.55,0,1.004,0.197,1.358,0.591
		c0.354,0.396,0.532,0.827,0.532,1.3v3.782c0,1.261-0.632,1.891-1.891,1.891H708.759z"/>
	<path fill="#1CADA6" d="M744.451,255.729c1.891,0,3.644,0.354,5.259,1.063c1.614,0.709,3.053,1.695,4.314,2.955
		c1.259,1.261,2.245,2.718,2.954,4.372c0.709,1.655,1.063,3.428,1.063,5.318v62.992c0,1.261-0.631,1.891-1.891,1.891h-3.782
		c-1.261,0-1.891-0.63-1.891-1.891v-33.683h-12.173v33.683c0,1.261-0.632,1.891-1.891,1.891h-3.782c-0.473,0-0.907-0.178-1.3-0.532
		c-0.396-0.354-0.591-0.807-0.591-1.358v-62.992c0-1.891,0.354-3.663,1.063-5.318c0.709-1.654,1.693-3.111,2.954-4.372
		c1.26-1.26,2.719-2.246,4.373-2.955S742.56,255.729,744.451,255.729z M750.478,291.184v-21.746c0-1.731-0.591-3.19-1.772-4.373
		c-1.183-1.182-2.601-1.772-4.255-1.772c-1.734,0-3.191,0.591-4.373,1.772c-1.182,1.183-1.772,2.642-1.772,4.373v21.746H750.478z"/>
	<path fill="#1CADA6" d="M784.574,256.319c0.354,0.396,0.531,0.827,0.531,1.3v3.782c0,1.261-0.632,1.891-1.891,1.891h-5.318v69.138
		c0,1.261-0.632,1.891-1.891,1.891h-3.782c-1.262,0-1.891-0.63-1.891-1.891v-69.138h-5.318c-1.262,0-1.892-0.63-1.892-1.891v-3.782
		c0-0.473,0.178-0.904,0.532-1.3c0.354-0.394,0.807-0.591,1.359-0.591h18.2C783.764,255.729,784.218,255.926,784.574,256.319z"/>
	<path fill="#1CADA6" d="M799.523,332.43c0,1.261-0.632,1.891-1.891,1.891h-3.782c-1.262,0-1.891-0.63-1.891-1.891v-74.692v-0.118
		c0-0.473,0.177-0.904,0.531-1.3c0.354-0.394,0.808-0.591,1.359-0.591h3.782c0.55,0,1.004,0.197,1.358,0.591
		c0.354,0.396,0.532,0.827,0.532,1.3V332.43z"/>
	<path fill="#1CADA6" d="M835.982,256.319c0.354,0.396,0.531,0.827,0.531,1.3v0.118v56.847c0,2.679-0.75,5.2-2.245,7.563
		l-6.382,11.228c-0.396,0.632-0.945,0.945-1.655,0.945h-6.618c-0.709,0-1.261-0.313-1.654-0.945l-6.382-11.228
		c-1.498-2.363-2.245-4.885-2.245-7.563v-56.965c0-0.473,0.177-0.904,0.531-1.3c0.354-0.394,0.808-0.591,1.359-0.591h3.782
		c0.473,0,0.904,0.197,1.3,0.591c0.394,0.396,0.591,0.827,0.591,1.3v56.965c0,0.395,0.019,0.729,0.059,1.004
		c0.039,0.277,0.099,0.573,0.178,0.887l5.791,10.164l5.673-10.164c0.236-0.551,0.354-1.182,0.354-1.891v-56.965
		c0-0.473,0.177-0.904,0.532-1.3c0.354-0.394,0.807-0.591,1.358-0.591h3.782C835.172,255.729,835.627,255.926,835.982,256.319z"/>
	<path fill="#1CADA6" d="M854.004,263.292v28.01h10.282c1.259,0,1.891,0.632,1.891,1.891v3.782c0,0.473-0.178,0.906-0.532,1.3
		c-0.354,0.396-0.809,0.591-1.358,0.591h-10.282v27.892h10.282c0.55,0,1.004,0.197,1.358,0.591c0.354,0.395,0.532,0.827,0.532,1.3
		v3.782c0,1.261-0.632,1.891-1.891,1.891h-14.064c-1.104,0-2.009-0.354-2.718-1.063s-1.063-1.614-1.063-2.719v-71.027
		c0-1.023,0.354-1.91,1.063-2.659c0.709-0.748,1.613-1.123,2.718-1.123h14.064c0.55,0,1.004,0.197,1.358,0.591
		c0.354,0.396,0.532,0.827,0.532,1.3v3.782c0,1.261-0.632,1.891-1.891,1.891H854.004z"/>
</g>
</svg>
