<?xml version="1.0" encoding="utf-8"?>
<!-- Generator: Adobe Illustrator 16.0.0, SVG Export Plug-In . SVG Version: 6.00 Build 0)  -->
<!DOCTYPE svg PUBLIC "-//W3C//DTD SVG 1.1//EN" "http://www.w3.org/Graphics/SVG/1.1/DTD/svg11.dtd">
<svg version="1.1" id="Layer_1" xmlns="http://www.w3.org/2000/svg" xmlns:xlink="http://www.w3.org/1999/xlink" x="0px" y="0px"
	 width="124.662px" height="103.5px" viewBox="613.675 121 124.662 103.5" enable-background="new 613.675 121 124.662 103.5"
	 xml:space="preserve">
<g>
	<path fill="#1CADA6" d="M649.196,150.338v-4.019c0-1.654-0.591-3.072-1.773-4.255c-1.182-1.182-2.6-1.772-4.254-1.772
		c-1.655,0-3.073,0.591-4.255,1.772c-1.182,1.183-1.772,2.601-1.772,4.255v6.027c0,0.709,0.019,1.144,0.059,1.3
		c0.039,0.159,0.137,0.396,0.296,0.71l17.019,30.018c0.55,1.025,0.983,1.813,1.3,2.364c0.313,0.552,0.531,1.063,0.649,1.536
		s0.196,0.966,0.236,1.478c0.039,0.514,0.06,1.202,0.06,2.068v5.909c0,1.891-0.354,3.663-1.063,5.318
		c-0.709,1.654-1.695,3.093-2.955,4.313c-1.261,1.223-2.699,2.187-4.313,2.896c-1.615,0.709-3.368,1.063-5.259,1.063
		c-1.892,0-3.646-0.354-5.26-1.063c-1.615-0.709-3.054-1.673-4.313-2.896c-1.261-1.221-2.245-2.659-2.954-4.313
		c-0.71-1.655-1.064-3.428-1.064-5.318v-4.019c0-0.473,0.178-0.905,0.532-1.3c0.354-0.394,0.807-0.591,1.359-0.591h3.781
		c0.551,0,1.005,0.197,1.359,0.591c0.354,0.395,0.532,0.827,0.532,1.3v4.019c0,1.733,0.591,3.19,1.772,4.372
		c1.182,1.183,2.6,1.773,4.255,1.773c1.654,0,3.072-0.591,4.254-1.773c1.183-1.182,1.773-2.639,1.773-4.372v-5.909
		c0-0.63-0.021-1.023-0.06-1.183c-0.04-0.156-0.139-0.393-0.295-0.709l-17.019-30.018c-0.553-1.023-0.986-1.812-1.3-2.364
		c-0.316-0.55-0.532-1.063-0.65-1.536s-0.197-0.984-0.236-1.536c-0.041-0.551-0.06-1.26-0.06-2.128v-6.027
		c0-1.891,0.354-3.644,1.064-5.259c0.709-1.614,1.693-3.053,2.954-4.313c1.26-1.26,2.698-2.246,4.313-2.955
		c1.614-0.709,3.368-1.063,5.26-1.063c1.891,0,3.644,0.354,5.259,1.063c1.614,0.709,3.053,1.695,4.313,2.955
		c1.26,1.261,2.246,2.699,2.955,4.313c0.709,1.615,1.063,3.368,1.063,5.259v4.019c0,1.261-0.632,1.891-1.891,1.891h-3.782
		C649.826,152.229,649.196,151.599,649.196,150.338z"/>
	<path fill="#1CADA6" d="M672.951,140.292v28.01h10.282c1.259,0,1.891,0.632,1.891,1.891v3.782c0,0.473-0.178,0.906-0.532,1.3
		c-0.354,0.396-0.809,0.591-1.358,0.591h-10.282v27.892h10.282c0.55,0,1.004,0.197,1.358,0.591c0.354,0.395,0.532,0.827,0.532,1.3
		v3.782c0,1.261-0.632,1.891-1.891,1.891h-14.064c-1.104,0-2.009-0.354-2.718-1.063s-1.063-1.614-1.063-2.719v-71.027
		c0-1.023,0.354-1.91,1.063-2.659c0.709-0.748,1.613-1.123,2.718-1.123h14.064c0.55,0,1.004,0.197,1.358,0.591
		c0.354,0.396,0.532,0.827,0.532,1.3v3.782c0,1.261-0.632,1.891-1.891,1.891H672.951z"/>
	<path fill="#1CADA6" d="M708.642,132.729c1.891,0,3.644,0.354,5.259,1.063c1.614,0.709,3.053,1.695,4.314,2.955
		c1.259,1.261,2.245,2.718,2.954,4.372c0.709,1.655,1.063,3.428,1.063,5.318v62.992c0,1.261-0.631,1.891-1.891,1.891h-3.782
		c-1.261,0-1.891-0.63-1.891-1.891v-33.683h-12.173v33.683c0,1.261-0.632,1.891-1.891,1.891h-3.782c-0.473,0-0.907-0.178-1.3-0.532
		c-0.396-0.354-0.591-0.807-0.591-1.358v-62.992c0-1.891,0.354-3.663,1.063-5.318c0.709-1.654,1.693-3.111,2.954-4.372
		c1.26-1.26,2.719-2.246,4.373-2.955S706.751,132.729,708.642,132.729z M714.669,168.184v-21.746c0-1.731-0.591-3.19-1.772-4.373
		c-1.183-1.182-2.601-1.772-4.255-1.772c-1.734,0-3.191,0.591-4.373,1.772c-1.182,1.183-1.772,2.642-1.772,4.373v21.746H714.669z"/>
</g>
</svg>
