<?xml version="1.0" encoding="utf-8"?>
<!-- Generator: Adobe Illustrator 16.0.0, SVG Export Plug-In . SVG Version: 6.00 Build 0)  -->
<!DOCTYPE svg PUBLIC "-//W3C//DTD SVG 1.1//EN" "http://www.w3.org/Graphics/SVG/1.1/DTD/svg11.dtd">
<svg version="1.1" id="Layer_1" xmlns="http://www.w3.org/2000/svg" xmlns:xlink="http://www.w3.org/1999/xlink" x="0px" y="0px"
	 width="181.517px" height="226.866px" viewBox="98.103 260.401 181.517 226.866"
	 enable-background="new 98.103 260.401 181.517 226.866" xml:space="preserve">
<path fill="#1CADA6" d="M114.869,366.659v-3.098c0-1.276-0.456-2.369-1.367-3.28c-0.912-0.911-2.005-1.367-3.281-1.367
	c-1.275,0-2.369,0.456-3.28,1.367s-1.367,2.004-1.367,3.28V403.2c0,1.275,0.456,2.369,1.367,3.28
	c0.911,0.912,2.005,1.367,3.28,1.367c1.276,0,2.369-0.455,3.281-1.367c0.911-0.911,1.367-2.005,1.367-3.28v-17.039h-3.189
	c-0.972,0-1.458-0.486-1.458-1.459v-2.916c0-0.971,0.486-1.458,1.458-1.458h7.563c0.972,0,1.458,0.487,1.458,1.458V403.2
	c0,1.458-0.273,2.811-0.82,4.056c-0.546,1.245-1.307,2.355-2.277,3.325c-0.973,0.973-2.082,1.731-3.327,2.278
	c-1.246,0.547-2.597,0.821-4.055,0.821c-1.458,0-2.811-0.274-4.055-0.821c-1.246-0.547-2.354-1.306-3.326-2.278
	c-0.972-0.97-1.731-2.08-2.277-3.325c-0.547-1.245-0.82-2.598-0.82-4.056v-39.639c0-1.458,0.273-2.809,0.82-4.055
	c0.546-1.245,1.306-2.354,2.277-3.326c0.972-0.972,2.081-1.732,3.326-2.278c1.245-0.547,2.598-0.82,4.055-0.82
	c1.458,0,2.81,0.273,4.055,0.82c1.245,0.546,2.354,1.307,3.327,2.278c0.97,0.973,1.731,2.081,2.277,3.326
	c0.547,1.246,0.82,2.597,0.82,4.055v3.098c0,0.973-0.486,1.459-1.458,1.459h-2.916C115.354,368.118,114.869,367.632,114.869,366.659
	z"/>
<path fill="#1CADA6" d="M148.766,375.772c0,3.038-1.063,5.559-3.189,7.563c2.126,2.004,3.189,4.555,3.189,7.654v21.232
	c0,0.972-0.487,1.458-1.458,1.458h-2.916c-0.972,0-1.458-0.486-1.458-1.458V390.99c0-1.336-0.456-2.461-1.366-3.372
	c-0.912-0.911-2.005-1.367-3.281-1.367h-4.647v25.972c0,0.425-0.153,0.774-0.456,1.047c-0.305,0.273-0.638,0.411-1.003,0.411h-2.916
	c-0.973,0-1.458-0.486-1.458-1.458v-56.225c0-0.789,0.274-1.473,0.821-2.05c0.546-0.577,1.244-0.866,2.095-0.866h7.563
	c1.458,0,2.825,0.273,4.101,0.82c1.275,0.546,2.383,1.307,3.326,2.278c0.941,0.973,1.686,2.096,2.232,3.372
	c0.547,1.275,0.82,2.642,0.82,4.101V375.772z M142.934,363.653c0-1.336-0.456-2.461-1.366-3.372
	c-0.912-0.911-2.005-1.367-3.281-1.367h-4.647v21.505h4.647c1.276,0,2.369-0.455,3.281-1.366c0.911-0.911,1.366-2.005,1.366-3.28
	V363.653z"/>
<path fill="#1CADA6" d="M166.9,353.082c1.458,0,2.809,0.273,4.055,0.82c1.245,0.546,2.354,1.307,3.327,2.278
	c0.97,0.973,1.731,2.096,2.278,3.372c0.546,1.275,0.82,2.642,0.82,4.101v48.569c0,0.972-0.486,1.458-1.458,1.458h-2.917
	c-0.972,0-1.458-0.486-1.458-1.458v-25.972h-9.386v25.972c0,0.972-0.487,1.458-1.458,1.458h-2.916c-0.365,0-0.7-0.138-1.002-0.411
	c-0.305-0.272-0.456-0.622-0.456-1.047v-48.569c0-1.459,0.273-2.825,0.82-4.101c0.547-1.276,1.306-2.399,2.278-3.372
	c0.971-0.972,2.096-1.732,3.372-2.278C164.075,353.355,165.442,353.082,166.9,353.082z M171.547,380.419v-16.766
	c0-1.336-0.456-2.461-1.367-3.372c-0.912-0.911-2.005-1.367-3.281-1.367c-1.337,0-2.461,0.456-3.372,1.367s-1.366,2.036-1.366,3.372
	v16.766H171.547z"/>
<path fill="#1CADA6" d="M204.67,353.537c0.273,0.306,0.41,0.639,0.41,1.003v21.232c0,2.43-0.714,4.556-2.142,6.378
	c-1.428,1.823-3.234,3.069-5.422,3.736v26.336c0,0.425-0.152,0.774-0.456,1.047c-0.304,0.273-0.638,0.411-1.002,0.411h-2.916
	c-0.972,0-1.458-0.486-1.458-1.458v-26.336c-2.248-0.667-4.086-1.913-5.513-3.736c-1.427-1.822-2.141-3.948-2.141-6.378V354.54
	c0-0.364,0.137-0.697,0.41-1.003c0.273-0.302,0.622-0.455,1.048-0.455h2.916c0.424,0,0.774,0.153,1.048,0.455
	c0.273,0.306,0.411,0.639,0.411,1.003v21.232c0,1.275,0.456,2.369,1.367,3.28s2.034,1.366,3.372,1.366
	c1.275,0,2.369-0.455,3.28-1.366c0.912-0.911,1.368-2.005,1.368-3.28V354.54c0-0.364,0.136-0.697,0.41-1.003
	c0.273-0.302,0.623-0.455,1.048-0.455h2.917C204.047,353.082,204.397,353.235,204.67,353.537z"/>
<path fill="#1CADA6" d="M240.438,366.66v-3.099c0-1.275-0.456-2.369-1.368-3.28c-0.911-0.911-2.004-1.367-3.28-1.367
	c-1.276,0-2.37,0.456-3.281,1.367s-1.367,2.005-1.367,3.28v4.647c0,0.546,0.014,0.881,0.045,1.003
	c0.03,0.122,0.105,0.304,0.228,0.546l13.122,23.146c0.424,0.79,0.758,1.398,1.002,1.823c0.242,0.425,0.41,0.819,0.501,1.184
	c0.091,0.364,0.151,0.746,0.182,1.141c0.03,0.396,0.046,0.926,0.046,1.595v4.555c0,1.458-0.273,2.825-0.82,4.102
	c-0.547,1.275-1.308,2.385-2.279,3.326c-0.972,0.942-2.081,1.686-3.326,2.231c-1.246,0.547-2.597,0.821-4.055,0.821
	c-1.458,0-2.811-0.274-4.056-0.821c-1.245-0.546-2.354-1.289-3.326-2.231c-0.972-0.941-1.731-2.051-2.278-3.326
	c-0.547-1.276-0.821-2.644-0.821-4.102v-3.098c0-0.364,0.137-0.698,0.411-1.003c0.273-0.303,0.622-0.454,1.048-0.454h2.916
	c0.425,0,0.775,0.151,1.048,0.454c0.273,0.305,0.41,0.639,0.41,1.003v3.098c0,1.338,0.456,2.461,1.367,3.372
	s2.004,1.367,3.281,1.367c1.275,0,2.369-0.456,3.28-1.367c0.912-0.911,1.368-2.034,1.368-3.372v-4.555
	c0-0.486-0.016-0.789-0.046-0.913c-0.031-0.12-0.107-0.303-0.228-0.547l-13.122-23.145c-0.426-0.789-0.761-1.397-1.002-1.822
	c-0.244-0.425-0.41-0.82-0.501-1.185c-0.091-0.365-0.152-0.76-0.182-1.186c-0.032-0.423-0.046-0.97-0.046-1.64v-4.647
	c0-1.458,0.273-2.809,0.821-4.055c0.547-1.245,1.306-2.354,2.278-3.326c0.971-0.972,2.081-1.731,3.326-2.278
	c1.245-0.547,2.597-0.819,4.056-0.819c1.458,0,2.809,0.272,4.055,0.819c1.245,0.547,2.354,1.307,3.326,2.278
	c0.971,0.973,1.732,2.081,2.279,3.326c0.546,1.246,0.82,2.597,0.82,4.055v3.099c0,0.972-0.487,1.458-1.458,1.458h-2.917
	C240.923,368.118,240.438,367.632,240.438,366.66z"/>
<path fill="#1CADA6" d="M258.754,358.914v21.597h7.928c0.971,0,1.458,0.486,1.458,1.458v2.917c0,0.364-0.137,0.698-0.411,1.001
	c-0.273,0.306-0.623,0.456-1.047,0.456h-7.928v21.505h7.928c0.424,0,0.774,0.152,1.047,0.457c0.273,0.304,0.411,0.637,0.411,1.001
	v2.917c0,0.972-0.487,1.458-1.458,1.458h-10.844c-0.852,0-1.549-0.274-2.095-0.821c-0.547-0.546-0.82-1.243-0.82-2.096v-54.766
	c0-0.789,0.273-1.473,0.82-2.051c0.546-0.575,1.244-0.864,2.095-0.864h10.844c0.424,0,0.774,0.152,1.047,0.455
	c0.273,0.304,0.411,0.638,0.411,1.003v2.915c0,0.973-0.487,1.458-1.458,1.458H258.754z"/>
<path fill="#1CADA6" d="M286.273,353.083c1.459,0,2.809,0.272,4.055,0.819s2.355,1.307,3.328,2.278
	c0.971,0.973,1.73,2.097,2.277,3.372s0.82,2.643,0.82,4.101v48.569c0,0.972-0.486,1.458-1.459,1.458h-2.916
	c-0.973,0-1.459-0.486-1.459-1.458v-25.972h-9.385v25.972c0,0.972-0.486,1.458-1.457,1.458h-2.916c-0.365,0-0.699-0.137-1.002-0.411
	c-0.305-0.272-0.457-0.622-0.457-1.047v-48.569c0-1.458,0.273-2.825,0.82-4.101s1.307-2.399,2.277-3.372
	c0.973-0.972,2.098-1.731,3.373-2.278S284.816,353.083,286.273,353.083z M290.919,380.42v-16.767c0-1.336-0.455-2.461-1.365-3.372
	c-0.912-0.911-2.006-1.367-3.281-1.367c-1.336,0-2.461,0.456-3.371,1.367s-1.367,2.036-1.367,3.372v16.767H290.919z"/>
<path fill="#1CADA6" d="M124.527,440.248v-3.1c0-1.275-0.456-2.369-1.366-3.28c-0.912-0.911-2.005-1.367-3.281-1.367
	c-1.276,0-2.37,0.456-3.281,1.367s-1.367,2.005-1.367,3.28v39.64c0,1.275,0.456,2.368,1.367,3.279
	c0.911,0.913,2.005,1.368,3.281,1.368c1.275,0,2.369-0.455,3.281-1.368c0.911-0.911,1.366-2.004,1.366-3.279v-3.372
	c0-0.972,0.496-1.458,1.488-1.458h2.977c0.971,0,1.458,0.486,1.458,1.458v3.372c0,1.457-0.275,2.81-0.823,4.055
	c-0.548,1.246-1.318,2.355-2.31,3.325c-0.992,0.974-2.116,1.732-3.37,2.279c-1.254,0.546-2.61,0.82-4.067,0.82
	c-1.458,0-2.825-0.274-4.101-0.82c-1.276-0.547-2.385-1.306-3.326-2.279c-0.943-0.97-1.686-2.079-2.232-3.325
	c-0.547-1.245-0.82-2.598-0.82-4.055v-39.64c0-1.458,0.273-2.809,0.82-4.054c0.546-1.246,1.29-2.354,2.232-3.327
	c0.941-0.971,2.05-1.731,3.326-2.278c1.275-0.547,2.643-0.819,4.101-0.819c1.458,0,2.813,0.272,4.067,0.819s2.378,1.308,3.37,2.278
	c0.991,0.973,1.761,2.081,2.31,3.327c0.548,1.245,0.823,2.596,0.823,4.054v3.1c0,0.971-0.487,1.457-1.458,1.457h-2.977
	C125.022,441.705,124.527,441.219,124.527,440.248z"/>
<path fill="#1CADA6" d="M156.146,449.36c0,3.037-1.063,5.559-3.189,7.562c2.126,2.005,3.189,4.556,3.189,7.654v21.232
	c0,0.972-0.487,1.458-1.458,1.458h-2.917c-0.972,0-1.458-0.486-1.458-1.458v-21.232c0-1.335-0.456-2.46-1.367-3.371
	c-0.912-0.911-2.005-1.368-3.281-1.368h-4.647v25.972c0,0.425-0.153,0.774-0.456,1.047c-0.305,0.274-0.638,0.411-1.003,0.411h-2.916
	c-0.973,0-1.458-0.486-1.458-1.458v-56.224c0-0.789,0.274-1.474,0.821-2.052c0.547-0.575,1.244-0.864,2.096-0.864h7.563
	c1.458,0,2.824,0.272,4.101,0.819c1.275,0.547,2.383,1.308,3.326,2.278c0.941,0.973,1.686,2.097,2.232,3.372
	c0.546,1.275,0.82,2.643,0.82,4.101V449.36z M150.315,437.24c0-1.336-0.456-2.461-1.367-3.372c-0.912-0.911-2.005-1.367-3.281-1.367
	h-4.647v21.507h4.647c1.275,0,2.369-0.457,3.281-1.368c0.911-0.911,1.367-2.004,1.367-3.279V437.24z"/>
<path fill="#1CADA6" d="M169.542,432.501v21.597h7.928c0.971,0,1.458,0.486,1.458,1.458v2.917c0,0.364-0.137,0.698-0.411,1.001
	c-0.273,0.306-0.623,0.457-1.047,0.457h-7.928v21.505h7.928c0.424,0,0.774,0.151,1.047,0.456c0.273,0.304,0.411,0.637,0.411,1.001
	v2.917c0,0.972-0.487,1.458-1.458,1.458h-10.844c-0.852,0-1.549-0.274-2.095-0.82c-0.547-0.547-0.82-1.244-0.82-2.097v-54.765
	c0-0.789,0.273-1.474,0.82-2.052c0.546-0.575,1.244-0.864,2.095-0.864h10.844c0.424,0,0.774,0.152,1.047,0.455
	c0.273,0.304,0.411,0.639,0.411,1.003v2.915c0,0.974-0.487,1.458-1.458,1.458H169.542z"/>
<path fill="#1CADA6" d="M197.062,426.67c1.458,0,2.809,0.272,4.055,0.819c1.245,0.547,2.354,1.308,3.327,2.278
	c0.971,0.973,1.731,2.097,2.278,3.372c0.546,1.275,0.82,2.643,0.82,4.101v48.569c0,0.972-0.486,1.458-1.458,1.458h-2.917
	c-0.972,0-1.458-0.486-1.458-1.458v-25.972h-9.386v25.972c0,0.972-0.487,1.458-1.458,1.458h-2.916c-0.365,0-0.7-0.137-1.002-0.411
	c-0.305-0.272-0.456-0.622-0.456-1.047V437.24c0-1.458,0.273-2.825,0.82-4.101c0.546-1.275,1.306-2.399,2.277-3.372
	c0.972-0.971,2.097-1.731,3.372-2.278S195.604,426.67,197.062,426.67z M201.709,454.008V437.24c0-1.336-0.456-2.461-1.367-3.372
	c-0.912-0.911-2.005-1.367-3.281-1.367c-1.337,0-2.461,0.456-3.372,1.367s-1.366,2.036-1.366,3.372v16.768H201.709z"/>
<path fill="#1CADA6" d="M227.998,427.125c0.273,0.304,0.41,0.639,0.41,1.003v2.915c0,0.974-0.487,1.458-1.458,1.458h-4.101v53.309
	c0,0.972-0.487,1.458-1.458,1.458h-2.917c-0.973,0-1.458-0.486-1.458-1.458v-53.309h-4.101c-0.973,0-1.459-0.484-1.459-1.458v-2.915
	c0-0.364,0.137-0.699,0.411-1.003c0.273-0.303,0.622-0.455,1.048-0.455h14.033C227.374,426.67,227.724,426.822,227.998,427.125z"/>
<path fill="#1CADA6" d="M239.524,485.81c0,0.972-0.487,1.458-1.458,1.458h-2.917c-0.973,0-1.458-0.486-1.458-1.458v-57.592v-0.09
	c0-0.364,0.136-0.699,0.41-1.003c0.273-0.303,0.623-0.455,1.048-0.455h2.917c0.424,0,0.774,0.152,1.047,0.455
	c0.273,0.304,0.41,0.639,0.41,1.003V485.81z"/>
<path fill="#1CADA6" d="M267.636,427.125c0.273,0.304,0.41,0.639,0.41,1.003v0.09v43.832c0,2.064-0.578,4.009-1.731,5.831
	l-4.921,8.658c-0.305,0.486-0.729,0.729-1.276,0.729h-5.103c-0.547,0-0.972-0.242-1.275-0.729l-4.921-8.658
	c-1.155-1.822-1.731-3.767-1.731-5.831v-43.922c0-0.364,0.136-0.699,0.41-1.003c0.273-0.303,0.623-0.455,1.048-0.455h2.917
	c0.364,0,0.697,0.152,1.002,0.455c0.304,0.304,0.456,0.639,0.456,1.003v43.922c0,0.305,0.015,0.562,0.045,0.774
	c0.03,0.214,0.076,0.441,0.137,0.684l4.465,7.837l4.374-7.837c0.182-0.425,0.273-0.911,0.273-1.458v-43.922
	c0-0.364,0.136-0.699,0.41-1.003c0.273-0.303,0.622-0.455,1.047-0.455h2.917C267.012,426.67,267.362,426.822,267.636,427.125z"/>
<path fill="#1CADA6" d="M281.533,432.501v21.597h7.928c0.971,0,1.457,0.486,1.457,1.458v2.917c0,0.364-0.137,0.698-0.41,1.001
	c-0.273,0.306-0.623,0.457-1.047,0.457h-7.928v21.505h7.928c0.424,0,0.773,0.151,1.047,0.456c0.273,0.304,0.41,0.637,0.41,1.001
	v2.917c0,0.972-0.486,1.458-1.457,1.458h-10.845c-0.852,0-1.549-0.274-2.096-0.82c-0.546-0.547-0.819-1.244-0.819-2.097v-54.765
	c0-0.789,0.273-1.474,0.819-2.052c0.547-0.575,1.244-0.864,2.096-0.864h10.845c0.424,0,0.773,0.152,1.047,0.455
	c0.273,0.304,0.41,0.639,0.41,1.003v2.915c0,0.974-0.486,1.458-1.457,1.458H281.533z"/>
</svg>
