<?xml version="1.0" encoding="utf-8"?>
<!-- Generator: Adobe Illustrator 16.0.0, SVG Export Plug-In . SVG Version: 6.00 Build 0)  -->
<!DOCTYPE svg PUBLIC "-//W3C//DTD SVG 1.1//EN" "http://www.w3.org/Graphics/SVG/1.1/DTD/svg11.dtd">
<svg version="1.1" id="Layer_1" xmlns="http://www.w3.org/2000/svg" xmlns:xlink="http://www.w3.org/1999/xlink" x="0px" y="0px"
	 width="518.017px" height="104px" viewBox="-995.663 -331.75 518.017 104" enable-background="new -995.663 -331.75 518.017 104"
	 xml:space="preserve">
<g>
	<path fill="#1CADA6" d="M-964.381-305.887v-4.509c0-1.856-0.663-3.448-1.989-4.774s-2.917-1.989-4.774-1.989
		c-1.856,0-3.448,0.663-4.774,1.989s-1.989,2.917-1.989,4.774v57.689c0,1.857,0.663,3.448,1.989,4.774s2.918,1.989,4.774,1.989
		c1.857,0,3.448-0.663,4.774-1.989s1.989-2.917,1.989-4.774v-24.8h-4.642c-1.416,0-2.122-0.707-2.122-2.122v-4.244
		c0-1.413,0.707-2.122,2.122-2.122h11.007c1.413,0,2.122,0.708,2.122,2.122v31.166c0,2.122-0.398,4.091-1.194,5.902
		c-0.795,1.813-1.902,3.427-3.315,4.84c-1.415,1.416-3.029,2.52-4.841,3.316c-1.813,0.795-3.779,1.193-5.901,1.193
		s-4.09-0.398-5.901-1.193c-1.813-0.796-3.428-1.9-4.841-3.316c-1.415-1.413-2.52-3.027-3.315-4.84
		c-0.796-1.811-1.193-3.78-1.193-5.902v-57.689c0-2.122,0.397-4.088,1.193-5.901c0.796-1.811,1.9-3.425,3.315-4.841
		c1.413-1.413,3.027-2.52,4.841-3.315c1.811-0.795,3.779-1.193,5.901-1.193s4.088,0.398,5.901,1.193
		c1.812,0.796,3.426,1.902,4.841,3.315c1.413,1.416,2.52,3.03,3.315,4.841c0.796,1.813,1.194,3.78,1.194,5.901v4.509
		c0,1.415-0.709,2.122-2.122,2.122h-4.244C-963.675-303.765-964.381-304.472-964.381-305.887z"/>
	<path fill="#1CADA6" d="M-915.048-292.625c0,4.422-1.548,8.09-4.642,11.008c3.094,2.917,4.642,6.631,4.642,11.14v30.9
		c0,1.416-0.709,2.122-2.122,2.122h-4.244c-1.416,0-2.122-0.707-2.122-2.122v-30.9c0-1.943-0.663-3.581-1.989-4.907
		s-2.917-1.989-4.774-1.989h-6.764v37.796c0,0.62-0.222,1.127-0.663,1.525c-0.443,0.398-0.928,0.597-1.458,0.597h-4.244
		c-1.415,0-2.122-0.707-2.122-2.122v-81.826c0-1.148,0.397-2.143,1.193-2.984c0.796-0.839,1.811-1.26,3.05-1.26h11.007
		c2.122,0,4.111,0.398,5.968,1.193c1.857,0.796,3.469,1.902,4.841,3.315c1.37,1.416,2.454,3.05,3.249,4.907
		c0.796,1.856,1.194,3.846,1.194,5.968V-292.625z M-923.536-310.264c0-1.944-0.663-3.581-1.989-4.907s-2.917-1.989-4.774-1.989
		h-6.764v31.298h6.764c1.857,0,3.448-0.663,4.774-1.989s1.989-2.917,1.989-4.774V-310.264z"/>
	<path fill="#1CADA6" d="M-888.657-325.647c2.122,0,4.088,0.398,5.901,1.193c1.811,0.796,3.425,1.902,4.841,3.315
		c1.413,1.416,2.52,3.05,3.315,4.907c0.795,1.856,1.193,3.846,1.193,5.968v70.686c0,1.416-0.708,2.122-2.122,2.122h-4.244
		c-1.415,0-2.122-0.707-2.122-2.122v-37.796h-13.66v37.796c0,1.416-0.708,2.122-2.122,2.122h-4.244c-0.53,0-1.018-0.199-1.458-0.597
		c-0.444-0.398-0.663-0.906-0.663-1.525v-70.686c0-2.122,0.397-4.111,1.193-5.968c0.796-1.857,1.9-3.492,3.315-4.907
		c1.413-1.413,3.05-2.52,4.907-3.315C-892.769-325.25-890.779-325.647-888.657-325.647z M-881.894-285.862v-24.402
		c0-1.944-0.663-3.581-1.99-4.907c-1.326-1.326-2.917-1.989-4.774-1.989c-1.946,0-3.581,0.663-4.907,1.989s-1.989,2.963-1.989,4.907
		v24.402H-881.894z"/>
	<path fill="#1CADA6" d="M-840.384-305.887v-4.509c0-1.856-0.663-3.448-1.989-4.774s-2.917-1.989-4.774-1.989
		c-1.856,0-3.448,0.663-4.774,1.989s-1.989,2.917-1.989,4.774v57.689c0,1.857,0.663,3.448,1.989,4.774s2.918,1.989,4.774,1.989
		c1.857,0,3.448-0.663,4.774-1.989s1.989-2.917,1.989-4.774v-4.907c0-1.413,0.721-2.122,2.166-2.122h4.333
		c1.413,0,2.122,0.709,2.122,2.122v4.907c0,2.122-0.4,4.091-1.198,5.902c-0.798,1.813-1.918,3.427-3.361,4.84
		c-1.444,1.416-3.08,2.52-4.905,3.316c-1.826,0.795-3.798,1.193-5.92,1.193s-4.111-0.398-5.968-1.193
		c-1.857-0.796-3.471-1.9-4.841-3.316c-1.372-1.413-2.453-3.027-3.249-4.84c-0.796-1.811-1.193-3.78-1.193-5.902v-57.689
		c0-2.122,0.397-4.088,1.193-5.901c0.796-1.811,1.877-3.425,3.249-4.841c1.37-1.413,2.984-2.52,4.841-3.315
		c1.856-0.795,3.846-1.193,5.968-1.193s4.095,0.398,5.92,1.193c1.825,0.796,3.46,1.902,4.905,3.315
		c1.442,1.416,2.563,3.03,3.361,4.841c0.798,1.813,1.198,3.78,1.198,5.901v4.509c0,1.415-0.708,2.122-2.122,2.122h-4.333
		C-839.663-303.765-840.384-304.472-840.384-305.887z"/>
	<path fill="#1CADA6" d="M-813.729-317.16v31.431h11.538c1.413,0,2.122,0.708,2.122,2.122v4.244c0,0.53-0.199,1.018-0.597,1.459
		c-0.398,0.443-0.907,0.663-1.525,0.663h-11.538v31.298h11.538c0.618,0,1.127,0.222,1.525,0.663
		c0.398,0.443,0.597,0.929,0.597,1.459v4.244c0,1.416-0.709,2.122-2.122,2.122h-15.782c-1.239,0-2.254-0.398-3.05-1.193
		c-0.796-0.796-1.193-1.812-1.193-3.05v-79.705c0-1.148,0.397-2.143,1.193-2.984c0.796-0.839,1.811-1.26,3.05-1.26h15.782
		c0.618,0,1.127,0.222,1.525,0.663c0.398,0.443,0.597,0.928,0.597,1.459v4.244c0,1.415-0.709,2.122-2.122,2.122H-813.729z"/>
	<path fill="#1CADA6" d="M-760.35-324.984c0.398,0.443,0.597,0.928,0.597,1.459v30.9c0,3.538-1.04,6.631-3.117,9.284
		c-2.078,2.652-4.708,4.465-7.891,5.438v38.327c0,0.62-0.222,1.127-0.663,1.525c-0.443,0.398-0.928,0.597-1.459,0.597h-4.244
		c-1.416,0-2.122-0.707-2.122-2.122v-38.327c-3.272-0.972-5.947-2.785-8.023-5.438c-2.078-2.652-3.117-5.746-3.117-9.284v-30.9
		c0-0.531,0.199-1.016,0.597-1.459c0.398-0.441,0.905-0.663,1.525-0.663h4.244c0.617,0,1.127,0.222,1.525,0.663
		c0.398,0.443,0.597,0.928,0.597,1.459v30.9c0,1.857,0.663,3.448,1.989,4.774s2.961,1.989,4.907,1.989
		c1.856,0,3.448-0.663,4.774-1.989s1.989-2.917,1.989-4.774v-30.9c0-0.531,0.199-1.016,0.597-1.459
		c0.398-0.441,0.905-0.663,1.525-0.663h4.244C-761.257-325.647-760.748-325.426-760.35-324.984z"/>
	<path fill="#1CADA6" d="M-693.577-325.647c2.122,0,4.111,0.398,5.968,1.193c1.857,0.796,3.492,1.902,4.907,3.315
		c1.413,1.416,2.52,3.05,3.315,4.907c0.795,1.856,1.193,3.846,1.193,5.968v70.686c0,0.62-0.222,1.127-0.663,1.525
		c-0.443,0.398-0.928,0.597-1.458,0.597h-4.244c-1.415,0-2.122-0.707-2.122-2.122v-70.686c0-1.944-0.664-3.581-1.99-4.907
		s-2.963-1.989-4.907-1.989c-1.856,0-3.448,0.663-4.774,1.989s-1.989,2.963-1.989,4.907v70.686c0,1.416-0.708,2.122-2.122,2.122
		h-4.244c-1.415,0-2.122-0.707-2.122-2.122v-70.686c0-1.944-0.663-3.581-1.99-4.907c-1.326-1.326-2.917-1.989-4.774-1.989
		c-1.946,0-3.581,0.663-4.907,1.989s-1.989,2.963-1.989,4.907v70.686c0,1.416-0.708,2.122-2.122,2.122h-4.244
		c-0.53,0-1.018-0.199-1.458-0.597c-0.444-0.398-0.663-0.906-0.663-1.525v-70.686c0-2.122,0.397-4.111,1.193-5.968
		c0.796-1.857,1.9-3.492,3.315-4.907c1.413-1.413,3.05-2.52,4.907-3.315c1.857-0.795,3.846-1.193,5.968-1.193
		c2.122,0,4.132,0.42,6.034,1.26c1.9,0.841,3.558,2.012,4.973,3.515c1.413-1.502,3.071-2.673,4.973-3.515
		C-697.711-325.227-695.699-325.647-693.577-325.647z"/>
	<path fill="#1CADA6" d="M-651.804-325.647c2.122,0,4.088,0.398,5.901,1.193c1.811,0.796,3.425,1.902,4.841,3.315
		c1.413,1.416,2.52,3.05,3.315,4.907c0.795,1.856,1.193,3.846,1.193,5.968v57.557c0,2.122-0.398,4.111-1.193,5.968
		c-0.796,1.856-1.902,3.471-3.315,4.84c-1.416,1.372-3.03,2.454-4.841,3.25c-1.813,0.795-3.78,1.193-5.901,1.193
		c-2.122,0-4.111-0.398-5.968-1.193c-1.856-0.796-3.494-1.877-4.907-3.25c-1.415-1.37-2.52-2.984-3.315-4.84
		c-0.796-1.857-1.193-3.846-1.193-5.968v-57.557c0-2.122,0.397-4.111,1.193-5.968c0.796-1.857,1.9-3.492,3.315-4.907
		c1.413-1.413,3.05-2.52,4.907-3.315C-655.915-325.25-653.926-325.647-651.804-325.647z M-645.04-310.264
		c0-1.944-0.663-3.581-1.99-4.907c-1.326-1.326-2.917-1.989-4.774-1.989c-1.946,0-3.581,0.663-4.907,1.989s-1.989,2.963-1.989,4.907
		v57.557c0,1.857,0.663,3.448,1.989,4.774s2.961,1.989,4.907,1.989c1.856,0,3.448-0.663,4.774-1.989
		c1.327-1.326,1.99-2.917,1.99-4.774V-310.264z"/>
	<path fill="#1CADA6" d="M-595.706-292.625c0,4.422-1.548,8.09-4.642,11.008c3.094,2.917,4.642,6.631,4.642,11.14v30.9
		c0,1.416-0.709,2.122-2.122,2.122h-4.244c-1.416,0-2.122-0.707-2.122-2.122v-30.9c0-1.943-0.663-3.581-1.989-4.907
		s-2.917-1.989-4.774-1.989h-6.764v37.796c0,0.62-0.222,1.127-0.663,1.525c-0.443,0.398-0.928,0.597-1.458,0.597h-4.244
		c-1.415,0-2.122-0.707-2.122-2.122v-81.826c0-1.148,0.397-2.143,1.193-2.984c0.796-0.839,1.811-1.26,3.05-1.26h11.007
		c2.122,0,4.111,0.398,5.968,1.193c1.857,0.796,3.469,1.902,4.841,3.315c1.37,1.416,2.454,3.05,3.249,4.907
		c0.796,1.856,1.194,3.846,1.194,5.968V-292.625z M-604.194-310.264c0-1.944-0.663-3.581-1.989-4.907s-2.917-1.989-4.774-1.989
		h-6.764v31.298h6.764c1.857,0,3.448-0.663,4.774-1.989s1.989-2.917,1.989-4.774V-310.264z"/>
	<path fill="#1CADA6" d="M-565.933-324.984c0.398,0.443,0.597,0.928,0.597,1.459v4.244c0,1.415-0.708,2.122-2.122,2.122h-5.968
		v77.582c0,1.416-0.708,2.122-2.122,2.122h-4.244c-1.415,0-2.122-0.707-2.122-2.122v-77.582h-5.968
		c-1.415,0-2.122-0.707-2.122-2.122v-4.244c0-0.531,0.199-1.016,0.597-1.459c0.398-0.441,0.905-0.663,1.525-0.663h20.423
		C-566.841-325.647-566.331-325.426-565.933-324.984z"/>
	<path fill="#1CADA6" d="M-544.25-325.647c2.122,0,4.088,0.398,5.901,1.193c1.811,0.796,3.425,1.902,4.841,3.315
		c1.413,1.416,2.52,3.05,3.315,4.907c0.795,1.856,1.193,3.846,1.193,5.968v57.557c0,2.122-0.398,4.111-1.193,5.968
		c-0.796,1.856-1.902,3.471-3.315,4.84c-1.416,1.372-3.03,2.454-4.841,3.25c-1.813,0.795-3.78,1.193-5.901,1.193
		c-2.122,0-4.111-0.398-5.968-1.193c-1.856-0.796-3.494-1.877-4.907-3.25c-1.415-1.37-2.52-2.984-3.315-4.84
		c-0.796-1.857-1.193-3.846-1.193-5.968v-57.557c0-2.122,0.397-4.111,1.193-5.968c0.796-1.857,1.9-3.492,3.315-4.907
		c1.413-1.413,3.05-2.52,4.907-3.315C-548.362-325.25-546.373-325.647-544.25-325.647z M-537.487-310.264
		c0-1.944-0.663-3.581-1.99-4.907c-1.326-1.326-2.917-1.989-4.774-1.989c-1.946,0-3.581,0.663-4.907,1.989s-1.989,2.963-1.989,4.907
		v57.557c0,1.857,0.663,3.448,1.989,4.774s2.961,1.989,4.907,1.989c1.856,0,3.448-0.663,4.774-1.989
		c1.327-1.326,1.99-2.917,1.99-4.774V-310.264z"/>
	<path fill="#1CADA6" d="M-502.608-325.647c2.122,0,4.088,0.398,5.901,1.193c1.811,0.796,3.425,1.902,4.841,3.315
		c1.413,1.416,2.52,3.05,3.315,4.907c0.795,1.856,1.193,3.846,1.193,5.968v70.686c0,1.416-0.708,2.122-2.122,2.122h-4.244
		c-1.415,0-2.122-0.707-2.122-2.122v-70.686c0-1.944-0.663-3.581-1.99-4.907c-1.326-1.326-2.917-1.989-4.774-1.989
		c-1.946,0-3.581,0.663-4.907,1.989s-1.989,2.963-1.989,4.907v70.686c0,1.416-0.708,2.122-2.122,2.122h-4.244
		c-1.415,0-2.122-0.707-2.122-2.122v-70.686c0-2.122,0.397-4.111,1.193-5.968c0.796-1.857,1.9-3.492,3.315-4.907
		c1.413-1.413,3.05-2.52,4.907-3.315C-506.72-325.25-504.73-325.647-502.608-325.647z"/>
</g>
</svg>
