<?xml version="1.0" encoding="utf-8"?>
<!-- Generator: Adobe Illustrator 16.0.0, SVG Export Plug-In . SVG Version: 6.00 Build 0)  -->
<!DOCTYPE svg PUBLIC "-//W3C//DTD SVG 1.1//EN" "http://www.w3.org/Graphics/SVG/1.1/DTD/svg11.dtd">
<svg version="1.1" id="Layer_1" xmlns="http://www.w3.org/2000/svg" xmlns:xlink="http://www.w3.org/1999/xlink" x="0px" y="0px"
	 width="541.675px" height="103.5px" viewBox="0 0 541.675 103.5" enable-background="new 0 0 541.675 103.5" xml:space="preserve">
<g enable-background="new    ">
	<path fill="#1CADA6" d="M37.033,29.025v-3.973c0-1.636-0.584-3.038-1.752-4.207c-1.168-1.168-2.571-1.752-4.207-1.752
		c-1.636,0-3.038,0.584-4.207,1.752c-1.168,1.169-1.752,2.571-1.752,4.207v50.83c0,1.636,0.584,3.038,1.752,4.206
		c1.169,1.169,2.571,1.753,4.207,1.753c1.636,0,3.038-0.584,4.207-1.753c1.168-1.168,1.752-2.57,1.752-4.206V54.031h-4.089
		c-1.247,0-1.87-0.622-1.87-1.869v-3.739c0-1.245,0.623-1.87,1.87-1.87h9.698c1.245,0,1.87,0.625,1.87,1.87v27.46
		c0,1.869-0.351,3.604-1.052,5.199c-0.701,1.598-1.676,3.021-2.921,4.266c-1.247,1.247-2.669,2.22-4.265,2.921
		c-1.598,0.701-3.33,1.052-5.2,1.052s-3.604-0.351-5.2-1.052c-1.598-0.701-3.02-1.674-4.265-2.921
		c-1.247-1.245-2.22-2.668-2.921-4.266c-0.701-1.596-1.052-3.33-1.052-5.199v-50.83c0-1.87,0.351-3.603,1.052-5.2
		c0.701-1.596,1.674-3.018,2.921-4.265c1.246-1.245,2.667-2.221,4.265-2.921c1.596-0.701,3.331-1.052,5.2-1.052
		s3.602,0.351,5.2,1.052c1.596,0.7,3.018,1.676,4.265,2.921c1.245,1.247,2.22,2.669,2.921,4.265c0.701,1.598,1.052,3.33,1.052,5.2
		v3.973c0,1.247-0.625,1.87-1.87,1.87h-3.739C37.656,30.896,37.033,30.272,37.033,29.025z"/>
	<path fill="#1CADA6" d="M80.5,40.711c0,3.896-1.364,7.128-4.09,9.698c2.726,2.57,4.09,5.843,4.09,9.815v27.227
		c0,1.246-0.625,1.869-1.87,1.869h-3.739c-1.247,0-1.87-0.623-1.87-1.869V60.225c0-1.713-0.584-3.155-1.753-4.323
		c-1.168-1.169-2.571-1.753-4.207-1.753h-5.959v33.303c0,0.546-0.195,0.993-0.584,1.344c-0.391,0.351-0.818,0.525-1.286,0.525
		h-3.739c-1.247,0-1.87-0.623-1.87-1.869V15.354c0-1.012,0.351-1.889,1.052-2.63c0.701-0.739,1.596-1.109,2.688-1.109h9.699
		c1.87,0,3.623,0.351,5.258,1.052c1.636,0.7,3.056,1.676,4.265,2.921c1.207,1.247,2.162,2.688,2.863,4.323S80.5,23.3,80.5,25.17
		V40.711z M73.022,25.17c0-1.713-0.584-3.155-1.753-4.324c-1.168-1.168-2.571-1.752-4.207-1.752h-5.959V46.67h5.959
		c1.636,0,3.038-0.584,4.207-1.753c1.168-1.168,1.753-2.57,1.753-4.206V25.17z"/>
	<path fill="#1CADA6" d="M103.753,11.615c1.87,0,3.602,0.351,5.2,1.052c1.596,0.7,3.018,1.676,4.265,2.921
		c1.245,1.247,2.22,2.688,2.921,4.323s1.051,3.389,1.051,5.259v62.281c0,1.246-0.624,1.869-1.87,1.869h-3.739
		c-1.247,0-1.87-0.623-1.87-1.869V54.148H97.677v33.303c0,1.246-0.625,1.869-1.87,1.869h-3.739c-0.467,0-0.896-0.175-1.285-0.525
		c-0.391-0.351-0.584-0.798-0.584-1.344V25.17c0-1.87,0.351-3.623,1.052-5.259s1.674-3.076,2.921-4.323
		c1.246-1.245,2.688-2.221,4.324-2.921C100.131,11.966,101.884,11.615,103.753,11.615z M109.713,46.67v-21.5
		c0-1.713-0.584-3.155-1.753-4.324c-1.168-1.168-2.571-1.752-4.207-1.752c-1.714,0-3.155,0.584-4.324,1.752
		c-1.168,1.169-1.752,2.611-1.752,4.324v21.5H109.713z"/>
	<path fill="#1CADA6" d="M152.187,12.199c0.351,0.391,0.526,0.817,0.526,1.285v27.227c0,3.116-0.917,5.842-2.746,8.179
		c-1.832,2.338-4.148,3.935-6.953,4.791v33.771c0,0.546-0.195,0.993-0.584,1.344c-0.391,0.351-0.818,0.525-1.285,0.525h-3.739
		c-1.247,0-1.87-0.623-1.87-1.869V53.681c-2.883-0.856-5.24-2.453-7.069-4.791c-1.832-2.337-2.746-5.062-2.746-8.179V13.484
		c0-0.468,0.175-0.895,0.526-1.285c0.351-0.389,0.798-0.584,1.344-0.584h3.739c0.544,0,0.993,0.195,1.344,0.584
		c0.351,0.391,0.526,0.817,0.526,1.285v27.227c0,1.636,0.584,3.038,1.752,4.206c1.168,1.169,2.609,1.753,4.324,1.753
		c1.636,0,3.038-0.584,4.207-1.753c1.168-1.168,1.753-2.57,1.753-4.206V13.484c0-0.468,0.175-0.895,0.525-1.285
		c0.351-0.389,0.798-0.584,1.344-0.584h3.739C151.388,11.615,151.837,11.811,152.187,12.199z"/>
	<path fill="#1CADA6" d="M196.297,29.025v-3.973c0-1.636-0.584-3.038-1.752-4.207c-1.168-1.168-2.571-1.752-4.207-1.752
		c-1.636,0-3.038,0.584-4.207,1.752c-1.168,1.169-1.752,2.571-1.752,4.207v5.959c0,0.701,0.018,1.131,0.058,1.286
		c0.039,0.156,0.135,0.391,0.292,0.7l16.826,29.681c0.544,1.013,0.973,1.793,1.286,2.337c0.31,0.546,0.525,1.052,0.643,1.519
		c0.117,0.468,0.193,0.955,0.233,1.461c0.039,0.508,0.059,1.188,0.059,2.045v5.843c0,1.869-0.351,3.622-1.052,5.258
		s-1.676,3.059-2.921,4.266c-1.247,1.208-2.669,2.161-4.265,2.862c-1.598,0.701-3.331,1.052-5.2,1.052
		c-1.869,0-3.604-0.351-5.2-1.052c-1.598-0.701-3.02-1.654-4.265-2.862c-1.247-1.207-2.22-2.63-2.921-4.266
		s-1.052-3.389-1.052-5.258v-3.974c0-0.467,0.175-0.895,0.526-1.285c0.351-0.389,0.798-0.584,1.344-0.584h3.739
		c0.544,0,0.993,0.195,1.344,0.584c0.351,0.391,0.526,0.818,0.526,1.285v3.974c0,1.714,0.584,3.154,1.752,4.323
		c1.168,1.168,2.571,1.753,4.207,1.753c1.636,0,3.039-0.585,4.207-1.753c1.168-1.169,1.752-2.609,1.752-4.323V70.04
		c0-0.623-0.02-1.012-0.058-1.169c-0.041-0.154-0.137-0.389-0.292-0.701L179.12,38.49c-0.546-1.012-0.975-1.791-1.286-2.337
		c-0.312-0.544-0.526-1.052-0.643-1.519c-0.117-0.468-0.195-0.974-0.233-1.52c-0.041-0.544-0.059-1.245-0.059-2.104v-5.959
		c0-1.87,0.351-3.603,1.052-5.2c0.701-1.596,1.674-3.018,2.921-4.265c1.246-1.245,2.667-2.221,4.265-2.921
		c1.596-0.701,3.331-1.052,5.2-1.052c1.87,0,3.603,0.351,5.2,1.052c1.596,0.7,3.018,1.676,4.265,2.921
		c1.245,1.247,2.22,2.669,2.921,4.265c0.701,1.598,1.052,3.33,1.052,5.2v3.973c0,1.247-0.625,1.87-1.87,1.87h-3.739
		C196.919,30.896,196.297,30.272,196.297,29.025z"/>
	<path fill="#1CADA6" d="M219.784,19.094v27.693h10.166c1.245,0,1.87,0.624,1.87,1.869v3.739c0,0.468-0.175,0.896-0.526,1.285
		c-0.351,0.391-0.8,0.585-1.344,0.585h-10.166v27.576h10.166c0.544,0,0.993,0.195,1.344,0.584c0.351,0.391,0.526,0.818,0.526,1.286
		v3.739c0,1.246-0.625,1.869-1.87,1.869h-13.905c-1.092,0-1.986-0.351-2.688-1.052s-1.052-1.596-1.052-2.688V15.354
		c0-1.012,0.351-1.889,1.052-2.63c0.701-0.739,1.596-1.109,2.688-1.109h13.905c0.544,0,0.993,0.195,1.344,0.584
		c0.351,0.391,0.526,0.817,0.526,1.285v3.739c0,1.247-0.625,1.87-1.87,1.87H219.784z"/>
	<path fill="#1CADA6" d="M255.073,11.615c1.87,0,3.602,0.351,5.2,1.052c1.596,0.7,3.018,1.676,4.265,2.921
		c1.245,1.247,2.22,2.688,2.921,4.323s1.051,3.389,1.051,5.259v62.281c0,1.246-0.624,1.869-1.87,1.869h-3.739
		c-1.247,0-1.87-0.623-1.87-1.869V54.148h-12.036v33.303c0,1.246-0.625,1.869-1.87,1.869h-3.739c-0.467,0-0.896-0.175-1.285-0.525
		c-0.391-0.351-0.584-0.798-0.584-1.344V25.17c0-1.87,0.351-3.623,1.052-5.259s1.674-3.076,2.921-4.323
		c1.246-1.245,2.688-2.221,4.324-2.921C251.45,11.966,253.203,11.615,255.073,11.615z M261.032,46.67v-21.5
		c0-1.713-0.584-3.155-1.753-4.324c-1.168-1.168-2.571-1.752-4.207-1.752c-1.714,0-3.155,0.584-4.324,1.752
		c-1.168,1.169-1.752,2.611-1.752,4.324v21.5H261.032z"/>
	<path fill="#1CADA6" d="M314.431,29.025v-3.973c0-1.636-0.584-3.038-1.752-4.207c-1.168-1.168-2.57-1.752-4.207-1.752
		c-1.636,0-3.037,0.584-4.207,1.752c-1.168,1.169-1.752,2.571-1.752,4.207v50.83c0,1.636,0.584,3.038,1.752,4.206
		c1.17,1.169,2.571,1.753,4.207,1.753c1.637,0,3.039-0.584,4.207-1.753c1.168-1.168,1.752-2.57,1.752-4.206v-4.324
		c0-1.245,0.637-1.869,1.908-1.869h3.818c1.245,0,1.869,0.624,1.869,1.869v4.324c0,1.869-0.352,3.604-1.055,5.199
		c-0.703,1.598-1.691,3.021-2.962,4.266c-1.272,1.247-2.713,2.22-4.321,2.921c-1.609,0.701-3.347,1.052-5.217,1.052
		c-1.869,0-3.622-0.351-5.258-1.052c-1.637-0.701-3.059-1.674-4.266-2.921c-1.209-1.245-2.161-2.668-2.862-4.266
		c-0.701-1.596-1.052-3.33-1.052-5.199v-50.83c0-1.87,0.351-3.603,1.052-5.2c0.701-1.596,1.653-3.018,2.862-4.265
		c1.207-1.245,2.629-2.221,4.266-2.921c1.636-0.701,3.389-1.052,5.258-1.052c1.87,0,3.607,0.351,5.217,1.052
		c1.608,0.7,3.049,1.676,4.321,2.921c1.271,1.247,2.259,2.669,2.962,4.265c0.703,1.598,1.055,3.33,1.055,5.2v3.973
		c0,1.247-0.624,1.87-1.869,1.87h-3.818C315.068,30.896,314.431,30.272,314.431,29.025z"/>
	<path fill="#1CADA6" d="M354.978,40.711c0,3.896-1.364,7.128-4.09,9.698c2.726,2.57,4.09,5.843,4.09,9.815v27.227
		c0,1.246-0.625,1.869-1.869,1.869h-3.74c-1.246,0-1.869-0.623-1.869-1.869V60.225c0-1.713-0.584-3.155-1.753-4.323
		c-1.169-1.169-2.571-1.753-4.206-1.753h-5.96v33.303c0,0.546-0.195,0.993-0.584,1.344c-0.392,0.351-0.817,0.525-1.286,0.525h-3.738
		c-1.248,0-1.87-0.623-1.87-1.869V15.354c0-1.012,0.351-1.889,1.052-2.63c0.701-0.739,1.596-1.109,2.688-1.109h9.699
		c1.869,0,3.622,0.351,5.258,1.052c1.636,0.7,3.057,1.676,4.266,2.921c1.206,1.247,2.161,2.688,2.862,4.323s1.052,3.389,1.052,5.259
		V40.711z M347.5,25.17c0-1.713-0.584-3.155-1.753-4.324c-1.169-1.168-2.571-1.752-4.206-1.752h-5.96V46.67h5.96
		c1.635,0,3.037-0.584,4.206-1.753c1.169-1.168,1.753-2.57,1.753-4.206V25.17z"/>
	<path fill="#1CADA6" d="M372.155,19.094v27.693h10.166c1.245,0,1.87,0.624,1.87,1.869v3.739c0,0.468-0.176,0.896-0.526,1.285
		c-0.351,0.391-0.8,0.585-1.344,0.585h-10.166v27.576h10.166c0.544,0,0.993,0.195,1.344,0.584c0.351,0.391,0.526,0.818,0.526,1.286
		v3.739c0,1.246-0.625,1.869-1.87,1.869h-13.905c-1.092,0-1.986-0.351-2.688-1.052s-1.052-1.596-1.052-2.688V15.354
		c0-1.012,0.351-1.889,1.052-2.63c0.701-0.739,1.596-1.109,2.688-1.109h13.905c0.544,0,0.993,0.195,1.344,0.584
		c0.351,0.391,0.526,0.817,0.526,1.285v3.739c0,1.247-0.625,1.87-1.87,1.87H372.155z"/>
	<path fill="#1CADA6" d="M407.444,11.615c1.87,0,3.603,0.351,5.2,1.052c1.596,0.7,3.018,1.676,4.265,2.921
		c1.245,1.247,2.22,2.688,2.921,4.323s1.052,3.389,1.052,5.259v62.281c0,1.246-0.624,1.869-1.87,1.869h-3.738
		c-1.247,0-1.869-0.623-1.869-1.869V54.148h-12.036v33.303c0,1.246-0.624,1.869-1.87,1.869h-3.738c-0.468,0-0.896-0.175-1.285-0.525
		c-0.392-0.351-0.585-0.798-0.585-1.344V25.17c0-1.87,0.351-3.623,1.052-5.259s1.674-3.076,2.921-4.323
		c1.245-1.245,2.688-2.221,4.323-2.921C403.822,11.966,405.574,11.615,407.444,11.615z M413.404,46.67v-21.5
		c0-1.713-0.585-3.155-1.754-4.324c-1.168-1.168-2.57-1.752-4.206-1.752c-1.714,0-3.155,0.584-4.323,1.752
		c-1.169,1.169-1.753,2.611-1.753,4.324v21.5H413.404z"/>
	<path fill="#1CADA6" d="M447.115,12.199c0.35,0.391,0.525,0.817,0.525,1.285v3.739c0,1.247-0.625,1.87-1.87,1.87h-5.258v68.357
		c0,1.246-0.624,1.869-1.87,1.869h-3.738c-1.248,0-1.87-0.623-1.87-1.869V19.094h-5.259c-1.246,0-1.869-0.623-1.869-1.87v-3.739
		c0-0.468,0.176-0.895,0.525-1.285c0.352-0.389,0.799-0.584,1.344-0.584h17.995C446.314,11.615,446.763,11.811,447.115,12.199z"/>
	<path fill="#1CADA6" d="M461.895,87.451c0,1.246-0.624,1.869-1.87,1.869h-3.738c-1.248,0-1.87-0.623-1.87-1.869v-73.85v-0.117
		c0-0.468,0.175-0.895,0.526-1.285c0.35-0.389,0.797-0.584,1.344-0.584h3.738c0.545,0,0.994,0.195,1.344,0.584
		c0.352,0.391,0.526,0.817,0.526,1.285V87.451z"/>
	<path fill="#1CADA6" d="M497.941,12.199c0.352,0.391,0.526,0.817,0.526,1.285v0.117v56.205c0,2.648-0.741,5.141-2.22,7.479
		l-6.311,11.101c-0.391,0.624-0.935,0.935-1.636,0.935h-6.544c-0.701,0-1.246-0.311-1.635-0.935l-6.311-11.101
		c-1.48-2.338-2.221-4.83-2.221-7.479V13.484c0-0.468,0.176-0.895,0.526-1.285c0.351-0.389,0.798-0.584,1.344-0.584h3.739
		c0.467,0,0.895,0.195,1.285,0.584c0.389,0.391,0.584,0.817,0.584,1.285v56.322c0,0.391,0.019,0.721,0.059,0.993
		c0.039,0.273,0.098,0.565,0.176,0.876l5.726,10.049l5.608-10.049c0.234-0.544,0.351-1.168,0.351-1.869V13.484
		c0-0.468,0.175-0.895,0.526-1.285c0.35-0.389,0.797-0.584,1.344-0.584h3.738C497.142,11.615,497.591,11.811,497.941,12.199z"/>
	<path fill="#1CADA6" d="M515.761,19.094v27.693h10.166c1.244,0,1.869,0.624,1.869,1.869v3.739c0,0.468-0.176,0.896-0.525,1.285
		c-0.352,0.391-0.801,0.585-1.344,0.585h-10.166v27.576h10.166c0.543,0,0.992,0.195,1.344,0.584c0.35,0.391,0.525,0.818,0.525,1.286
		v3.739c0,1.246-0.625,1.869-1.869,1.869h-13.906c-1.092,0-1.986-0.351-2.688-1.052s-1.051-1.596-1.051-2.688V15.354
		c0-1.012,0.35-1.889,1.051-2.63c0.701-0.739,1.596-1.109,2.688-1.109h13.906c0.543,0,0.992,0.195,1.344,0.584
		c0.35,0.391,0.525,0.817,0.525,1.285v3.739c0,1.247-0.625,1.87-1.869,1.87H515.761z"/>
</g>
</svg>
