<?xml version="1.0" encoding="utf-8"?>
<!-- Generator: Adobe Illustrator 16.0.0, SVG Export Plug-In . SVG Version: 6.00 Build 0)  -->
<!DOCTYPE svg PUBLIC "-//W3C//DTD SVG 1.1//EN" "http://www.w3.org/Graphics/SVG/1.1/DTD/svg11.dtd">
<svg version="1.1" id="Layer_1" xmlns="http://www.w3.org/2000/svg" xmlns:xlink="http://www.w3.org/1999/xlink" x="0px" y="0px"
	 width="172.702px" height="103px" viewBox="17.636 204.25 172.702 103" enable-background="new 17.636 204.25 172.702 103"
	 xml:space="preserve">
<g>
	<path fill="#1CADA6" d="M46.964,230.542v-4.59c0-1.89-0.675-3.51-2.025-4.86c-1.35-1.35-2.97-2.024-4.86-2.024
		s-3.51,0.675-4.86,2.024c-1.35,1.351-2.025,2.971-2.025,4.86v58.725c0,1.891,0.675,3.511,2.025,4.86s2.97,2.025,4.86,2.025
		s3.51-0.676,4.86-2.025c1.35-1.35,2.025-2.97,2.025-4.86v-25.244h-4.725c-1.441,0-2.16-0.72-2.16-2.16v-4.32
		c0-1.438,0.719-2.16,2.16-2.16h11.205c1.438,0,2.16,0.722,2.16,2.16v31.725c0,2.16-0.405,4.164-1.215,6.008
		c-0.81,1.846-1.937,3.489-3.375,4.928c-1.441,1.44-3.084,2.564-4.928,3.375c-1.846,0.81-3.847,1.215-6.007,1.215
		s-4.164-0.405-6.007-1.215c-1.846-0.811-3.489-1.935-4.928-3.375c-1.44-1.438-2.565-3.082-3.375-4.928
		c-0.81-1.844-1.215-3.848-1.215-6.008v-58.725c0-2.16,0.405-4.162,1.215-6.008c0.81-1.844,1.935-3.486,3.375-4.927
		c1.438-1.439,3.082-2.565,4.928-3.375c1.843-0.811,3.847-1.216,6.007-1.216s4.162,0.405,6.007,1.216
		c1.844,0.81,3.487,1.936,4.928,3.375c1.438,1.44,2.565,3.083,3.375,4.927c0.81,1.846,1.215,3.848,1.215,6.008v4.59
		c0,1.44-0.721,2.16-2.16,2.16h-4.32C47.683,232.702,46.964,231.982,46.964,230.542z"/>
	<path fill="#1CADA6" d="M97.182,244.042c0,4.502-1.576,8.235-4.725,11.205c3.149,2.97,4.725,6.75,4.725,11.34v31.455
		c0,1.44-0.722,2.16-2.16,2.16h-4.32c-1.441,0-2.16-0.72-2.16-2.16v-31.455c0-1.979-0.675-3.645-2.025-4.995
		c-1.35-1.35-2.97-2.024-4.86-2.024h-6.885v38.475c0,0.631-0.226,1.147-0.675,1.553c-0.452,0.405-0.945,0.607-1.485,0.607h-4.32
		c-1.44,0-2.16-0.72-2.16-2.16v-83.295c0-1.169,0.405-2.181,1.215-3.037c0.81-0.854,1.844-1.283,3.105-1.283h11.205
		c2.16,0,4.185,0.405,6.075,1.216c1.89,0.81,3.531,1.936,4.928,3.375c1.394,1.44,2.498,3.104,3.308,4.994
		c0.81,1.891,1.215,3.915,1.215,6.075V244.042z M88.542,226.087c0-1.979-0.675-3.645-2.025-4.995c-1.35-1.35-2.97-2.024-4.86-2.024
		h-6.885v31.859h6.885c1.89,0,3.51-0.675,4.86-2.024c1.35-1.351,2.025-2.97,2.025-4.86V226.087z"/>
	<path fill="#1CADA6" d="M124.047,210.427c2.16,0,4.162,0.405,6.007,1.216c1.844,0.81,3.487,1.936,4.927,3.375
		c1.439,1.44,2.565,3.104,3.375,4.994c0.81,1.891,1.215,3.915,1.215,6.075v71.955c0,1.44-0.722,2.16-2.16,2.16h-4.32
		c-1.441,0-2.16-0.72-2.16-2.16v-38.475h-13.905v38.475c0,1.44-0.722,2.16-2.16,2.16h-4.32c-0.54,0-1.036-0.202-1.485-0.607
		c-0.451-0.405-0.675-0.922-0.675-1.553v-71.955c0-2.16,0.405-4.185,1.215-6.075c0.81-1.89,1.935-3.554,3.375-4.994
		c1.438-1.439,3.105-2.565,4.995-3.375C119.862,210.832,121.887,210.427,124.047,210.427z M130.932,250.927v-24.84
		c0-1.979-0.675-3.645-2.025-4.995c-1.35-1.35-2.97-2.024-4.86-2.024c-1.981,0-3.645,0.675-4.995,2.024
		c-1.35,1.351-2.025,3.017-2.025,4.995v24.84H130.932z"/>
	<path fill="#1CADA6" d="M180.004,211.103c0.405,0.451,0.607,0.944,0.607,1.484v31.455c0,3.601-1.059,6.75-3.172,9.45
		c-2.116,2.7-4.792,4.546-8.033,5.535v39.015c0,0.631-0.226,1.147-0.675,1.553c-0.452,0.405-0.945,0.607-1.485,0.607h-4.32
		c-1.44,0-2.16-0.72-2.16-2.16v-39.015c-3.331-0.989-6.054-2.835-8.167-5.535c-2.116-2.7-3.172-5.85-3.172-9.45v-31.455
		c0-0.54,0.203-1.033,0.607-1.484c0.405-0.449,0.922-0.676,1.553-0.676h4.32c0.629,0,1.147,0.227,1.553,0.676
		c0.405,0.451,0.607,0.944,0.607,1.484v31.455c0,1.891,0.675,3.51,2.025,4.86c1.35,1.35,3.014,2.024,4.995,2.024
		c1.89,0,3.51-0.675,4.86-2.024c1.35-1.351,2.025-2.97,2.025-4.86v-31.455c0-0.54,0.203-1.033,0.607-1.484
		c0.405-0.449,0.922-0.676,1.553-0.676h4.32C179.08,210.427,179.599,210.653,180.004,211.103z"/>
</g>
</svg>
