<?xml version="1.0" encoding="utf-8"?>
<!-- Generator: Adobe Illustrator 16.0.0, SVG Export Plug-In . SVG Version: 6.00 Build 0)  -->
<!DOCTYPE svg PUBLIC "-//W3C//DTD SVG 1.1//EN" "http://www.w3.org/Graphics/SVG/1.1/DTD/svg11.dtd">
<svg version="1.1" id="Layer_1" xmlns="http://www.w3.org/2000/svg" xmlns:xlink="http://www.w3.org/1999/xlink" x="0px" y="0px"
	 width="119.035px" height="103px" viewBox="17.636 338.25 119.035 103" enable-background="new 17.636 338.25 119.035 103"
	 xml:space="preserve">
<g>
	<path fill="#1CADA6" d="M45.614,364.542v-4.59c0-1.89-0.675-3.51-2.025-4.86c-1.35-1.35-2.97-2.024-4.86-2.024
		c-1.89,0-3.51,0.675-4.86,2.024c-1.35,1.351-2.025,2.971-2.025,4.86v6.885c0,0.811,0.021,1.306,0.067,1.485
		c0.044,0.182,0.156,0.451,0.337,0.81l19.44,34.29c0.629,1.171,1.125,2.071,1.485,2.7c0.358,0.631,0.607,1.215,0.742,1.755
		c0.135,0.54,0.224,1.104,0.27,1.688c0.044,0.587,0.068,1.373,0.068,2.362v6.75c0,2.16-0.405,4.186-1.215,6.075
		c-0.81,1.891-1.937,3.533-3.375,4.928c-1.44,1.396-3.084,2.497-4.927,3.308c-1.846,0.81-3.848,1.215-6.008,1.215
		c-2.16,0-4.164-0.405-6.007-1.215c-1.846-0.811-3.489-1.911-4.928-3.308c-1.44-1.395-2.565-3.037-3.375-4.928
		c-0.81-1.89-1.215-3.915-1.215-6.075v-4.59c0-0.54,0.203-1.033,0.607-1.484c0.405-0.449,0.922-0.676,1.553-0.676h4.32
		c0.629,0,1.147,0.227,1.553,0.676c0.405,0.451,0.607,0.944,0.607,1.484v4.59c0,1.981,0.675,3.646,2.025,4.995
		c1.35,1.351,2.97,2.025,4.86,2.025c1.89,0,3.51-0.675,4.86-2.025c1.35-1.35,2.025-3.014,2.025-4.995v-6.75
		c0-0.719-0.023-1.168-0.067-1.35c-0.046-0.18-0.158-0.449-0.338-0.81l-19.44-34.29c-0.63-1.169-1.126-2.069-1.485-2.7
		c-0.361-0.629-0.607-1.215-0.743-1.755c-0.135-0.54-0.226-1.125-0.27-1.755c-0.046-0.629-0.067-1.439-0.067-2.431v-6.885
		c0-2.16,0.405-4.162,1.215-6.008c0.81-1.844,1.935-3.486,3.375-4.927c1.439-1.439,3.082-2.565,4.928-3.375
		c1.844-0.811,3.848-1.216,6.007-1.216c2.16,0,4.162,0.405,6.008,1.216c1.843,0.81,3.487,1.936,4.927,3.375
		c1.438,1.44,2.565,3.083,3.375,4.927c0.81,1.846,1.215,3.848,1.215,6.008v4.59c0,1.44-0.722,2.16-2.16,2.16h-4.32
		C46.333,366.702,45.614,365.982,45.614,364.542z"/>
	<path fill="#1CADA6" d="M72.749,353.067v31.995h11.745c1.439,0,2.16,0.721,2.16,2.159v4.32c0,0.54-0.203,1.036-0.607,1.485
		c-0.405,0.451-0.924,0.675-1.553,0.675H72.749v31.86h11.745c0.629,0,1.147,0.226,1.553,0.675c0.405,0.451,0.607,0.945,0.607,1.484
		v4.32c0,1.44-0.721,2.16-2.16,2.16H68.428c-1.261,0-2.295-0.405-3.105-1.215c-0.81-0.811-1.215-1.844-1.215-3.105v-81.135
		c0-1.169,0.405-2.181,1.215-3.037c0.81-0.854,1.844-1.283,3.105-1.283h16.065c0.629,0,1.147,0.227,1.553,0.676
		c0.405,0.451,0.607,0.944,0.607,1.484v4.32c0,1.44-0.721,2.16-2.16,2.16H72.749z"/>
	<path fill="#1CADA6" d="M113.519,344.427c2.16,0,4.162,0.405,6.007,1.216c1.844,0.81,3.487,1.936,4.927,3.375
		c1.439,1.44,2.565,3.104,3.375,4.994c0.81,1.891,1.215,3.915,1.215,6.075v71.955c0,1.44-0.722,2.16-2.16,2.16h-4.32
		c-1.441,0-2.16-0.72-2.16-2.16v-38.475h-13.905v38.475c0,1.44-0.722,2.16-2.16,2.16h-4.32c-0.54,0-1.036-0.202-1.485-0.607
		c-0.451-0.405-0.675-0.922-0.675-1.553v-71.955c0-2.16,0.405-4.185,1.215-6.075c0.81-1.89,1.935-3.554,3.375-4.994
		c1.438-1.439,3.105-2.565,4.995-3.375C109.333,344.832,111.358,344.427,113.519,344.427z M120.403,384.927v-24.84
		c0-1.979-0.675-3.645-2.025-4.995c-1.35-1.35-2.97-2.024-4.86-2.024c-1.981,0-3.645,0.675-4.995,2.024
		c-1.35,1.351-2.025,3.017-2.025,4.995v24.84H120.403z"/>
</g>
</svg>
