<?xml version="1.0" encoding="utf-8"?>
<!-- Generator: Adobe Illustrator 16.0.0, SVG Export Plug-In . SVG Version: 6.00 Build 0)  -->
<!DOCTYPE svg PUBLIC "-//W3C//DTD SVG 1.1//EN" "http://www.w3.org/Graphics/SVG/1.1/DTD/svg11.dtd">
<svg version="1.1" id="Layer_1" xmlns="http://www.w3.org/2000/svg" xmlns:xlink="http://www.w3.org/1999/xlink" x="0px" y="0px"
	 width="285.44px" height="89px" viewBox="-452.535 -316.75 285.44 89" enable-background="new -452.535 -316.75 285.44 89"
	 xml:space="preserve">
<g enable-background="new    ">
	<path fill="#1CADA6" d="M37.033,29.025v-3.973c0-1.636-0.584-3.038-1.752-4.207c-1.168-1.168-2.571-1.752-4.207-1.752
		c-1.636,0-3.038,0.584-4.207,1.752c-1.168,1.169-1.752,2.571-1.752,4.207v50.83c0,1.636,0.584,3.038,1.752,4.206
		c1.169,1.169,2.571,1.753,4.207,1.753c1.636,0,3.038-0.584,4.207-1.753c1.168-1.168,1.752-2.57,1.752-4.206V54.031h-4.089
		c-1.247,0-1.87-0.622-1.87-1.869v-3.739c0-1.245,0.623-1.87,1.87-1.87h9.698c1.245,0,1.87,0.625,1.87,1.87v27.46
		c0,1.869-0.351,3.604-1.052,5.199c-0.701,1.598-1.676,3.021-2.921,4.266c-1.247,1.247-2.669,2.22-4.265,2.921
		c-1.598,0.701-3.33,1.052-5.2,1.052s-3.604-0.351-5.2-1.052c-1.598-0.701-3.02-1.674-4.265-2.921
		c-1.247-1.245-2.22-2.668-2.921-4.266c-0.701-1.596-1.052-3.33-1.052-5.199v-50.83c0-1.87,0.351-3.603,1.052-5.2
		c0.701-1.596,1.674-3.018,2.921-4.265c1.246-1.245,2.667-2.221,4.265-2.921c1.596-0.701,3.331-1.052,5.2-1.052
		s3.602,0.351,5.2,1.052c1.596,0.7,3.018,1.676,4.265,2.921c1.245,1.247,2.22,2.669,2.921,4.265c0.701,1.598,1.052,3.33,1.052,5.2
		v3.973c0,1.247-0.625,1.87-1.87,1.87h-3.739C37.656,30.896,37.033,30.272,37.033,29.025z"/>
	<path fill="#1CADA6" d="M80.5,40.711c0,3.896-1.364,7.128-4.09,9.698c2.726,2.57,4.09,5.843,4.09,9.815v27.227
		c0,1.246-0.625,1.869-1.87,1.869h-3.739c-1.247,0-1.87-0.623-1.87-1.869V60.225c0-1.713-0.584-3.155-1.753-4.323
		c-1.168-1.169-2.571-1.753-4.207-1.753h-5.959v33.303c0,0.546-0.195,0.993-0.584,1.344c-0.391,0.351-0.818,0.525-1.286,0.525
		h-3.739c-1.247,0-1.87-0.623-1.87-1.869V15.354c0-1.012,0.351-1.889,1.052-2.63c0.701-0.739,1.596-1.109,2.688-1.109h9.699
		c1.87,0,3.623,0.351,5.258,1.052c1.636,0.7,3.056,1.676,4.265,2.921c1.207,1.247,2.162,2.688,2.863,4.323S80.5,23.3,80.5,25.17
		V40.711z M73.022,25.17c0-1.713-0.584-3.155-1.753-4.324c-1.168-1.168-2.571-1.752-4.207-1.752h-5.959V46.67h5.959
		c1.636,0,3.038-0.584,4.207-1.753c1.168-1.168,1.753-2.57,1.753-4.206V25.17z"/>
	<path fill="#1CADA6" d="M103.753,11.615c1.87,0,3.602,0.351,5.2,1.052c1.596,0.7,3.018,1.676,4.265,2.921
		c1.245,1.247,2.22,2.688,2.921,4.323s1.051,3.389,1.051,5.259v62.281c0,1.246-0.624,1.869-1.87,1.869h-3.739
		c-1.247,0-1.87-0.623-1.87-1.869V54.148H97.677v33.303c0,1.246-0.625,1.869-1.87,1.869h-3.739c-0.467,0-0.896-0.175-1.285-0.525
		c-0.391-0.351-0.584-0.798-0.584-1.344V25.17c0-1.87,0.351-3.623,1.052-5.259s1.674-3.076,2.921-4.323
		c1.246-1.245,2.688-2.221,4.324-2.921C100.131,11.966,101.884,11.615,103.753,11.615z M109.713,46.67v-21.5
		c0-1.713-0.584-3.155-1.753-4.324c-1.168-1.168-2.571-1.752-4.207-1.752c-1.714,0-3.155,0.584-4.324,1.752
		c-1.168,1.169-1.752,2.611-1.752,4.324v21.5H109.713z"/>
	<path fill="#1CADA6" d="M152.187,12.199c0.351,0.391,0.526,0.817,0.526,1.285v27.227c0,3.116-0.917,5.842-2.746,8.179
		c-1.832,2.338-4.148,3.935-6.953,4.791v33.771c0,0.546-0.195,0.993-0.584,1.344c-0.391,0.351-0.818,0.525-1.285,0.525h-3.739
		c-1.247,0-1.87-0.623-1.87-1.869V53.681c-2.883-0.856-5.24-2.453-7.069-4.791c-1.832-2.337-2.746-5.062-2.746-8.179V13.484
		c0-0.468,0.175-0.895,0.526-1.285c0.351-0.389,0.798-0.584,1.344-0.584h3.739c0.544,0,0.993,0.195,1.344,0.584
		c0.351,0.391,0.526,0.817,0.526,1.285v27.227c0,1.636,0.584,3.038,1.752,4.206c1.168,1.169,2.609,1.753,4.324,1.753
		c1.636,0,3.038-0.584,4.207-1.753c1.168-1.168,1.753-2.57,1.753-4.206V13.484c0-0.468,0.175-0.895,0.525-1.285
		c0.351-0.389,0.798-0.584,1.344-0.584h3.739C151.388,11.615,151.837,11.811,152.187,12.199z"/>
	<path fill="#1CADA6" d="M196.297,29.025v-3.973c0-1.636-0.584-3.038-1.752-4.207c-1.168-1.168-2.571-1.752-4.207-1.752
		c-1.636,0-3.038,0.584-4.207,1.752c-1.168,1.169-1.752,2.571-1.752,4.207v5.959c0,0.701,0.018,1.131,0.058,1.286
		c0.039,0.156,0.135,0.391,0.292,0.7l16.826,29.681c0.544,1.013,0.973,1.793,1.286,2.337c0.31,0.546,0.525,1.052,0.643,1.519
		c0.117,0.468,0.193,0.955,0.233,1.461c0.039,0.508,0.059,1.188,0.059,2.045v5.843c0,1.869-0.351,3.622-1.052,5.258
		s-1.676,3.059-2.921,4.266c-1.247,1.208-2.669,2.161-4.265,2.862c-1.598,0.701-3.331,1.052-5.2,1.052
		c-1.869,0-3.604-0.351-5.2-1.052c-1.598-0.701-3.02-1.654-4.265-2.862c-1.247-1.207-2.22-2.63-2.921-4.266
		s-1.052-3.389-1.052-5.258v-3.974c0-0.467,0.175-0.895,0.526-1.285c0.351-0.389,0.798-0.584,1.344-0.584h3.739
		c0.544,0,0.993,0.195,1.344,0.584c0.351,0.391,0.526,0.818,0.526,1.285v3.974c0,1.714,0.584,3.154,1.752,4.323
		c1.168,1.168,2.571,1.753,4.207,1.753c1.636,0,3.039-0.585,4.207-1.753c1.168-1.169,1.752-2.609,1.752-4.323V70.04
		c0-0.623-0.02-1.012-0.058-1.169c-0.041-0.154-0.137-0.389-0.292-0.701L179.12,38.49c-0.546-1.012-0.975-1.791-1.286-2.337
		c-0.312-0.544-0.526-1.052-0.643-1.519c-0.117-0.468-0.195-0.974-0.233-1.52c-0.041-0.544-0.059-1.245-0.059-2.104v-5.959
		c0-1.87,0.351-3.603,1.052-5.2c0.701-1.596,1.674-3.018,2.921-4.265c1.246-1.245,2.667-2.221,4.265-2.921
		c1.596-0.701,3.331-1.052,5.2-1.052c1.87,0,3.603,0.351,5.2,1.052c1.596,0.7,3.018,1.676,4.265,2.921
		c1.245,1.247,2.22,2.669,2.921,4.265c0.701,1.598,1.052,3.33,1.052,5.2v3.973c0,1.247-0.625,1.87-1.87,1.87h-3.739
		C196.919,30.896,196.297,30.272,196.297,29.025z"/>
	<path fill="#1CADA6" d="M219.784,19.094v27.693h10.166c1.245,0,1.87,0.624,1.87,1.869v3.739c0,0.468-0.175,0.896-0.526,1.285
		c-0.351,0.391-0.8,0.585-1.344,0.585h-10.166v27.576h10.166c0.544,0,0.993,0.195,1.344,0.584c0.351,0.391,0.526,0.818,0.526,1.286
		v3.739c0,1.246-0.625,1.869-1.87,1.869h-13.905c-1.092,0-1.986-0.351-2.688-1.052s-1.052-1.596-1.052-2.688V15.354
		c0-1.012,0.351-1.889,1.052-2.63c0.701-0.739,1.596-1.109,2.688-1.109h13.905c0.544,0,0.993,0.195,1.344,0.584
		c0.351,0.391,0.526,0.817,0.526,1.285v3.739c0,1.247-0.625,1.87-1.87,1.87H219.784z"/>
	<path fill="#1CADA6" d="M255.073,11.615c1.87,0,3.602,0.351,5.2,1.052c1.596,0.7,3.018,1.676,4.265,2.921
		c1.245,1.247,2.22,2.688,2.921,4.323s1.051,3.389,1.051,5.259v62.281c0,1.246-0.624,1.869-1.87,1.869h-3.739
		c-1.247,0-1.87-0.623-1.87-1.869V54.148h-12.036v33.303c0,1.246-0.625,1.869-1.87,1.869h-3.739c-0.467,0-0.896-0.175-1.285-0.525
		c-0.391-0.351-0.584-0.798-0.584-1.344V25.17c0-1.87,0.351-3.623,1.052-5.259s1.674-3.076,2.921-4.323
		c1.246-1.245,2.688-2.221,4.324-2.921C251.45,11.966,253.203,11.615,255.073,11.615z M261.032,46.67v-21.5
		c0-1.713-0.584-3.155-1.753-4.324c-1.168-1.168-2.571-1.752-4.207-1.752c-1.714,0-3.155,0.584-4.324,1.752
		c-1.168,1.169-1.752,2.611-1.752,4.324v21.5H261.032z"/>
	<path fill="#1CADA6" d="M314.431,29.025v-3.973c0-1.636-0.584-3.038-1.752-4.207c-1.168-1.168-2.57-1.752-4.207-1.752
		c-1.636,0-3.037,0.584-4.207,1.752c-1.168,1.169-1.752,2.571-1.752,4.207v50.83c0,1.636,0.584,3.038,1.752,4.206
		c1.17,1.169,2.571,1.753,4.207,1.753c1.637,0,3.039-0.584,4.207-1.753c1.168-1.168,1.752-2.57,1.752-4.206v-4.324
		c0-1.245,0.637-1.869,1.908-1.869h3.818c1.245,0,1.869,0.624,1.869,1.869v4.324c0,1.869-0.352,3.604-1.055,5.199
		c-0.703,1.598-1.691,3.021-2.962,4.266c-1.272,1.247-2.713,2.22-4.321,2.921c-1.609,0.701-3.347,1.052-5.217,1.052
		c-1.869,0-3.622-0.351-5.258-1.052c-1.637-0.701-3.059-1.674-4.266-2.921c-1.209-1.245-2.161-2.668-2.862-4.266
		c-0.701-1.596-1.052-3.33-1.052-5.199v-50.83c0-1.87,0.351-3.603,1.052-5.2c0.701-1.596,1.653-3.018,2.862-4.265
		c1.207-1.245,2.629-2.221,4.266-2.921c1.636-0.701,3.389-1.052,5.258-1.052c1.87,0,3.607,0.351,5.217,1.052
		c1.608,0.7,3.049,1.676,4.321,2.921c1.271,1.247,2.259,2.669,2.962,4.265c0.703,1.598,1.055,3.33,1.055,5.2v3.973
		c0,1.247-0.624,1.87-1.869,1.87h-3.818C315.068,30.896,314.431,30.272,314.431,29.025z"/>
	<path fill="#1CADA6" d="M354.978,40.711c0,3.896-1.364,7.128-4.09,9.698c2.726,2.57,4.09,5.843,4.09,9.815v27.227
		c0,1.246-0.625,1.869-1.869,1.869h-3.74c-1.246,0-1.869-0.623-1.869-1.869V60.225c0-1.713-0.584-3.155-1.753-4.323
		c-1.169-1.169-2.571-1.753-4.206-1.753h-5.96v33.303c0,0.546-0.195,0.993-0.584,1.344c-0.392,0.351-0.817,0.525-1.286,0.525h-3.738
		c-1.248,0-1.87-0.623-1.87-1.869V15.354c0-1.012,0.351-1.889,1.052-2.63c0.701-0.739,1.596-1.109,2.688-1.109h9.699
		c1.869,0,3.622,0.351,5.258,1.052c1.636,0.7,3.057,1.676,4.266,2.921c1.206,1.247,2.161,2.688,2.862,4.323s1.052,3.389,1.052,5.259
		V40.711z M347.5,25.17c0-1.713-0.584-3.155-1.753-4.324c-1.169-1.168-2.571-1.752-4.206-1.752h-5.96V46.67h5.96
		c1.635,0,3.037-0.584,4.206-1.753c1.169-1.168,1.753-2.57,1.753-4.206V25.17z"/>
	<path fill="#1CADA6" d="M372.155,19.094v27.693h10.166c1.245,0,1.87,0.624,1.87,1.869v3.739c0,0.468-0.176,0.896-0.526,1.285
		c-0.351,0.391-0.8,0.585-1.344,0.585h-10.166v27.576h10.166c0.544,0,0.993,0.195,1.344,0.584c0.351,0.391,0.526,0.818,0.526,1.286
		v3.739c0,1.246-0.625,1.869-1.87,1.869h-13.905c-1.092,0-1.986-0.351-2.688-1.052s-1.052-1.596-1.052-2.688V15.354
		c0-1.012,0.351-1.889,1.052-2.63c0.701-0.739,1.596-1.109,2.688-1.109h13.905c0.544,0,0.993,0.195,1.344,0.584
		c0.351,0.391,0.526,0.817,0.526,1.285v3.739c0,1.247-0.625,1.87-1.87,1.87H372.155z"/>
	<path fill="#1CADA6" d="M407.444,11.615c1.87,0,3.603,0.351,5.2,1.052c1.596,0.7,3.018,1.676,4.265,2.921
		c1.245,1.247,2.22,2.688,2.921,4.323s1.052,3.389,1.052,5.259v62.281c0,1.246-0.624,1.869-1.87,1.869h-3.738
		c-1.247,0-1.869-0.623-1.869-1.869V54.148h-12.036v33.303c0,1.246-0.624,1.869-1.87,1.869h-3.738c-0.468,0-0.896-0.175-1.285-0.525
		c-0.392-0.351-0.585-0.798-0.585-1.344V25.17c0-1.87,0.351-3.623,1.052-5.259s1.674-3.076,2.921-4.323
		c1.245-1.245,2.688-2.221,4.323-2.921C403.822,11.966,405.574,11.615,407.444,11.615z M413.404,46.67v-21.5
		c0-1.713-0.585-3.155-1.754-4.324c-1.168-1.168-2.57-1.752-4.206-1.752c-1.714,0-3.155,0.584-4.323,1.752
		c-1.169,1.169-1.753,2.611-1.753,4.324v21.5H413.404z"/>
	<path fill="#1CADA6" d="M447.115,12.199c0.35,0.391,0.525,0.817,0.525,1.285v3.739c0,1.247-0.625,1.87-1.87,1.87h-5.258v68.357
		c0,1.246-0.624,1.869-1.87,1.869h-3.738c-1.248,0-1.87-0.623-1.87-1.869V19.094h-5.259c-1.246,0-1.869-0.623-1.869-1.87v-3.739
		c0-0.468,0.176-0.895,0.525-1.285c0.352-0.389,0.799-0.584,1.344-0.584h17.995C446.314,11.615,446.763,11.811,447.115,12.199z"/>
	<path fill="#1CADA6" d="M461.895,87.451c0,1.246-0.624,1.869-1.87,1.869h-3.738c-1.248,0-1.87-0.623-1.87-1.869v-73.85v-0.117
		c0-0.468,0.175-0.895,0.526-1.285c0.35-0.389,0.797-0.584,1.344-0.584h3.738c0.545,0,0.994,0.195,1.344,0.584
		c0.352,0.391,0.526,0.817,0.526,1.285V87.451z"/>
	<path fill="#1CADA6" d="M497.941,12.199c0.352,0.391,0.526,0.817,0.526,1.285v0.117v56.205c0,2.648-0.741,5.141-2.22,7.479
		l-6.311,11.101c-0.391,0.624-0.935,0.935-1.636,0.935h-6.544c-0.701,0-1.246-0.311-1.635-0.935l-6.311-11.101
		c-1.48-2.338-2.221-4.83-2.221-7.479V13.484c0-0.468,0.176-0.895,0.526-1.285c0.351-0.389,0.798-0.584,1.344-0.584h3.739
		c0.467,0,0.895,0.195,1.285,0.584c0.389,0.391,0.584,0.817,0.584,1.285v56.322c0,0.391,0.019,0.721,0.059,0.993
		c0.039,0.273,0.098,0.565,0.176,0.876l5.726,10.049l5.608-10.049c0.234-0.544,0.351-1.168,0.351-1.869V13.484
		c0-0.468,0.175-0.895,0.526-1.285c0.35-0.389,0.797-0.584,1.344-0.584h3.738C497.142,11.615,497.591,11.811,497.941,12.199z"/>
	<path fill="#1CADA6" d="M515.761,19.094v27.693h10.166c1.244,0,1.869,0.624,1.869,1.869v3.739c0,0.468-0.176,0.896-0.525,1.285
		c-0.352,0.391-0.801,0.585-1.344,0.585h-10.166v27.576h10.166c0.543,0,0.992,0.195,1.344,0.584c0.35,0.391,0.525,0.818,0.525,1.286
		v3.739c0,1.246-0.625,1.869-1.869,1.869h-13.906c-1.092,0-1.986-0.351-2.688-1.052s-1.051-1.596-1.051-2.688V15.354
		c0-1.012,0.35-1.889,1.051-2.63c0.701-0.739,1.596-1.109,2.688-1.109h13.906c0.543,0,0.992,0.195,1.344,0.584
		c0.35,0.391,0.525,0.817,0.525,1.285v3.739c0,1.247-0.625,1.87-1.869,1.87H515.761z"/>
</g>
<g>
	<path fill="#1CADA6" d="M650.377,28.337v-4.018c0-1.655-0.591-3.073-1.772-4.255c-1.183-1.182-2.601-1.772-4.255-1.772
		s-3.073,0.591-4.255,1.772c-1.182,1.182-1.772,2.6-1.772,4.255v51.41c0,1.654,0.591,3.072,1.772,4.254
		c1.182,1.183,2.601,1.773,4.255,1.773s3.072-0.591,4.255-1.773c1.182-1.182,1.772-2.6,1.772-4.254V53.629h-4.137
		c-1.261,0-1.891-0.63-1.891-1.891v-3.782c0-1.259,0.63-1.891,1.891-1.891h9.81c1.26,0,1.891,0.632,1.891,1.891v27.773
		c0,1.891-0.354,3.645-1.063,5.259c-0.709,1.616-1.695,3.055-2.954,4.313c-1.262,1.262-2.7,2.246-4.314,2.955
		c-1.615,0.709-3.368,1.063-5.259,1.063s-3.646-0.354-5.26-1.063c-1.615-0.709-3.054-1.693-4.313-2.955
		c-1.261-1.259-2.245-2.697-2.954-4.313c-0.709-1.614-1.063-3.368-1.063-5.259v-51.41c0-1.891,0.354-3.644,1.063-5.259
		c0.709-1.614,1.693-3.052,2.954-4.313c1.26-1.26,2.698-2.246,4.313-2.955c1.614-0.709,3.369-1.064,5.26-1.064
		s3.644,0.354,5.259,1.064c1.614,0.709,3.053,1.695,4.314,2.955c1.259,1.261,2.245,2.7,2.954,4.313
		c0.709,1.616,1.063,3.368,1.063,5.259v4.018c0,1.261-0.631,1.891-1.891,1.891h-3.782C651.007,30.229,650.377,29.599,650.377,28.337
		z"/>
	<path fill="#1CADA6" d="M694.34,40.156c0,3.941-1.379,7.209-4.137,9.81c2.758,2.6,4.137,5.909,4.137,9.927V87.43
		c0,1.261-0.632,1.891-1.891,1.891h-3.782c-1.261,0-1.891-0.63-1.891-1.891V59.893c0-1.732-0.591-3.191-1.772-4.373
		c-1.183-1.182-2.601-1.772-4.255-1.772h-6.027V87.43c0,0.552-0.198,1.004-0.591,1.358c-0.396,0.354-0.827,0.532-1.301,0.532h-3.781
		c-1.262,0-1.892-0.63-1.892-1.891V14.51c0-1.023,0.355-1.91,1.064-2.659c0.709-0.748,1.613-1.123,2.718-1.123h9.81
		c1.891,0,3.663,0.354,5.318,1.064c1.654,0.709,3.091,1.695,4.313,2.955c1.221,1.261,2.187,2.718,2.896,4.373
		c0.709,1.655,1.063,3.427,1.063,5.318V40.156z M686.777,24.438c0-1.732-0.591-3.191-1.772-4.373
		c-1.183-1.182-2.601-1.772-4.255-1.772h-6.027v27.891h6.027c1.654,0,3.072-0.591,4.255-1.772c1.182-1.182,1.772-2.6,1.772-4.255
		V24.438z"/>
	<path fill="#1CADA6" d="M717.859,10.728c1.891,0,3.644,0.354,5.259,1.064c1.614,0.709,3.053,1.695,4.314,2.955
		c1.259,1.261,2.245,2.718,2.954,4.373c0.709,1.655,1.063,3.427,1.063,5.318V87.43c0,1.261-0.631,1.891-1.891,1.891h-3.782
		c-1.261,0-1.891-0.63-1.891-1.891V53.747h-12.173V87.43c0,1.261-0.632,1.891-1.891,1.891h-3.782c-0.473,0-0.907-0.178-1.3-0.532
		c-0.396-0.354-0.591-0.807-0.591-1.358V24.438c0-1.891,0.354-3.664,1.063-5.318c0.709-1.654,1.693-3.111,2.954-4.373
		c1.26-1.26,2.719-2.246,4.373-2.955C714.195,11.083,715.968,10.728,717.859,10.728z M723.886,46.183V24.438
		c0-1.732-0.591-3.191-1.772-4.373c-1.183-1.182-2.601-1.772-4.255-1.772c-1.734,0-3.191,0.591-4.373,1.772
		c-1.182,1.182-1.772,2.641-1.772,4.373v21.746H723.886z"/>
	<path fill="#1CADA6" d="M766.845,11.319c0.354,0.396,0.532,0.828,0.532,1.3v27.537c0,3.152-0.927,5.909-2.777,8.273
		c-1.853,2.364-4.195,3.979-7.032,4.846V87.43c0,0.552-0.197,1.004-0.591,1.358c-0.395,0.354-0.827,0.532-1.3,0.532h-3.782
		c-1.261,0-1.891-0.63-1.891-1.891V53.274c-2.916-0.866-5.3-2.482-7.15-4.846c-1.852-2.364-2.777-5.121-2.777-8.273V12.619
		c0-0.473,0.178-0.905,0.532-1.3c0.354-0.393,0.807-0.591,1.359-0.591h3.781c0.551,0,1.005,0.198,1.359,0.591
		c0.354,0.396,0.532,0.828,0.532,1.3v27.537c0,1.655,0.591,3.073,1.772,4.255c1.182,1.182,2.639,1.772,4.373,1.772
		c1.654,0,3.072-0.591,4.254-1.772c1.183-1.182,1.773-2.6,1.773-4.255V12.619c0-0.473,0.177-0.905,0.531-1.3
		c0.354-0.393,0.808-0.591,1.359-0.591h3.782C766.037,10.728,766.491,10.926,766.845,11.319z"/>
</g>
<path fill="#1CADA6" d="M114.869,366.659v-3.098c0-1.276-0.456-2.369-1.367-3.28c-0.912-0.911-2.005-1.367-3.281-1.367
	c-1.275,0-2.369,0.456-3.28,1.367s-1.367,2.004-1.367,3.28V403.2c0,1.275,0.456,2.369,1.367,3.28
	c0.911,0.912,2.005,1.367,3.28,1.367c1.276,0,2.369-0.455,3.281-1.367c0.911-0.911,1.367-2.005,1.367-3.28v-17.039h-3.189
	c-0.972,0-1.458-0.486-1.458-1.459v-2.916c0-0.971,0.486-1.458,1.458-1.458h7.563c0.972,0,1.458,0.487,1.458,1.458V403.2
	c0,1.458-0.273,2.811-0.82,4.056c-0.546,1.245-1.307,2.355-2.277,3.325c-0.973,0.973-2.082,1.731-3.327,2.278
	c-1.246,0.547-2.597,0.821-4.055,0.821c-1.458,0-2.811-0.274-4.055-0.821c-1.246-0.547-2.354-1.306-3.326-2.278
	c-0.972-0.97-1.731-2.08-2.277-3.325c-0.547-1.245-0.82-2.598-0.82-4.056v-39.639c0-1.458,0.273-2.809,0.82-4.055
	c0.546-1.245,1.306-2.354,2.277-3.326c0.972-0.972,2.081-1.732,3.326-2.278c1.245-0.547,2.598-0.82,4.055-0.82
	c1.458,0,2.81,0.273,4.055,0.82c1.245,0.546,2.354,1.307,3.327,2.278c0.97,0.973,1.731,2.081,2.277,3.326
	c0.547,1.246,0.82,2.597,0.82,4.055v3.098c0,0.973-0.486,1.459-1.458,1.459h-2.916C115.354,368.118,114.869,367.632,114.869,366.659
	z"/>
<path fill="#1CADA6" d="M148.766,375.772c0,3.038-1.063,5.559-3.189,7.563c2.126,2.004,3.189,4.555,3.189,7.654v21.232
	c0,0.972-0.487,1.458-1.458,1.458h-2.916c-0.972,0-1.458-0.486-1.458-1.458V390.99c0-1.336-0.456-2.461-1.366-3.372
	c-0.912-0.911-2.005-1.367-3.281-1.367h-4.647v25.972c0,0.425-0.153,0.774-0.456,1.047c-0.305,0.273-0.638,0.411-1.003,0.411h-2.916
	c-0.973,0-1.458-0.486-1.458-1.458v-56.225c0-0.789,0.274-1.473,0.821-2.05c0.546-0.577,1.244-0.866,2.095-0.866h7.563
	c1.458,0,2.825,0.273,4.101,0.82c1.275,0.546,2.383,1.307,3.326,2.278c0.941,0.973,1.686,2.096,2.232,3.372
	c0.547,1.275,0.82,2.642,0.82,4.101V375.772z M142.934,363.653c0-1.336-0.456-2.461-1.366-3.372
	c-0.912-0.911-2.005-1.367-3.281-1.367h-4.647v21.505h4.647c1.276,0,2.369-0.455,3.281-1.366c0.911-0.911,1.366-2.005,1.366-3.28
	V363.653z"/>
<path fill="#1CADA6" d="M166.9,353.082c1.458,0,2.809,0.273,4.055,0.82c1.245,0.546,2.354,1.307,3.327,2.278
	c0.97,0.973,1.731,2.096,2.278,3.372c0.546,1.275,0.82,2.642,0.82,4.101v48.569c0,0.972-0.486,1.458-1.458,1.458h-2.917
	c-0.972,0-1.458-0.486-1.458-1.458v-25.972h-9.386v25.972c0,0.972-0.487,1.458-1.458,1.458h-2.916c-0.365,0-0.7-0.138-1.002-0.411
	c-0.305-0.272-0.456-0.622-0.456-1.047v-48.569c0-1.459,0.273-2.825,0.82-4.101c0.547-1.276,1.306-2.399,2.278-3.372
	c0.971-0.972,2.096-1.732,3.372-2.278C164.075,353.355,165.442,353.082,166.9,353.082z M171.547,380.419v-16.766
	c0-1.336-0.456-2.461-1.367-3.372c-0.912-0.911-2.005-1.367-3.281-1.367c-1.337,0-2.461,0.456-3.372,1.367s-1.366,2.036-1.366,3.372
	v16.766H171.547z"/>
<path fill="#1CADA6" d="M204.67,353.537c0.273,0.306,0.41,0.639,0.41,1.003v21.232c0,2.43-0.714,4.556-2.142,6.378
	c-1.428,1.823-3.234,3.069-5.422,3.736v26.336c0,0.425-0.152,0.774-0.456,1.047c-0.304,0.273-0.638,0.411-1.002,0.411h-2.916
	c-0.972,0-1.458-0.486-1.458-1.458v-26.336c-2.248-0.667-4.086-1.913-5.513-3.736c-1.427-1.822-2.141-3.948-2.141-6.378V354.54
	c0-0.364,0.137-0.697,0.41-1.003c0.273-0.302,0.622-0.455,1.048-0.455h2.916c0.424,0,0.774,0.153,1.048,0.455
	c0.273,0.306,0.411,0.639,0.411,1.003v21.232c0,1.275,0.456,2.369,1.367,3.28s2.034,1.366,3.372,1.366
	c1.275,0,2.369-0.455,3.28-1.366c0.912-0.911,1.368-2.005,1.368-3.28V354.54c0-0.364,0.136-0.697,0.41-1.003
	c0.273-0.302,0.623-0.455,1.048-0.455h2.917C204.047,353.082,204.397,353.235,204.67,353.537z"/>
<path fill="#1CADA6" d="M240.438,366.66v-3.099c0-1.275-0.456-2.369-1.368-3.28c-0.911-0.911-2.004-1.367-3.28-1.367
	c-1.276,0-2.37,0.456-3.281,1.367s-1.367,2.005-1.367,3.28v4.647c0,0.546,0.014,0.881,0.045,1.003
	c0.03,0.122,0.105,0.304,0.228,0.546l13.122,23.146c0.424,0.79,0.758,1.398,1.002,1.823c0.242,0.425,0.41,0.819,0.501,1.184
	c0.091,0.364,0.151,0.746,0.182,1.141c0.03,0.396,0.046,0.926,0.046,1.595v4.555c0,1.458-0.273,2.825-0.82,4.102
	c-0.547,1.275-1.308,2.385-2.279,3.326c-0.972,0.942-2.081,1.686-3.326,2.231c-1.246,0.547-2.597,0.821-4.055,0.821
	c-1.458,0-2.811-0.274-4.056-0.821c-1.245-0.546-2.354-1.289-3.326-2.231c-0.972-0.941-1.731-2.051-2.278-3.326
	c-0.547-1.276-0.821-2.644-0.821-4.102v-3.098c0-0.364,0.137-0.698,0.411-1.003c0.273-0.303,0.622-0.454,1.048-0.454h2.916
	c0.425,0,0.775,0.151,1.048,0.454c0.273,0.305,0.41,0.639,0.41,1.003v3.098c0,1.338,0.456,2.461,1.367,3.372
	s2.004,1.367,3.281,1.367c1.275,0,2.369-0.456,3.28-1.367c0.912-0.911,1.368-2.034,1.368-3.372v-4.555
	c0-0.486-0.016-0.789-0.046-0.913c-0.031-0.12-0.107-0.303-0.228-0.547l-13.122-23.145c-0.426-0.789-0.761-1.397-1.002-1.822
	c-0.244-0.425-0.41-0.82-0.501-1.185c-0.091-0.365-0.152-0.76-0.182-1.186c-0.032-0.423-0.046-0.97-0.046-1.64v-4.647
	c0-1.458,0.273-2.809,0.821-4.055c0.547-1.245,1.306-2.354,2.278-3.326c0.971-0.972,2.081-1.731,3.326-2.278
	c1.245-0.547,2.597-0.819,4.056-0.819c1.458,0,2.809,0.272,4.055,0.819c1.245,0.547,2.354,1.307,3.326,2.278
	c0.971,0.973,1.732,2.081,2.279,3.326c0.546,1.246,0.82,2.597,0.82,4.055v3.099c0,0.972-0.487,1.458-1.458,1.458h-2.917
	C240.923,368.118,240.438,367.632,240.438,366.66z"/>
<path fill="#1CADA6" d="M258.754,358.914v21.597h7.928c0.971,0,1.458,0.486,1.458,1.458v2.917c0,0.364-0.137,0.698-0.411,1.001
	c-0.273,0.306-0.623,0.456-1.047,0.456h-7.928v21.505h7.928c0.424,0,0.774,0.152,1.047,0.457c0.273,0.304,0.411,0.637,0.411,1.001
	v2.917c0,0.972-0.487,1.458-1.458,1.458h-10.844c-0.852,0-1.549-0.274-2.095-0.821c-0.547-0.546-0.82-1.243-0.82-2.096v-54.766
	c0-0.789,0.273-1.473,0.82-2.051c0.546-0.575,1.244-0.864,2.095-0.864h10.844c0.424,0,0.774,0.152,1.047,0.455
	c0.273,0.304,0.411,0.638,0.411,1.003v2.915c0,0.973-0.487,1.458-1.458,1.458H258.754z"/>
<path fill="#1CADA6" d="M286.273,353.083c1.459,0,2.809,0.272,4.055,0.819s2.355,1.307,3.328,2.278
	c0.971,0.973,1.73,2.097,2.277,3.372s0.82,2.643,0.82,4.101v48.569c0,0.972-0.486,1.458-1.459,1.458h-2.916
	c-0.973,0-1.459-0.486-1.459-1.458v-25.972h-9.385v25.972c0,0.972-0.486,1.458-1.457,1.458h-2.916c-0.365,0-0.699-0.137-1.002-0.411
	c-0.305-0.272-0.457-0.622-0.457-1.047v-48.569c0-1.458,0.273-2.825,0.82-4.101s1.307-2.399,2.277-3.372
	c0.973-0.972,2.098-1.731,3.373-2.278S284.816,353.083,286.273,353.083z M290.919,380.42v-16.767c0-1.336-0.455-2.461-1.365-3.372
	c-0.912-0.911-2.006-1.367-3.281-1.367c-1.336,0-2.461,0.456-3.371,1.367s-1.367,2.036-1.367,3.372v16.767H290.919z"/>
<path fill="#1CADA6" d="M124.527,440.248v-3.1c0-1.275-0.456-2.369-1.366-3.28c-0.912-0.911-2.005-1.367-3.281-1.367
	c-1.276,0-2.37,0.456-3.281,1.367s-1.367,2.005-1.367,3.28v39.64c0,1.275,0.456,2.368,1.367,3.279
	c0.911,0.913,2.005,1.368,3.281,1.368c1.275,0,2.369-0.455,3.281-1.368c0.911-0.911,1.366-2.004,1.366-3.279v-3.372
	c0-0.972,0.496-1.458,1.488-1.458h2.977c0.971,0,1.458,0.486,1.458,1.458v3.372c0,1.457-0.275,2.81-0.823,4.055
	c-0.548,1.246-1.318,2.355-2.31,3.325c-0.992,0.974-2.116,1.732-3.37,2.279c-1.254,0.546-2.61,0.82-4.067,0.82
	c-1.458,0-2.825-0.274-4.101-0.82c-1.276-0.547-2.385-1.306-3.326-2.279c-0.943-0.97-1.686-2.079-2.232-3.325
	c-0.547-1.245-0.82-2.598-0.82-4.055v-39.64c0-1.458,0.273-2.809,0.82-4.054c0.546-1.246,1.29-2.354,2.232-3.327
	c0.941-0.971,2.05-1.731,3.326-2.278c1.275-0.547,2.643-0.819,4.101-0.819c1.458,0,2.813,0.272,4.067,0.819s2.378,1.308,3.37,2.278
	c0.991,0.973,1.761,2.081,2.31,3.327c0.548,1.245,0.823,2.596,0.823,4.054v3.1c0,0.971-0.487,1.457-1.458,1.457h-2.977
	C125.022,441.705,124.527,441.219,124.527,440.248z"/>
<path fill="#1CADA6" d="M156.146,449.36c0,3.037-1.063,5.559-3.189,7.562c2.126,2.005,3.189,4.556,3.189,7.654v21.232
	c0,0.972-0.487,1.458-1.458,1.458h-2.917c-0.972,0-1.458-0.486-1.458-1.458v-21.232c0-1.335-0.456-2.46-1.367-3.371
	c-0.912-0.911-2.005-1.368-3.281-1.368h-4.647v25.972c0,0.425-0.153,0.774-0.456,1.047c-0.305,0.274-0.638,0.411-1.003,0.411h-2.916
	c-0.973,0-1.458-0.486-1.458-1.458v-56.224c0-0.789,0.274-1.474,0.821-2.052c0.547-0.575,1.244-0.864,2.096-0.864h7.563
	c1.458,0,2.824,0.272,4.101,0.819c1.275,0.547,2.383,1.308,3.326,2.278c0.941,0.973,1.686,2.097,2.232,3.372
	c0.546,1.275,0.82,2.643,0.82,4.101V449.36z M150.315,437.24c0-1.336-0.456-2.461-1.367-3.372c-0.912-0.911-2.005-1.367-3.281-1.367
	h-4.647v21.507h4.647c1.275,0,2.369-0.457,3.281-1.368c0.911-0.911,1.367-2.004,1.367-3.279V437.24z"/>
<path fill="#1CADA6" d="M169.542,432.501v21.597h7.928c0.971,0,1.458,0.486,1.458,1.458v2.917c0,0.364-0.137,0.698-0.411,1.001
	c-0.273,0.306-0.623,0.457-1.047,0.457h-7.928v21.505h7.928c0.424,0,0.774,0.151,1.047,0.456c0.273,0.304,0.411,0.637,0.411,1.001
	v2.917c0,0.972-0.487,1.458-1.458,1.458h-10.844c-0.852,0-1.549-0.274-2.095-0.82c-0.547-0.547-0.82-1.244-0.82-2.097v-54.765
	c0-0.789,0.273-1.474,0.82-2.052c0.546-0.575,1.244-0.864,2.095-0.864h10.844c0.424,0,0.774,0.152,1.047,0.455
	c0.273,0.304,0.411,0.639,0.411,1.003v2.915c0,0.974-0.487,1.458-1.458,1.458H169.542z"/>
<path fill="#1CADA6" d="M197.062,426.67c1.458,0,2.809,0.272,4.055,0.819c1.245,0.547,2.354,1.308,3.327,2.278
	c0.971,0.973,1.731,2.097,2.278,3.372c0.546,1.275,0.82,2.643,0.82,4.101v48.569c0,0.972-0.486,1.458-1.458,1.458h-2.917
	c-0.972,0-1.458-0.486-1.458-1.458v-25.972h-9.386v25.972c0,0.972-0.487,1.458-1.458,1.458h-2.916c-0.365,0-0.7-0.137-1.002-0.411
	c-0.305-0.272-0.456-0.622-0.456-1.047V437.24c0-1.458,0.273-2.825,0.82-4.101c0.546-1.275,1.306-2.399,2.277-3.372
	c0.972-0.971,2.097-1.731,3.372-2.278S195.604,426.67,197.062,426.67z M201.709,454.008V437.24c0-1.336-0.456-2.461-1.367-3.372
	c-0.912-0.911-2.005-1.367-3.281-1.367c-1.337,0-2.461,0.456-3.372,1.367s-1.366,2.036-1.366,3.372v16.768H201.709z"/>
<path fill="#1CADA6" d="M227.998,427.125c0.273,0.304,0.41,0.639,0.41,1.003v2.915c0,0.974-0.487,1.458-1.458,1.458h-4.101v53.309
	c0,0.972-0.487,1.458-1.458,1.458h-2.917c-0.973,0-1.458-0.486-1.458-1.458v-53.309h-4.101c-0.973,0-1.459-0.484-1.459-1.458v-2.915
	c0-0.364,0.137-0.699,0.411-1.003c0.273-0.303,0.622-0.455,1.048-0.455h14.033C227.374,426.67,227.724,426.822,227.998,427.125z"/>
<path fill="#1CADA6" d="M239.524,485.81c0,0.972-0.487,1.458-1.458,1.458h-2.917c-0.973,0-1.458-0.486-1.458-1.458v-57.592v-0.09
	c0-0.364,0.136-0.699,0.41-1.003c0.273-0.303,0.623-0.455,1.048-0.455h2.917c0.424,0,0.774,0.152,1.047,0.455
	c0.273,0.304,0.41,0.639,0.41,1.003V485.81z"/>
<path fill="#1CADA6" d="M267.636,427.125c0.273,0.304,0.41,0.639,0.41,1.003v0.09v43.832c0,2.064-0.578,4.009-1.731,5.831
	l-4.921,8.658c-0.305,0.486-0.729,0.729-1.276,0.729h-5.103c-0.547,0-0.972-0.242-1.275-0.729l-4.921-8.658
	c-1.155-1.822-1.731-3.767-1.731-5.831v-43.922c0-0.364,0.136-0.699,0.41-1.003c0.273-0.303,0.623-0.455,1.048-0.455h2.917
	c0.364,0,0.697,0.152,1.002,0.455c0.304,0.304,0.456,0.639,0.456,1.003v43.922c0,0.305,0.015,0.562,0.045,0.774
	c0.03,0.214,0.076,0.441,0.137,0.684l4.465,7.837l4.374-7.837c0.182-0.425,0.273-0.911,0.273-1.458v-43.922
	c0-0.364,0.136-0.699,0.41-1.003c0.273-0.303,0.622-0.455,1.047-0.455h2.917C267.012,426.67,267.362,426.822,267.636,427.125z"/>
<path fill="#1CADA6" d="M281.533,432.501v21.597h7.928c0.971,0,1.457,0.486,1.457,1.458v2.917c0,0.364-0.137,0.698-0.41,1.001
	c-0.273,0.306-0.623,0.457-1.047,0.457h-7.928v21.505h7.928c0.424,0,0.773,0.151,1.047,0.456c0.273,0.304,0.41,0.637,0.41,1.001
	v2.917c0,0.972-0.486,1.458-1.457,1.458h-10.845c-0.852,0-1.549-0.274-2.096-0.82c-0.546-0.547-0.819-1.244-0.819-2.097v-54.765
	c0-0.789,0.273-1.474,0.819-2.052c0.547-0.575,1.244-0.864,2.096-0.864h10.845c0.424,0,0.773,0.152,1.047,0.455
	c0.273,0.304,0.41,0.639,0.41,1.003v2.915c0,0.974-0.486,1.458-1.457,1.458H281.533z"/>
<g>
	<path fill="#1CADA6" d="M389.475,466.331v-3.43c0-1.413-0.505-2.623-1.514-3.632s-2.22-1.514-3.632-1.514
		c-1.413,0-2.623,0.505-3.632,1.514s-1.514,2.219-1.514,3.632v43.887c0,1.413,0.505,2.623,1.514,3.632
		c1.009,1.01,2.219,1.514,3.632,1.514c1.412,0,2.623-0.504,3.632-1.514c1.009-1.009,1.514-2.219,1.514-3.632v-18.866h-3.531
		c-1.077,0-1.614-0.537-1.614-1.614v-3.229c0-1.075,0.537-1.614,1.614-1.614h8.374c1.075,0,1.614,0.539,1.614,1.614v23.709
		c0,1.614-0.303,3.112-0.908,4.49c-0.605,1.379-1.447,2.607-2.522,3.682c-1.076,1.077-2.305,1.917-3.683,2.522
		c-1.379,0.605-2.875,0.908-4.489,0.908s-3.112-0.303-4.49-0.908c-1.379-0.605-2.606-1.445-3.682-2.522
		c-1.077-1.074-1.917-2.303-2.522-3.682c-0.605-1.378-0.908-2.876-0.908-4.49v-43.887c0-1.614,0.303-3.11,0.908-4.49
		c0.605-1.377,1.445-2.605,2.522-3.682c1.075-1.075,2.303-1.917,3.682-2.522c1.378-0.605,2.876-0.908,4.49-0.908
		s3.11,0.303,4.489,0.908c1.378,0.605,2.606,1.447,3.683,2.522c1.075,1.076,1.917,2.305,2.522,3.682
		c0.605,1.38,0.908,2.876,0.908,4.49v3.43c0,1.077-0.539,1.614-1.614,1.614h-3.229C390.012,467.945,389.475,467.408,389.475,466.331
		z"/>
	<path fill="#1CADA6" d="M427.004,476.421c0,3.363-1.178,6.154-3.531,8.373c2.354,2.22,3.531,5.045,3.531,8.476v23.507
		c0,1.077-0.539,1.614-1.614,1.614h-3.229c-1.076,0-1.614-0.537-1.614-1.614V493.27c0-1.479-0.504-2.725-1.514-3.733
		c-1.009-1.009-2.219-1.514-3.632-1.514h-5.146v28.754c0,0.472-0.168,0.857-0.504,1.16c-0.338,0.303-0.706,0.454-1.11,0.454h-3.229
		c-1.076,0-1.614-0.537-1.614-1.614v-62.249c0-0.873,0.303-1.63,0.908-2.271c0.605-0.638,1.378-0.958,2.32-0.958h8.374
		c1.614,0,3.128,0.303,4.54,0.908c1.413,0.605,2.64,1.447,3.683,2.522c1.042,1.076,1.866,2.32,2.472,3.732s0.908,2.926,0.908,4.54
		V476.421z M420.547,463.002c0-1.479-0.504-2.724-1.514-3.732c-1.009-1.009-2.219-1.514-3.632-1.514h-5.146v23.81h5.146
		c1.413,0,2.623-0.504,3.632-1.513c1.01-1.009,1.514-2.22,1.514-3.632V463.002z"/>
	<path fill="#1CADA6" d="M447.082,451.299c1.614,0,3.11,0.303,4.489,0.908c1.378,0.605,2.606,1.447,3.683,2.522
		c1.075,1.076,1.917,2.32,2.522,3.732s0.908,2.926,0.908,4.54v53.774c0,1.077-0.539,1.614-1.614,1.614h-3.229
		c-1.077,0-1.614-0.537-1.614-1.614v-28.754h-10.392v28.754c0,1.077-0.539,1.614-1.614,1.614h-3.229
		c-0.403,0-0.774-0.151-1.109-0.454c-0.338-0.303-0.505-0.688-0.505-1.16v-53.774c0-1.614,0.303-3.128,0.908-4.54
		s1.445-2.656,2.522-3.732c1.075-1.075,2.32-1.917,3.732-2.522S445.467,451.299,447.082,451.299z M452.227,481.565v-18.563
		c0-1.479-0.505-2.724-1.514-3.732s-2.22-1.514-3.632-1.514c-1.48,0-2.724,0.505-3.732,1.514s-1.514,2.254-1.514,3.732v18.563
		H452.227z"/>
	<path fill="#1CADA6" d="M488.9,451.804c0.303,0.337,0.454,0.706,0.454,1.109v23.508c0,2.69-0.792,5.044-2.371,7.062
		c-1.581,2.019-3.582,3.397-6.003,4.137v29.157c0,0.472-0.169,0.857-0.505,1.16c-0.337,0.303-0.706,0.454-1.109,0.454h-3.229
		c-1.076,0-1.614-0.537-1.614-1.614v-29.157c-2.489-0.739-4.524-2.118-6.104-4.137c-1.581-2.018-2.371-4.371-2.371-7.062v-23.508
		c0-0.403,0.151-0.772,0.454-1.109c0.303-0.336,0.688-0.505,1.16-0.505h3.229c0.47,0,0.857,0.169,1.16,0.505
		c0.303,0.337,0.454,0.706,0.454,1.109v23.508c0,1.412,0.504,2.623,1.514,3.632c1.009,1.009,2.252,1.513,3.732,1.513
		c1.412,0,2.623-0.504,3.632-1.513s1.514-2.22,1.514-3.632v-23.508c0-0.403,0.151-0.772,0.454-1.109
		c0.303-0.336,0.688-0.505,1.16-0.505h3.229C488.209,451.299,488.597,451.468,488.9,451.804z"/>
	<path fill="#1CADA6" d="M526.985,466.331v-3.43c0-1.413-0.505-2.623-1.514-3.632s-2.22-1.514-3.632-1.514
		c-1.413,0-2.623,0.505-3.632,1.514c-1.01,1.009-1.514,2.219-1.514,3.632v5.146c0,0.605,0.016,0.976,0.05,1.109
		c0.033,0.136,0.117,0.338,0.253,0.605l14.528,25.626c0.47,0.875,0.84,1.548,1.109,2.018c0.268,0.472,0.454,0.908,0.555,1.312
		c0.102,0.404,0.167,0.825,0.202,1.262c0.033,0.438,0.05,1.026,0.05,1.766v5.044c0,1.614-0.302,3.128-0.907,4.54
		c-0.605,1.413-1.447,2.641-2.522,3.683c-1.077,1.044-2.305,1.866-3.683,2.472c-1.379,0.605-2.875,0.908-4.489,0.908
		s-3.112-0.303-4.49-0.908c-1.379-0.605-2.607-1.428-3.683-2.472c-1.076-1.042-1.916-2.27-2.521-3.683
		c-0.605-1.412-0.908-2.926-0.908-4.54v-3.43c0-0.404,0.151-0.772,0.454-1.11c0.303-0.336,0.688-0.504,1.16-0.504h3.229
		c0.47,0,0.857,0.168,1.16,0.504c0.303,0.338,0.454,0.706,0.454,1.11v3.43c0,1.48,0.504,2.725,1.514,3.733
		c1.009,1.009,2.219,1.513,3.632,1.513c1.412,0,2.623-0.504,3.632-1.513s1.514-2.253,1.514-3.733v-5.044
		c0-0.538-0.018-0.874-0.051-1.009c-0.035-0.135-0.118-0.336-0.252-0.605l-14.528-25.626c-0.472-0.874-0.842-1.547-1.11-2.019
		c-0.27-0.47-0.453-0.907-0.555-1.312c-0.101-0.403-0.169-0.84-0.201-1.312c-0.035-0.47-0.051-1.075-0.051-1.815v-5.146
		c0-1.614,0.303-3.11,0.908-4.49c0.605-1.377,1.445-2.605,2.521-3.682c1.075-1.075,2.304-1.917,3.683-2.522
		c1.378-0.605,2.876-0.908,4.49-0.908s3.11,0.303,4.489,0.908c1.378,0.605,2.605,1.447,3.683,2.522
		c1.075,1.076,1.917,2.305,2.522,3.682c0.605,1.38,0.907,2.876,0.907,4.49v3.43c0,1.077-0.539,1.614-1.613,1.614h-3.229
		C527.522,467.945,526.985,467.408,526.985,466.331z"/>
	<path fill="#1CADA6" d="M547.263,457.756v23.911h8.777c1.075,0,1.614,0.539,1.614,1.614v3.229c0,0.403-0.151,0.773-0.454,1.109
		c-0.303,0.338-0.69,0.505-1.16,0.505h-8.777v23.81h8.777c0.47,0,0.857,0.169,1.16,0.505c0.303,0.337,0.454,0.706,0.454,1.109v3.229
		c0,1.077-0.539,1.614-1.614,1.614h-12.006c-0.942,0-1.715-0.303-2.32-0.908s-0.908-1.378-0.908-2.32v-60.635
		c0-0.873,0.303-1.63,0.908-2.271c0.605-0.638,1.378-0.958,2.32-0.958h12.006c0.47,0,0.857,0.169,1.16,0.505
		c0.303,0.337,0.454,0.706,0.454,1.109v3.229c0,1.076-0.539,1.614-1.614,1.614H547.263z"/>
	<path fill="#1CADA6" d="M577.732,451.299c1.614,0,3.11,0.303,4.489,0.908c1.378,0.605,2.606,1.447,3.683,2.522
		c1.075,1.076,1.917,2.32,2.522,3.732s0.908,2.926,0.908,4.54v53.774c0,1.077-0.539,1.614-1.614,1.614h-3.229
		c-1.077,0-1.614-0.537-1.614-1.614v-28.754h-10.392v28.754c0,1.077-0.539,1.614-1.614,1.614h-3.229
		c-0.403,0-0.774-0.151-1.109-0.454c-0.338-0.303-0.505-0.688-0.505-1.16v-53.774c0-1.614,0.303-3.128,0.908-4.54
		s1.445-2.656,2.522-3.732c1.075-1.075,2.32-1.917,3.732-2.522S576.118,451.299,577.732,451.299z M582.877,481.565v-18.563
		c0-1.479-0.505-2.724-1.514-3.732s-2.22-1.514-3.632-1.514c-1.48,0-2.724,0.505-3.732,1.514s-1.514,2.254-1.514,3.732v18.563
		H582.877z"/>
	<path fill="#1CADA6" d="M397.293,559.967v-3.43c0-1.413-0.505-2.623-1.514-3.632s-2.22-1.514-3.632-1.514
		c-1.413,0-2.623,0.505-3.632,1.514s-1.514,2.219-1.514,3.632v43.887c0,1.413,0.505,2.623,1.514,3.632
		c1.009,1.01,2.219,1.514,3.632,1.514c1.412,0,2.623-0.504,3.632-1.514c1.009-1.009,1.514-2.219,1.514-3.632v-3.732
		c0-1.075,0.548-1.614,1.647-1.614h3.296c1.075,0,1.614,0.539,1.614,1.614v3.732c0,1.614-0.305,3.112-0.911,4.49
		c-0.607,1.379-1.46,2.607-2.557,3.682c-1.1,1.077-2.343,1.917-3.731,2.522s-2.89,0.908-4.504,0.908s-3.128-0.303-4.54-0.908
		c-1.413-0.605-2.641-1.445-3.683-2.522c-1.044-1.074-1.866-2.303-2.472-3.682c-0.605-1.378-0.908-2.876-0.908-4.49v-43.887
		c0-1.614,0.303-3.11,0.908-4.49c0.605-1.377,1.428-2.605,2.472-3.682c1.042-1.075,2.27-1.917,3.683-2.522
		c1.412-0.605,2.926-0.908,4.54-0.908s3.115,0.303,4.504,0.908s2.632,1.447,3.731,2.522c1.097,1.076,1.949,2.305,2.557,3.682
		c0.606,1.38,0.911,2.876,0.911,4.49v3.43c0,1.077-0.539,1.614-1.614,1.614h-3.296C397.841,561.581,397.293,561.044,397.293,559.967
		z"/>
	<path fill="#1CADA6" d="M432.301,570.057c0,3.363-1.178,6.154-3.531,8.373c2.354,2.22,3.531,5.045,3.531,8.476v23.507
		c0,1.077-0.539,1.614-1.614,1.614h-3.229c-1.076,0-1.614-0.537-1.614-1.614v-23.507c0-1.479-0.504-2.725-1.514-3.733
		c-1.009-1.009-2.219-1.514-3.632-1.514h-5.146v28.754c0,0.472-0.168,0.857-0.504,1.16c-0.338,0.303-0.706,0.454-1.11,0.454h-3.229
		c-1.076,0-1.614-0.537-1.614-1.614v-62.249c0-0.873,0.303-1.63,0.908-2.271c0.605-0.638,1.378-0.958,2.32-0.958h8.374
		c1.614,0,3.128,0.303,4.54,0.908c1.413,0.605,2.64,1.447,3.683,2.522c1.042,1.076,1.866,2.32,2.472,3.732s0.908,2.926,0.908,4.54
		V570.057z M425.844,556.638c0-1.479-0.504-2.724-1.514-3.732c-1.009-1.009-2.219-1.514-3.632-1.514h-5.146v23.81h5.146
		c1.413,0,2.623-0.504,3.632-1.513c1.01-1.009,1.514-2.22,1.514-3.632V556.638z"/>
	<path fill="#1CADA6" d="M447.132,551.392v23.911h8.777c1.075,0,1.614,0.539,1.614,1.614v3.229c0,0.403-0.151,0.773-0.454,1.109
		c-0.303,0.338-0.69,0.505-1.16,0.505h-8.777v23.81h8.777c0.47,0,0.857,0.169,1.16,0.505c0.303,0.337,0.454,0.706,0.454,1.109v3.229
		c0,1.077-0.539,1.614-1.614,1.614h-12.006c-0.942,0-1.715-0.303-2.32-0.908s-0.908-1.378-0.908-2.32v-60.635
		c0-0.873,0.303-1.63,0.908-2.271c0.605-0.638,1.378-0.958,2.32-0.958h12.006c0.47,0,0.857,0.169,1.16,0.505
		c0.303,0.337,0.454,0.706,0.454,1.109v3.229c0,1.076-0.539,1.614-1.614,1.614H447.132z"/>
	<path fill="#1CADA6" d="M477.601,544.935c1.614,0,3.11,0.303,4.489,0.908c1.378,0.605,2.606,1.447,3.683,2.522
		c1.075,1.076,1.917,2.32,2.522,3.732s0.908,2.926,0.908,4.54v53.774c0,1.077-0.539,1.614-1.614,1.614h-3.229
		c-1.077,0-1.614-0.537-1.614-1.614v-28.754h-10.392v28.754c0,1.077-0.539,1.614-1.614,1.614h-3.229
		c-0.403,0-0.774-0.151-1.109-0.454c-0.338-0.303-0.505-0.688-0.505-1.16v-53.774c0-1.614,0.303-3.128,0.908-4.54
		s1.445-2.656,2.522-3.732c1.075-1.075,2.32-1.917,3.732-2.522S475.987,544.935,477.601,544.935z M482.747,575.201v-18.563
		c0-1.479-0.505-2.724-1.514-3.732s-2.22-1.514-3.632-1.514c-1.48,0-2.724,0.505-3.732,1.514s-1.514,2.254-1.514,3.732v18.563
		H482.747z"/>
	<path fill="#1CADA6" d="M511.853,545.439c0.303,0.337,0.454,0.706,0.454,1.109v3.229c0,1.076-0.539,1.614-1.614,1.614h-4.54v59.021
		c0,1.077-0.539,1.614-1.614,1.614h-3.229c-1.077,0-1.614-0.537-1.614-1.614v-59.021h-4.54c-1.077,0-1.614-0.538-1.614-1.614v-3.229
		c0-0.403,0.151-0.772,0.454-1.109c0.303-0.336,0.688-0.505,1.16-0.505h15.537C511.163,544.935,511.55,545.104,511.853,545.439z"/>
	<path fill="#1CADA6" d="M524.615,610.412c0,1.077-0.539,1.614-1.614,1.614h-3.229c-1.077,0-1.614-0.537-1.614-1.614v-63.763v-0.101
		c0-0.403,0.151-0.772,0.454-1.109c0.303-0.336,0.688-0.505,1.16-0.505H523c0.47,0,0.857,0.169,1.16,0.505
		c0.303,0.337,0.454,0.706,0.454,1.109V610.412z"/>
	<path fill="#1CADA6" d="M555.738,545.439c0.303,0.337,0.454,0.706,0.454,1.109v0.101v48.528c0,2.287-0.641,4.439-1.917,6.457
		l-5.448,9.585c-0.338,0.539-0.808,0.807-1.412,0.807h-5.65c-0.605,0-1.076-0.268-1.412-0.807l-5.448-9.585
		c-1.278-2.018-1.917-4.17-1.917-6.457v-48.629c0-0.403,0.151-0.772,0.454-1.109c0.303-0.336,0.688-0.505,1.16-0.505h3.229
		c0.403,0,0.772,0.169,1.109,0.505c0.336,0.337,0.505,0.706,0.505,1.109v48.629c0,0.337,0.016,0.623,0.051,0.857
		c0.032,0.236,0.083,0.489,0.151,0.757l4.943,8.677l4.843-8.677c0.201-0.47,0.303-1.009,0.303-1.614v-48.629
		c0-0.403,0.151-0.772,0.454-1.109c0.303-0.336,0.688-0.505,1.16-0.505h3.229C555.047,544.935,555.435,545.104,555.738,545.439z"/>
	<path fill="#1CADA6" d="M571.124,551.392v23.911h8.777c1.075,0,1.614,0.539,1.614,1.614v3.229c0,0.403-0.151,0.773-0.454,1.109
		c-0.303,0.338-0.69,0.505-1.16,0.505h-8.777v23.81h8.777c0.47,0,0.857,0.169,1.16,0.505c0.303,0.337,0.454,0.706,0.454,1.109v3.229
		c0,1.077-0.539,1.614-1.614,1.614h-12.006c-0.942,0-1.715-0.303-2.32-0.908s-0.908-1.378-0.908-2.32v-60.635
		c0-0.873,0.303-1.63,0.908-2.271c0.605-0.638,1.378-0.958,2.32-0.958h12.006c0.47,0,0.857,0.169,1.16,0.505
		c0.303,0.337,0.454,0.706,0.454,1.109v3.229c0,1.076-0.539,1.614-1.614,1.614H571.124z"/>
</g>
<g>
	<path fill="#1CADA6" d="M649.196,150.338v-4.019c0-1.654-0.591-3.072-1.773-4.255c-1.182-1.182-2.6-1.772-4.254-1.772
		c-1.655,0-3.073,0.591-4.255,1.772c-1.182,1.183-1.772,2.601-1.772,4.255v6.027c0,0.709,0.019,1.144,0.059,1.3
		c0.039,0.159,0.137,0.396,0.296,0.71l17.019,30.018c0.55,1.025,0.983,1.813,1.3,2.364c0.313,0.552,0.531,1.063,0.649,1.536
		s0.196,0.966,0.236,1.478c0.039,0.514,0.06,1.202,0.06,2.068v5.909c0,1.891-0.354,3.663-1.063,5.318
		c-0.709,1.654-1.695,3.093-2.955,4.313c-1.261,1.223-2.699,2.187-4.313,2.896c-1.615,0.709-3.368,1.063-5.259,1.063
		c-1.892,0-3.646-0.354-5.26-1.063c-1.615-0.709-3.054-1.673-4.313-2.896c-1.261-1.221-2.245-2.659-2.954-4.313
		c-0.71-1.655-1.064-3.428-1.064-5.318v-4.019c0-0.473,0.178-0.905,0.532-1.3c0.354-0.394,0.807-0.591,1.359-0.591h3.781
		c0.551,0,1.005,0.197,1.359,0.591c0.354,0.395,0.532,0.827,0.532,1.3v4.019c0,1.733,0.591,3.19,1.772,4.372
		c1.182,1.183,2.6,1.773,4.255,1.773c1.654,0,3.072-0.591,4.254-1.773c1.183-1.182,1.773-2.639,1.773-4.372v-5.909
		c0-0.63-0.021-1.023-0.06-1.183c-0.04-0.156-0.139-0.393-0.295-0.709l-17.019-30.018c-0.553-1.023-0.986-1.812-1.3-2.364
		c-0.316-0.55-0.532-1.063-0.65-1.536s-0.197-0.984-0.236-1.536c-0.041-0.551-0.06-1.26-0.06-2.128v-6.027
		c0-1.891,0.354-3.644,1.064-5.259c0.709-1.614,1.693-3.053,2.954-4.313c1.26-1.26,2.698-2.246,4.313-2.955
		c1.614-0.709,3.368-1.063,5.26-1.063c1.891,0,3.644,0.354,5.259,1.063c1.614,0.709,3.053,1.695,4.313,2.955
		c1.26,1.261,2.246,2.699,2.955,4.313c0.709,1.615,1.063,3.368,1.063,5.259v4.019c0,1.261-0.632,1.891-1.891,1.891h-3.782
		C649.826,152.229,649.196,151.599,649.196,150.338z"/>
	<path fill="#1CADA6" d="M672.951,140.292v28.01h10.282c1.259,0,1.891,0.632,1.891,1.891v3.782c0,0.473-0.178,0.906-0.532,1.3
		c-0.354,0.396-0.809,0.591-1.358,0.591h-10.282v27.892h10.282c0.55,0,1.004,0.197,1.358,0.591c0.354,0.395,0.532,0.827,0.532,1.3
		v3.782c0,1.261-0.632,1.891-1.891,1.891h-14.064c-1.104,0-2.009-0.354-2.718-1.063s-1.063-1.614-1.063-2.719v-71.027
		c0-1.023,0.354-1.91,1.063-2.659c0.709-0.748,1.613-1.123,2.718-1.123h14.064c0.55,0,1.004,0.197,1.358,0.591
		c0.354,0.396,0.532,0.827,0.532,1.3v3.782c0,1.261-0.632,1.891-1.891,1.891H672.951z"/>
	<path fill="#1CADA6" d="M708.642,132.729c1.891,0,3.644,0.354,5.259,1.063c1.614,0.709,3.053,1.695,4.314,2.955
		c1.259,1.261,2.245,2.718,2.954,4.372c0.709,1.655,1.063,3.428,1.063,5.318v62.992c0,1.261-0.631,1.891-1.891,1.891h-3.782
		c-1.261,0-1.891-0.63-1.891-1.891v-33.683h-12.173v33.683c0,1.261-0.632,1.891-1.891,1.891h-3.782c-0.473,0-0.907-0.178-1.3-0.532
		c-0.396-0.354-0.591-0.807-0.591-1.358v-62.992c0-1.891,0.354-3.663,1.063-5.318c0.709-1.654,1.693-3.111,2.954-4.372
		c1.26-1.26,2.719-2.246,4.373-2.955S706.751,132.729,708.642,132.729z M714.669,168.184v-21.746c0-1.731-0.591-3.19-1.772-4.373
		c-1.183-1.182-2.601-1.772-4.255-1.772c-1.734,0-3.191,0.591-4.373,1.772c-1.182,1.183-1.772,2.642-1.772,4.373v21.746H714.669z"/>
</g>
<g>
	<path fill="#1CADA6" d="M650.377,273.338v-4.019c0-1.654-0.591-3.072-1.772-4.255c-1.183-1.182-2.601-1.772-4.255-1.772
		s-3.073,0.591-4.255,1.772c-1.182,1.183-1.772,2.601-1.772,4.255v51.41c0,1.654,0.591,3.072,1.772,4.254
		c1.182,1.183,2.601,1.773,4.255,1.773s3.072-0.591,4.255-1.773c1.182-1.182,1.772-2.6,1.772-4.254v-4.373
		c0-1.26,0.643-1.891,1.93-1.891h3.861c1.26,0,1.891,0.631,1.891,1.891v4.373c0,1.891-0.356,3.645-1.067,5.259
		c-0.711,1.616-1.71,3.055-2.995,4.313c-1.287,1.262-2.744,2.246-4.371,2.955s-3.385,1.063-5.275,1.063s-3.664-0.354-5.318-1.063
		s-3.093-1.693-4.313-2.955c-1.223-1.259-2.187-2.697-2.896-4.313c-0.709-1.614-1.063-3.368-1.063-5.259v-51.41
		c0-1.891,0.354-3.644,1.063-5.259c0.709-1.614,1.673-3.053,2.896-4.313c1.221-1.26,2.659-2.246,4.313-2.955
		s3.428-1.063,5.318-1.063s3.648,0.354,5.275,1.063s3.084,1.695,4.371,2.955c1.285,1.261,2.284,2.699,2.995,4.313
		c0.711,1.615,1.067,3.368,1.067,5.259v4.019c0,1.261-0.631,1.891-1.891,1.891h-3.861
		C651.02,275.229,650.377,274.599,650.377,273.338z"/>
	<path fill="#1CADA6" d="M691.386,285.156c0,3.94-1.379,7.209-4.137,9.81c2.758,2.6,4.137,5.908,4.137,9.927v27.537
		c0,1.261-0.632,1.891-1.891,1.891h-3.782c-1.261,0-1.891-0.63-1.891-1.891v-27.537c0-1.732-0.591-3.191-1.772-4.373
		c-1.183-1.182-2.601-1.772-4.255-1.772h-6.027v33.683c0,0.552-0.198,1.004-0.591,1.358c-0.396,0.354-0.827,0.532-1.301,0.532
		h-3.781c-1.262,0-1.892-0.63-1.892-1.891v-72.919c0-1.023,0.355-1.91,1.064-2.659c0.709-0.748,1.613-1.123,2.718-1.123h9.81
		c1.891,0,3.663,0.354,5.318,1.063c1.654,0.709,3.091,1.695,4.313,2.955c1.221,1.261,2.187,2.718,2.896,4.372
		c0.709,1.655,1.063,3.428,1.063,5.318V285.156z M683.823,269.438c0-1.731-0.591-3.19-1.772-4.373
		c-1.183-1.182-2.601-1.772-4.255-1.772h-6.027v27.892h6.027c1.654,0,3.072-0.591,4.255-1.772c1.182-1.183,1.772-2.601,1.772-4.255
		V269.438z"/>
	<path fill="#1CADA6" d="M708.759,263.292v28.01h10.282c1.259,0,1.891,0.632,1.891,1.891v3.782c0,0.473-0.178,0.906-0.532,1.3
		c-0.354,0.396-0.809,0.591-1.358,0.591h-10.282v27.892h10.282c0.55,0,1.004,0.197,1.358,0.591c0.354,0.395,0.532,0.827,0.532,1.3
		v3.782c0,1.261-0.632,1.891-1.891,1.891h-14.064c-1.104,0-2.009-0.354-2.718-1.063s-1.063-1.614-1.063-2.719v-71.027
		c0-1.023,0.354-1.91,1.063-2.659c0.709-0.748,1.613-1.123,2.718-1.123h14.064c0.55,0,1.004,0.197,1.358,0.591
		c0.354,0.396,0.532,0.827,0.532,1.3v3.782c0,1.261-0.632,1.891-1.891,1.891H708.759z"/>
	<path fill="#1CADA6" d="M744.451,255.729c1.891,0,3.644,0.354,5.259,1.063c1.614,0.709,3.053,1.695,4.314,2.955
		c1.259,1.261,2.245,2.718,2.954,4.372c0.709,1.655,1.063,3.428,1.063,5.318v62.992c0,1.261-0.631,1.891-1.891,1.891h-3.782
		c-1.261,0-1.891-0.63-1.891-1.891v-33.683h-12.173v33.683c0,1.261-0.632,1.891-1.891,1.891h-3.782c-0.473,0-0.907-0.178-1.3-0.532
		c-0.396-0.354-0.591-0.807-0.591-1.358v-62.992c0-1.891,0.354-3.663,1.063-5.318c0.709-1.654,1.693-3.111,2.954-4.372
		c1.26-1.26,2.719-2.246,4.373-2.955S742.56,255.729,744.451,255.729z M750.478,291.184v-21.746c0-1.731-0.591-3.19-1.772-4.373
		c-1.183-1.182-2.601-1.772-4.255-1.772c-1.734,0-3.191,0.591-4.373,1.772c-1.182,1.183-1.772,2.642-1.772,4.373v21.746H750.478z"/>
	<path fill="#1CADA6" d="M784.574,256.319c0.354,0.396,0.531,0.827,0.531,1.3v3.782c0,1.261-0.632,1.891-1.891,1.891h-5.318v69.138
		c0,1.261-0.632,1.891-1.891,1.891h-3.782c-1.262,0-1.891-0.63-1.891-1.891v-69.138h-5.318c-1.262,0-1.892-0.63-1.892-1.891v-3.782
		c0-0.473,0.178-0.904,0.532-1.3c0.354-0.394,0.807-0.591,1.359-0.591h18.2C783.764,255.729,784.218,255.926,784.574,256.319z"/>
	<path fill="#1CADA6" d="M799.523,332.43c0,1.261-0.632,1.891-1.891,1.891h-3.782c-1.262,0-1.891-0.63-1.891-1.891v-74.692v-0.118
		c0-0.473,0.177-0.904,0.531-1.3c0.354-0.394,0.808-0.591,1.359-0.591h3.782c0.55,0,1.004,0.197,1.358,0.591
		c0.354,0.396,0.532,0.827,0.532,1.3V332.43z"/>
	<path fill="#1CADA6" d="M835.982,256.319c0.354,0.396,0.531,0.827,0.531,1.3v0.118v56.847c0,2.679-0.75,5.2-2.245,7.563
		l-6.382,11.228c-0.396,0.632-0.945,0.945-1.655,0.945h-6.618c-0.709,0-1.261-0.313-1.654-0.945l-6.382-11.228
		c-1.498-2.363-2.245-4.885-2.245-7.563v-56.965c0-0.473,0.177-0.904,0.531-1.3c0.354-0.394,0.808-0.591,1.359-0.591h3.782
		c0.473,0,0.904,0.197,1.3,0.591c0.394,0.396,0.591,0.827,0.591,1.3v56.965c0,0.395,0.019,0.729,0.059,1.004
		c0.039,0.277,0.099,0.573,0.178,0.887l5.791,10.164l5.673-10.164c0.236-0.551,0.354-1.182,0.354-1.891v-56.965
		c0-0.473,0.177-0.904,0.532-1.3c0.354-0.394,0.807-0.591,1.358-0.591h3.782C835.172,255.729,835.627,255.926,835.982,256.319z"/>
	<path fill="#1CADA6" d="M854.004,263.292v28.01h10.282c1.259,0,1.891,0.632,1.891,1.891v3.782c0,0.473-0.178,0.906-0.532,1.3
		c-0.354,0.396-0.809,0.591-1.358,0.591h-10.282v27.892h10.282c0.55,0,1.004,0.197,1.358,0.591c0.354,0.395,0.532,0.827,0.532,1.3
		v3.782c0,1.261-0.632,1.891-1.891,1.891h-14.064c-1.104,0-2.009-0.354-2.718-1.063s-1.063-1.614-1.063-2.719v-71.027
		c0-1.023,0.354-1.91,1.063-2.659c0.709-0.748,1.613-1.123,2.718-1.123h14.064c0.55,0,1.004,0.197,1.358,0.591
		c0.354,0.396,0.532,0.827,0.532,1.3v3.782c0,1.261-0.632,1.891-1.891,1.891H854.004z"/>
</g>
<g>
	<path fill="#1CADA6" d="M1038.142,28.337v-4.018c0-1.655-0.591-3.073-1.772-4.255c-1.183-1.182-2.601-1.772-4.255-1.772
		s-3.073,0.591-4.255,1.772c-1.182,1.182-1.772,2.6-1.772,4.255v51.41c0,1.654,0.591,3.072,1.772,4.254
		c1.182,1.183,2.601,1.773,4.255,1.773s3.072-0.591,4.255-1.773c1.182-1.182,1.772-2.6,1.772-4.254V53.629h-4.137
		c-1.261,0-1.891-0.63-1.891-1.891v-3.782c0-1.259,0.63-1.891,1.891-1.891h9.81c1.26,0,1.891,0.632,1.891,1.891v27.773
		c0,1.891-0.354,3.645-1.063,5.259c-0.709,1.616-1.695,3.055-2.954,4.313c-1.262,1.262-2.7,2.246-4.314,2.955
		c-1.615,0.709-3.368,1.063-5.259,1.063s-3.646-0.354-5.26-1.063c-1.615-0.709-3.054-1.693-4.313-2.955
		c-1.261-1.259-2.245-2.697-2.954-4.313c-0.709-1.614-1.063-3.368-1.063-5.259v-51.41c0-1.891,0.354-3.644,1.063-5.259
		c0.709-1.614,1.693-3.052,2.954-4.313c1.26-1.26,2.698-2.246,4.313-2.955c1.614-0.709,3.369-1.064,5.26-1.064
		s3.644,0.354,5.259,1.064c1.614,0.709,3.053,1.695,4.314,2.955c1.259,1.261,2.245,2.7,2.954,4.313
		c0.709,1.616,1.063,3.368,1.063,5.259v4.018c0,1.261-0.631,1.891-1.891,1.891h-3.782
		C1038.772,30.229,1038.142,29.599,1038.142,28.337z"/>
	<path fill="#1CADA6" d="M1082.105,40.156c0,3.941-1.379,7.209-4.137,9.81c2.758,2.6,4.137,5.909,4.137,9.927V87.43
		c0,1.261-0.632,1.891-1.891,1.891h-3.782c-1.261,0-1.891-0.63-1.891-1.891V59.893c0-1.732-0.591-3.191-1.772-4.373
		c-1.183-1.182-2.601-1.772-4.255-1.772h-6.027V87.43c0,0.552-0.198,1.004-0.591,1.358c-0.396,0.354-0.827,0.532-1.301,0.532h-3.781
		c-1.262,0-1.892-0.63-1.892-1.891V14.51c0-1.023,0.355-1.91,1.064-2.659c0.709-0.748,1.613-1.123,2.718-1.123h9.81
		c1.891,0,3.663,0.354,5.318,1.064c1.654,0.709,3.091,1.695,4.313,2.955c1.221,1.261,2.187,2.718,2.896,4.373
		c0.709,1.655,1.063,3.427,1.063,5.318V40.156z M1074.542,24.438c0-1.732-0.591-3.191-1.772-4.373
		c-1.183-1.182-2.601-1.772-4.255-1.772h-6.027v27.891h6.027c1.654,0,3.072-0.591,4.255-1.772c1.182-1.182,1.772-2.6,1.772-4.255
		V24.438z"/>
	<path fill="#1CADA6" d="M1105.624,10.728c1.891,0,3.644,0.354,5.259,1.064c1.614,0.709,3.053,1.695,4.314,2.955
		c1.259,1.261,2.245,2.718,2.954,4.373c0.709,1.655,1.063,3.427,1.063,5.318V87.43c0,1.261-0.631,1.891-1.891,1.891h-3.782
		c-1.261,0-1.891-0.63-1.891-1.891V53.747h-12.173V87.43c0,1.261-0.632,1.891-1.891,1.891h-3.782c-0.473,0-0.907-0.178-1.3-0.532
		c-0.396-0.354-0.591-0.807-0.591-1.358V24.438c0-1.891,0.354-3.664,1.063-5.318c0.709-1.654,1.693-3.111,2.954-4.373
		c1.26-1.26,2.719-2.246,4.373-2.955C1101.959,11.083,1103.733,10.728,1105.624,10.728z M1111.651,46.183V24.438
		c0-1.732-0.591-3.191-1.772-4.373c-1.183-1.182-2.601-1.772-4.255-1.772c-1.734,0-3.191,0.591-4.373,1.772
		c-1.182,1.182-1.772,2.641-1.772,4.373v21.746H1111.651z"/>
	<path fill="#1CADA6" d="M1154.61,11.319c0.354,0.396,0.532,0.828,0.532,1.3v27.537c0,3.152-0.927,5.909-2.777,8.273
		c-1.853,2.364-4.195,3.979-7.032,4.846V87.43c0,0.552-0.197,1.004-0.591,1.358c-0.395,0.354-0.827,0.532-1.3,0.532h-3.782
		c-1.261,0-1.891-0.63-1.891-1.891V53.274c-2.916-0.866-5.3-2.482-7.15-4.846c-1.852-2.364-2.777-5.121-2.777-8.273V12.619
		c0-0.473,0.178-0.905,0.532-1.3c0.354-0.393,0.807-0.591,1.359-0.591h3.781c0.551,0,1.005,0.198,1.359,0.591
		c0.354,0.396,0.532,0.828,0.532,1.3v27.537c0,1.655,0.591,3.073,1.772,4.255c1.182,1.182,2.639,1.772,4.373,1.772
		c1.654,0,3.072-0.591,4.254-1.772c1.183-1.182,1.773-2.6,1.773-4.255V12.619c0-0.473,0.177-0.905,0.531-1.3
		c0.354-0.393,0.808-0.591,1.359-0.591h3.782C1153.801,10.728,1154.255,10.926,1154.61,11.319z"/>
</g>
<g>
	<path fill="#1CADA6" d="M1062.251,121.109v-4.019c0-1.654-0.591-3.072-1.773-4.255c-1.182-1.182-2.6-1.772-4.254-1.772
		c-1.655,0-3.073,0.591-4.255,1.772c-1.182,1.183-1.772,2.601-1.772,4.255v6.027c0,0.709,0.019,1.144,0.059,1.3
		c0.039,0.159,0.137,0.396,0.296,0.71l17.019,30.018c0.55,1.025,0.983,1.813,1.3,2.364c0.313,0.552,0.531,1.063,0.649,1.536
		s0.196,0.966,0.236,1.478c0.039,0.514,0.06,1.202,0.06,2.068v5.909c0,1.891-0.354,3.663-1.063,5.318
		c-0.709,1.654-1.695,3.093-2.955,4.313c-1.261,1.223-2.699,2.187-4.313,2.896c-1.615,0.709-3.368,1.063-5.259,1.063
		c-1.892,0-3.646-0.354-5.26-1.063c-1.615-0.709-3.054-1.673-4.313-2.896c-1.261-1.221-2.245-2.659-2.954-4.313
		c-0.71-1.655-1.064-3.428-1.064-5.318v-4.019c0-0.473,0.178-0.905,0.532-1.3c0.354-0.394,0.807-0.591,1.359-0.591h3.781
		c0.551,0,1.005,0.197,1.359,0.591c0.354,0.395,0.532,0.827,0.532,1.3v4.019c0,1.733,0.591,3.19,1.772,4.372
		c1.182,1.183,2.6,1.773,4.255,1.773c1.654,0,3.072-0.591,4.254-1.773c1.183-1.182,1.773-2.639,1.773-4.372v-5.909
		c0-0.63-0.021-1.023-0.06-1.183c-0.04-0.156-0.139-0.393-0.295-0.709l-17.019-30.018c-0.553-1.023-0.986-1.812-1.3-2.364
		c-0.316-0.55-0.532-1.063-0.65-1.536s-0.197-0.984-0.236-1.536c-0.041-0.551-0.06-1.26-0.06-2.128v-6.027
		c0-1.891,0.354-3.644,1.064-5.259c0.709-1.614,1.693-3.053,2.954-4.313c1.26-1.26,2.698-2.246,4.313-2.955
		c1.614-0.709,3.368-1.063,5.26-1.063c1.891,0,3.644,0.354,5.259,1.063c1.614,0.709,3.053,1.695,4.313,2.955
		c1.26,1.261,2.246,2.699,2.955,4.313c0.709,1.615,1.063,3.368,1.063,5.259v4.019c0,1.261-0.632,1.891-1.891,1.891h-3.782
		C1062.881,123,1062.251,122.37,1062.251,121.109z"/>
	<path fill="#1CADA6" d="M1086.006,111.063v28.01h10.282c1.259,0,1.891,0.632,1.891,1.891v3.782c0,0.473-0.178,0.906-0.532,1.3
		c-0.354,0.396-0.809,0.591-1.358,0.591h-10.282v27.892h10.282c0.55,0,1.004,0.197,1.358,0.591c0.354,0.395,0.532,0.827,0.532,1.3
		v3.782c0,1.261-0.632,1.891-1.891,1.891h-14.064c-1.104,0-2.009-0.354-2.718-1.063s-1.063-1.614-1.063-2.719v-71.027
		c0-1.023,0.354-1.91,1.063-2.659c0.709-0.748,1.613-1.123,2.718-1.123h14.064c0.55,0,1.004,0.197,1.358,0.591
		c0.354,0.396,0.532,0.827,0.532,1.3v3.782c0,1.261-0.632,1.891-1.891,1.891H1086.006z"/>
	<path fill="#1CADA6" d="M1121.698,103.5c1.891,0,3.644,0.354,5.259,1.063c1.614,0.709,3.053,1.695,4.314,2.955
		c1.259,1.261,2.245,2.718,2.954,4.372c0.709,1.655,1.063,3.428,1.063,5.318v62.992c0,1.261-0.631,1.891-1.891,1.891h-3.782
		c-1.261,0-1.891-0.63-1.891-1.891v-33.683h-12.173v33.683c0,1.261-0.632,1.891-1.891,1.891h-3.782c-0.473,0-0.907-0.178-1.3-0.532
		c-0.396-0.354-0.591-0.807-0.591-1.358v-62.992c0-1.891,0.354-3.663,1.063-5.318c0.709-1.654,1.693-3.111,2.954-4.372
		c1.26-1.26,2.719-2.246,4.373-2.955S1119.807,103.5,1121.698,103.5z M1127.725,138.955v-21.746c0-1.731-0.591-3.19-1.772-4.373
		c-1.183-1.182-2.601-1.772-4.255-1.772c-1.734,0-3.191,0.591-4.373,1.772c-1.182,1.183-1.772,2.642-1.772,4.373v21.746H1127.725z"
		/>
</g>
<g>
	<path fill="#1CADA6" d="M1038.142,273.338v-4.019c0-1.654-0.591-3.072-1.772-4.255c-1.183-1.182-2.601-1.772-4.255-1.772
		s-3.073,0.591-4.255,1.772c-1.182,1.183-1.772,2.601-1.772,4.255v51.41c0,1.654,0.591,3.072,1.772,4.254
		c1.182,1.183,2.601,1.773,4.255,1.773s3.072-0.591,4.255-1.773c1.182-1.182,1.772-2.6,1.772-4.254v-4.373
		c0-1.26,0.643-1.891,1.93-1.891h3.861c1.26,0,1.891,0.631,1.891,1.891v4.373c0,1.891-0.356,3.645-1.067,5.259
		c-0.711,1.616-1.71,3.055-2.995,4.313c-1.287,1.262-2.744,2.246-4.371,2.955s-3.385,1.063-5.275,1.063s-3.664-0.354-5.318-1.063
		s-3.093-1.693-4.313-2.955c-1.223-1.259-2.187-2.697-2.896-4.313c-0.709-1.614-1.063-3.368-1.063-5.259v-51.41
		c0-1.891,0.354-3.644,1.063-5.259c0.709-1.614,1.673-3.053,2.896-4.313c1.221-1.26,2.659-2.246,4.313-2.955
		s3.428-1.063,5.318-1.063s3.648,0.354,5.275,1.063s3.084,1.695,4.371,2.955c1.285,1.261,2.284,2.699,2.995,4.313
		c0.711,1.615,1.067,3.368,1.067,5.259v4.019c0,1.261-0.631,1.891-1.891,1.891h-3.861
		C1038.785,275.229,1038.142,274.599,1038.142,273.338z"/>
	<path fill="#1CADA6" d="M1079.151,285.156c0,3.94-1.379,7.209-4.137,9.81c2.758,2.6,4.137,5.908,4.137,9.927v27.537
		c0,1.261-0.632,1.891-1.891,1.891h-3.782c-1.261,0-1.891-0.63-1.891-1.891v-27.537c0-1.732-0.591-3.191-1.772-4.373
		c-1.183-1.182-2.601-1.772-4.255-1.772h-6.027v33.683c0,0.552-0.198,1.004-0.591,1.358c-0.396,0.354-0.827,0.532-1.301,0.532
		h-3.781c-1.262,0-1.892-0.63-1.892-1.891v-72.919c0-1.023,0.355-1.91,1.064-2.659c0.709-0.748,1.613-1.123,2.718-1.123h9.81
		c1.891,0,3.663,0.354,5.318,1.063c1.654,0.709,3.091,1.695,4.313,2.955c1.221,1.261,2.187,2.718,2.896,4.372
		c0.709,1.655,1.063,3.428,1.063,5.318V285.156z M1071.587,269.438c0-1.731-0.591-3.19-1.772-4.373
		c-1.183-1.182-2.601-1.772-4.255-1.772h-6.027v27.892h6.027c1.654,0,3.072-0.591,4.255-1.772c1.182-1.183,1.772-2.601,1.772-4.255
		V269.438z"/>
	<path fill="#1CADA6" d="M1096.524,263.292v28.01h10.282c1.259,0,1.891,0.632,1.891,1.891v3.782c0,0.473-0.178,0.906-0.532,1.3
		c-0.354,0.396-0.809,0.591-1.358,0.591h-10.282v27.892h10.282c0.55,0,1.004,0.197,1.358,0.591c0.354,0.395,0.532,0.827,0.532,1.3
		v3.782c0,1.261-0.632,1.891-1.891,1.891h-14.064c-1.104,0-2.009-0.354-2.718-1.063s-1.063-1.614-1.063-2.719v-71.027
		c0-1.023,0.354-1.91,1.063-2.659c0.709-0.748,1.613-1.123,2.718-1.123h14.064c0.55,0,1.004,0.197,1.358,0.591
		c0.354,0.396,0.532,0.827,0.532,1.3v3.782c0,1.261-0.632,1.891-1.891,1.891H1096.524z"/>
	<path fill="#1CADA6" d="M1132.215,255.729c1.891,0,3.644,0.354,5.259,1.063c1.614,0.709,3.053,1.695,4.314,2.955
		c1.259,1.261,2.245,2.718,2.954,4.372c0.709,1.655,1.063,3.428,1.063,5.318v62.992c0,1.261-0.631,1.891-1.891,1.891h-3.782
		c-1.261,0-1.891-0.63-1.891-1.891v-33.683h-12.173v33.683c0,1.261-0.632,1.891-1.891,1.891h-3.782c-0.473,0-0.907-0.178-1.3-0.532
		c-0.396-0.354-0.591-0.807-0.591-1.358v-62.992c0-1.891,0.354-3.663,1.063-5.318c0.709-1.654,1.693-3.111,2.954-4.372
		c1.26-1.26,2.719-2.246,4.373-2.955S1130.325,255.729,1132.215,255.729z M1138.243,291.184v-21.746c0-1.731-0.591-3.19-1.772-4.373
		c-1.183-1.182-2.601-1.772-4.255-1.772c-1.734,0-3.191,0.591-4.373,1.772c-1.182,1.183-1.772,2.642-1.772,4.373v21.746H1138.243z"
		/>
	<path fill="#1CADA6" d="M1172.338,256.319c0.354,0.396,0.531,0.827,0.531,1.3v3.782c0,1.261-0.632,1.891-1.891,1.891h-5.318v69.138
		c0,1.261-0.632,1.891-1.891,1.891h-3.782c-1.262,0-1.891-0.63-1.891-1.891v-69.138h-5.318c-1.262,0-1.892-0.63-1.892-1.891v-3.782
		c0-0.473,0.178-0.904,0.532-1.3c0.354-0.394,0.807-0.591,1.359-0.591h18.2C1171.529,255.729,1171.983,255.926,1172.338,256.319z"/>
	<path fill="#1CADA6" d="M1187.288,332.43c0,1.261-0.632,1.891-1.891,1.891h-3.782c-1.262,0-1.891-0.63-1.891-1.891v-74.692v-0.118
		c0-0.473,0.177-0.904,0.531-1.3c0.354-0.394,0.808-0.591,1.359-0.591h3.782c0.55,0,1.004,0.197,1.358,0.591
		c0.354,0.396,0.532,0.827,0.532,1.3V332.43z"/>
	<path fill="#1CADA6" d="M1223.747,256.319c0.354,0.396,0.531,0.827,0.531,1.3v0.118v56.847c0,2.679-0.75,5.2-2.245,7.563
		l-6.382,11.228c-0.396,0.632-0.945,0.945-1.655,0.945h-6.618c-0.709,0-1.261-0.313-1.654-0.945l-6.382-11.228
		c-1.498-2.363-2.245-4.885-2.245-7.563v-56.965c0-0.473,0.177-0.904,0.531-1.3c0.354-0.394,0.808-0.591,1.359-0.591h3.782
		c0.473,0,0.904,0.197,1.3,0.591c0.394,0.396,0.591,0.827,0.591,1.3v56.965c0,0.395,0.019,0.729,0.059,1.004
		c0.039,0.277,0.099,0.573,0.178,0.887l5.791,10.164l5.673-10.164c0.236-0.551,0.354-1.182,0.354-1.891v-56.965
		c0-0.473,0.177-0.904,0.532-1.3c0.354-0.394,0.807-0.591,1.358-0.591h3.782C1222.937,255.729,1223.392,255.926,1223.747,256.319z"
		/>
	<path fill="#1CADA6" d="M1241.769,263.292v28.01h10.282c1.259,0,1.891,0.632,1.891,1.891v3.782c0,0.473-0.178,0.906-0.532,1.3
		c-0.354,0.396-0.809,0.591-1.358,0.591h-10.282v27.892h10.282c0.55,0,1.004,0.197,1.358,0.591c0.354,0.395,0.532,0.827,0.532,1.3
		v3.782c0,1.261-0.632,1.891-1.891,1.891h-14.064c-1.104,0-2.009-0.354-2.718-1.063s-1.063-1.614-1.063-2.719v-71.027
		c0-1.023,0.354-1.91,1.063-2.659c0.709-0.748,1.613-1.123,2.718-1.123h14.064c0.55,0,1.004,0.197,1.358,0.591
		c0.354,0.396,0.532,0.827,0.532,1.3v3.782c0,1.261-0.632,1.891-1.891,1.891H1241.769z"/>
</g>
<g>
	<path fill="#1CADA6" d="M-422.574-148.299v-3.876c0-1.596-0.57-2.964-1.71-4.104s-2.508-1.71-4.104-1.71
		c-1.596,0-2.964,0.57-4.104,1.71s-1.71,2.508-1.71,4.104v49.592c0,1.596,0.57,2.964,1.71,4.104c1.14,1.141,2.508,1.711,4.104,1.711
		c1.596,0,2.964-0.57,4.104-1.711c1.14-1.14,1.71-2.508,1.71-4.104v-21.319h-3.99c-1.216,0-1.824-0.607-1.824-1.823v-3.649
		c0-1.215,0.608-1.824,1.824-1.824h9.462c1.215,0,1.824,0.609,1.824,1.824v26.792c0,1.824-0.342,3.516-1.026,5.073
		c-0.684,1.559-1.635,2.946-2.85,4.161c-1.217,1.217-2.604,2.166-4.162,2.85c-1.559,0.685-3.249,1.026-5.073,1.026
		c-1.824,0-3.516-0.342-5.073-1.026c-1.559-0.684-2.947-1.633-4.162-2.85c-1.216-1.215-2.166-2.603-2.85-4.161
		c-0.684-1.558-1.026-3.249-1.026-5.073v-49.592c0-1.824,0.342-3.515,1.026-5.073c0.684-1.557,1.634-2.945,2.85-4.162
		c1.215-1.215,2.603-2.166,4.162-2.85c1.557-0.684,3.249-1.026,5.073-1.026c1.824,0,3.515,0.342,5.073,1.026
		c1.557,0.684,2.945,1.635,4.162,2.85c1.215,1.217,2.166,2.604,2.85,4.162c0.684,1.559,1.026,3.249,1.026,5.073v3.876
		c0,1.217-0.609,1.824-1.824,1.824h-3.648C-421.967-146.475-422.574-147.083-422.574-148.299z"/>
	<path fill="#1CADA6" d="M-380.166-136.899c0,3.801-1.331,6.955-3.99,9.462c2.659,2.508,3.99,5.7,3.99,9.576v26.563
		c0,1.217-0.609,1.824-1.824,1.824h-3.648c-1.216,0-1.824-0.607-1.824-1.824v-26.563c0-1.671-0.57-3.078-1.71-4.218
		c-1.14-1.14-2.508-1.71-4.104-1.71h-5.814v32.491c0,0.533-0.19,0.969-0.57,1.312c-0.381,0.342-0.798,0.513-1.254,0.513h-3.648
		c-1.216,0-1.824-0.607-1.824-1.824v-70.341c0-0.987,0.342-1.842,1.026-2.565c0.684-0.721,1.557-1.083,2.622-1.083h9.462
		c1.824,0,3.534,0.342,5.13,1.026c1.596,0.684,2.982,1.635,4.161,2.85c1.177,1.217,2.109,2.623,2.793,4.218
		c0.684,1.596,1.026,3.306,1.026,5.13V-136.899z M-387.462-152.062c0-1.671-0.57-3.078-1.71-4.218c-1.14-1.14-2.508-1.71-4.104-1.71
		h-5.814v26.905h5.814c1.596,0,2.964-0.57,4.104-1.71c1.14-1.14,1.71-2.508,1.71-4.104V-152.062z"/>
	<path fill="#1CADA6" d="M-357.479-165.286c1.824,0,3.515,0.342,5.073,1.026c1.557,0.684,2.944,1.635,4.161,2.85
		c1.215,1.217,2.166,2.623,2.85,4.218c0.684,1.596,1.026,3.306,1.026,5.13v60.765c0,1.217-0.609,1.824-1.824,1.824h-3.648
		c-1.216,0-1.824-0.607-1.824-1.824v-32.491h-11.743v32.491c0,1.217-0.609,1.824-1.824,1.824h-3.648
		c-0.456,0-0.875-0.171-1.254-0.513c-0.381-0.343-0.57-0.778-0.57-1.312v-60.765c0-1.824,0.342-3.534,1.026-5.13
		c0.684-1.596,1.634-3.001,2.85-4.218c1.215-1.215,2.623-2.166,4.218-2.85C-361.013-164.944-359.303-165.286-357.479-165.286z
		 M-351.664-131.084v-20.977c0-1.671-0.57-3.078-1.71-4.218c-1.14-1.14-2.508-1.71-4.104-1.71c-1.673,0-3.078,0.57-4.218,1.71
		s-1.71,2.547-1.71,4.218v20.977H-351.664z"/>
	<path fill="#1CADA6" d="M-315.981-148.299v-3.876c0-1.596-0.57-2.964-1.71-4.104s-2.508-1.71-4.104-1.71
		c-1.596,0-2.964,0.57-4.104,1.71s-1.71,2.508-1.71,4.104v49.592c0,1.596,0.57,2.964,1.71,4.104c1.14,1.141,2.508,1.711,4.104,1.711
		c1.596,0,2.964-0.57,4.104-1.711c1.14-1.14,1.71-2.508,1.71-4.104v-4.219c0-1.215,0.62-1.824,1.861-1.824h3.725
		c1.215,0,1.824,0.609,1.824,1.824v4.219c0,1.824-0.344,3.516-1.029,5.073c-0.686,1.559-1.649,2.946-2.889,4.161
		c-1.242,1.217-2.647,2.166-4.217,2.85c-1.569,0.685-3.265,1.026-5.089,1.026c-1.824,0-3.534-0.342-5.13-1.026
		c-1.596-0.684-2.984-1.633-4.161-2.85c-1.179-1.215-2.109-2.603-2.793-4.161c-0.684-1.558-1.026-3.249-1.026-5.073v-49.592
		c0-1.824,0.342-3.515,1.026-5.073c0.684-1.557,1.614-2.945,2.793-4.162c1.177-1.215,2.565-2.166,4.161-2.85
		c1.596-0.684,3.306-1.026,5.13-1.026c1.824,0,3.52,0.342,5.089,1.026c1.569,0.684,2.975,1.635,4.217,2.85
		c1.24,1.217,2.203,2.604,2.889,4.162c0.686,1.559,1.029,3.249,1.029,5.073v3.876c0,1.217-0.609,1.824-1.824,1.824h-3.725
		C-315.361-146.475-315.981-147.083-315.981-148.299z"/>
	<path fill="#1CADA6" d="M-293.067-157.99v27.019h9.918c1.215,0,1.824,0.609,1.824,1.824v3.648c0,0.456-0.171,0.874-0.513,1.254
		c-0.342,0.381-0.78,0.57-1.311,0.57h-9.918v26.905h9.918c0.531,0,0.969,0.19,1.311,0.569c0.342,0.382,0.513,0.798,0.513,1.254
		v3.648c0,1.217-0.609,1.824-1.824,1.824h-13.567c-1.065,0-1.938-0.342-2.622-1.026c-0.684-0.684-1.026-1.557-1.026-2.622v-68.517
		c0-0.987,0.342-1.842,1.026-2.565c0.684-0.721,1.557-1.083,2.622-1.083h13.567c0.531,0,0.969,0.19,1.311,0.57
		c0.342,0.381,0.513,0.798,0.513,1.254v3.648c0,1.217-0.609,1.824-1.824,1.824H-293.067z"/>
	<path fill="#1CADA6" d="M-247.18-164.716c0.342,0.381,0.513,0.798,0.513,1.254v26.563c0,3.041-0.895,5.7-2.679,7.98
		c-1.787,2.28-4.047,3.838-6.783,4.674v32.947c0,0.533-0.191,0.969-0.57,1.312c-0.381,0.342-0.798,0.513-1.254,0.513h-3.648
		c-1.216,0-1.824-0.607-1.824-1.824v-32.947c-2.813-0.836-5.113-2.394-6.897-4.674c-1.787-2.28-2.679-4.939-2.679-7.98v-26.563
		c0-0.456,0.171-0.873,0.513-1.254c0.342-0.379,0.778-0.57,1.311-0.57h3.648c0.531,0,0.969,0.19,1.311,0.57
		c0.342,0.381,0.513,0.798,0.513,1.254v26.563c0,1.596,0.57,2.964,1.71,4.104c1.14,1.14,2.546,1.71,4.218,1.71
		c1.596,0,2.964-0.57,4.104-1.71c1.14-1.14,1.71-2.508,1.71-4.104v-26.563c0-0.456,0.171-0.873,0.513-1.254
		c0.342-0.379,0.779-0.57,1.311-0.57h3.648C-247.96-165.286-247.522-165.096-247.18-164.716z"/>
	<path fill="#1CADA6" d="M-189.78-165.286c1.824,0,3.534,0.342,5.13,1.026c1.596,0.684,3.001,1.635,4.218,2.85
		c1.215,1.217,2.166,2.623,2.85,4.218c0.684,1.596,1.026,3.306,1.026,5.13v60.765c0,0.533-0.19,0.969-0.57,1.312
		c-0.381,0.342-0.798,0.513-1.254,0.513h-3.648c-1.217,0-1.824-0.607-1.824-1.824v-60.765c0-1.671-0.57-3.078-1.71-4.218
		s-2.547-1.71-4.218-1.71c-1.596,0-2.964,0.57-4.104,1.71s-1.71,2.547-1.71,4.218v60.765c0,1.217-0.609,1.824-1.824,1.824h-3.648
		c-1.216,0-1.824-0.607-1.824-1.824v-60.765c0-1.671-0.57-3.078-1.71-4.218c-1.14-1.14-2.508-1.71-4.104-1.71
		c-1.673,0-3.078,0.57-4.218,1.71s-1.71,2.547-1.71,4.218v60.765c0,1.217-0.609,1.824-1.824,1.824h-3.648
		c-0.456,0-0.875-0.171-1.254-0.513c-0.381-0.343-0.57-0.778-0.57-1.312v-60.765c0-1.824,0.342-3.534,1.026-5.13
		c0.684-1.596,1.634-3.001,2.85-4.218c1.215-1.215,2.623-2.166,4.218-2.85c1.596-0.684,3.306-1.026,5.13-1.026
		s3.552,0.362,5.187,1.083c1.634,0.723,3.059,1.73,4.275,3.021c1.215-1.291,2.64-2.298,4.275-3.021
		C-193.333-164.924-191.604-165.286-189.78-165.286z"/>
	<path fill="#1CADA6" d="M-153.87-165.286c1.824,0,3.515,0.342,5.073,1.026c1.557,0.684,2.944,1.635,4.161,2.85
		c1.215,1.217,2.166,2.623,2.85,4.218c0.684,1.596,1.026,3.306,1.026,5.13v49.479c0,1.824-0.342,3.534-1.026,5.13
		s-1.635,2.983-2.85,4.161c-1.217,1.18-2.604,2.109-4.161,2.793c-1.559,0.685-3.249,1.026-5.073,1.026s-3.534-0.342-5.13-1.026
		c-1.596-0.684-3.003-1.613-4.218-2.793c-1.216-1.178-2.166-2.565-2.85-4.161s-1.026-3.306-1.026-5.13v-49.479
		c0-1.824,0.342-3.534,1.026-5.13c0.684-1.596,1.634-3.001,2.85-4.218c1.215-1.215,2.623-2.166,4.218-2.85
		C-157.404-164.944-155.694-165.286-153.87-165.286z M-148.055-152.062c0-1.671-0.57-3.078-1.71-4.218
		c-1.14-1.14-2.508-1.71-4.104-1.71c-1.673,0-3.078,0.57-4.218,1.71s-1.71,2.547-1.71,4.218v49.479c0,1.596,0.57,2.964,1.71,4.104
		c1.14,1.141,2.545,1.711,4.218,1.711c1.596,0,2.964-0.57,4.104-1.711c1.14-1.14,1.71-2.508,1.71-4.104V-152.062z"/>
	<path fill="#1CADA6" d="M-105.646-136.899c0,3.801-1.331,6.955-3.99,9.462c2.659,2.508,3.99,5.7,3.99,9.576v26.563
		c0,1.217-0.609,1.824-1.824,1.824h-3.648c-1.216,0-1.824-0.607-1.824-1.824v-26.563c0-1.671-0.57-3.078-1.71-4.218
		c-1.14-1.14-2.508-1.71-4.104-1.71h-5.814v32.491c0,0.533-0.19,0.969-0.57,1.312c-0.381,0.342-0.798,0.513-1.254,0.513h-3.648
		c-1.216,0-1.824-0.607-1.824-1.824v-70.341c0-0.987,0.342-1.842,1.026-2.565c0.684-0.721,1.557-1.083,2.622-1.083h9.462
		c1.824,0,3.534,0.342,5.13,1.026c1.596,0.684,2.982,1.635,4.161,2.85c1.177,1.217,2.109,2.623,2.793,4.218
		c0.684,1.596,1.026,3.306,1.026,5.13V-136.899z M-112.942-152.062c0-1.671-0.57-3.078-1.71-4.218c-1.14-1.14-2.508-1.71-4.104-1.71
		h-5.814v26.905h5.814c1.596,0,2.964-0.57,4.104-1.71c1.14-1.14,1.71-2.508,1.71-4.104V-152.062z"/>
	<path fill="#1CADA6" d="M-80.052-164.716c0.342,0.381,0.513,0.798,0.513,1.254v3.648c0,1.217-0.609,1.824-1.824,1.824h-5.13v66.693
		c0,1.217-0.609,1.824-1.824,1.824h-3.648c-1.216,0-1.824-0.607-1.824-1.824v-66.693h-5.13c-1.217,0-1.824-0.607-1.824-1.824v-3.648
		c0-0.456,0.171-0.873,0.513-1.254c0.342-0.379,0.778-0.57,1.311-0.57h17.557C-80.832-165.286-80.394-165.096-80.052-164.716z"/>
	<path fill="#1CADA6" d="M-61.413-165.286c1.824,0,3.515,0.342,5.073,1.026c1.557,0.684,2.944,1.635,4.161,2.85
		c1.215,1.217,2.166,2.623,2.85,4.218c0.684,1.596,1.026,3.306,1.026,5.13v49.479c0,1.824-0.342,3.534-1.026,5.13
		s-1.635,2.983-2.85,4.161c-1.217,1.18-2.604,2.109-4.161,2.793c-1.559,0.685-3.249,1.026-5.073,1.026s-3.534-0.342-5.13-1.026
		c-1.596-0.684-3.003-1.613-4.218-2.793c-1.216-1.178-2.166-2.565-2.85-4.161s-1.026-3.306-1.026-5.13v-49.479
		c0-1.824,0.342-3.534,1.026-5.13c0.684-1.596,1.634-3.001,2.85-4.218c1.215-1.215,2.623-2.166,4.218-2.85
		C-64.947-164.944-63.237-165.286-61.413-165.286z M-55.598-152.062c0-1.671-0.57-3.078-1.71-4.218
		c-1.14-1.14-2.508-1.71-4.104-1.71c-1.673,0-3.078,0.57-4.218,1.71s-1.71,2.547-1.71,4.218v49.479c0,1.596,0.57,2.964,1.71,4.104
		c1.14,1.141,2.545,1.711,4.218,1.711c1.596,0,2.964-0.57,4.104-1.711c1.14-1.14,1.71-2.508,1.71-4.104V-152.062z"/>
	<path fill="#1CADA6" d="M-25.615-165.286c1.824,0,3.515,0.342,5.073,1.026c1.557,0.684,2.944,1.635,4.161,2.85
		c1.215,1.217,2.166,2.623,2.85,4.218c0.684,1.596,1.026,3.306,1.026,5.13v60.765c0,1.217-0.609,1.824-1.824,1.824h-3.648
		c-1.216,0-1.824-0.607-1.824-1.824v-60.765c0-1.671-0.57-3.078-1.71-4.218c-1.14-1.14-2.508-1.71-4.104-1.71
		c-1.673,0-3.078,0.57-4.218,1.71s-1.71,2.547-1.71,4.218v60.765c0,1.217-0.609,1.824-1.824,1.824h-3.648
		c-1.217,0-1.824-0.607-1.824-1.824v-60.765c0-1.824,0.342-3.534,1.026-5.13c0.684-1.596,1.634-3.001,2.85-4.218
		c1.215-1.215,2.623-2.166,4.218-2.85C-29.149-164.944-27.439-165.286-25.615-165.286z"/>
</g>
<g>
	<path fill="#1CADA6" d="M-429.648-310.778c1.824,0,3.515,0.342,5.073,1.025c1.557,0.685,2.945,1.636,4.162,2.851
		c1.215,1.217,2.166,2.622,2.85,4.218c0.684,1.597,1.026,3.307,1.026,5.131v15.162c0,1.824-0.342,3.534-1.026,5.131
		c-0.684,1.596-1.635,2.983-2.85,4.161c-1.217,1.179-2.604,2.109-4.162,2.793c-1.559,0.685-3.249,1.026-5.073,1.026h-5.928v32.491
		c0,0.533-0.171,0.969-0.513,1.312c-0.342,0.342-0.741,0.513-1.197,0.513h-3.648c-1.217,0-1.824-0.607-1.824-1.824v-32.491v-7.297
		v-32.264v-0.113c0-0.456,0.171-0.873,0.513-1.255c0.342-0.379,0.778-0.569,1.311-0.569H-429.648z M-423.833-297.554
		c0-1.671-0.57-3.078-1.71-4.219c-1.14-1.14-2.508-1.71-4.104-1.71h-5.928v26.905h5.928c1.596,0,2.964-0.57,4.104-1.71
		s1.71-2.508,1.71-4.104V-297.554z"/>
	<path fill="#1CADA6" d="M-396.13-310.778c1.824,0,3.515,0.342,5.073,1.025c1.557,0.685,2.944,1.636,4.161,2.851
		c1.215,1.217,2.166,2.622,2.85,4.218c0.684,1.597,1.026,3.307,1.026,5.131v49.479c0,1.824-0.342,3.534-1.026,5.13
		s-1.635,2.983-2.85,4.161c-1.217,1.18-2.604,2.109-4.161,2.793c-1.559,0.685-3.249,1.026-5.073,1.026s-3.534-0.342-5.13-1.026
		c-1.596-0.684-3.003-1.613-4.218-2.793c-1.216-1.178-2.166-2.565-2.85-4.161s-1.026-3.306-1.026-5.13v-49.479
		c0-1.824,0.342-3.534,1.026-5.131c0.684-1.596,1.634-3.001,2.85-4.218c1.215-1.215,2.623-2.166,4.218-2.851
		C-399.665-310.437-397.955-310.778-396.13-310.778z M-390.316-297.554c0-1.671-0.57-3.078-1.71-4.219
		c-1.14-1.14-2.508-1.71-4.104-1.71c-1.673,0-3.078,0.57-4.218,1.71c-1.14,1.141-1.71,2.548-1.71,4.219v49.479
		c0,1.596,0.57,2.964,1.71,4.104c1.14,1.141,2.545,1.711,4.218,1.711c1.596,0,2.964-0.57,4.104-1.711
		c1.14-1.14,1.71-2.508,1.71-4.104V-297.554z"/>
	<path fill="#1CADA6" d="M-347.906-282.392c0,3.802-1.331,6.955-3.99,9.463c2.659,2.508,3.99,5.7,3.99,9.576v26.563
		c0,1.217-0.609,1.824-1.824,1.824h-3.648c-1.216,0-1.824-0.607-1.824-1.824v-26.563c0-1.671-0.57-3.078-1.71-4.218
		c-1.14-1.14-2.508-1.71-4.104-1.71h-5.814v32.491c0,0.533-0.19,0.969-0.57,1.312c-0.381,0.342-0.798,0.513-1.254,0.513h-3.648
		c-1.216,0-1.824-0.607-1.824-1.824v-70.341c0-0.987,0.342-1.843,1.026-2.565c0.684-0.722,1.557-1.083,2.622-1.083h9.462
		c1.824,0,3.534,0.342,5.13,1.025c1.596,0.685,2.982,1.636,4.161,2.851c1.177,1.217,2.109,2.622,2.793,4.218
		c0.684,1.597,1.026,3.307,1.026,5.131V-282.392z M-355.203-297.554c0-1.671-0.57-3.078-1.71-4.219
		c-1.14-1.14-2.508-1.71-4.104-1.71h-5.814v26.905h5.814c1.596,0,2.964-0.57,4.104-1.71c1.14-1.14,1.71-2.508,1.71-4.104V-297.554z"
		/>
	<path fill="#1CADA6" d="M-322.312-310.209c0.342,0.382,0.513,0.799,0.513,1.255v3.647c0,1.217-0.609,1.824-1.824,1.824h-5.13
		v66.693c0,1.217-0.609,1.824-1.824,1.824h-3.648c-1.216,0-1.824-0.607-1.824-1.824v-66.693h-5.13c-1.217,0-1.824-0.607-1.824-1.824
		v-3.647c0-0.456,0.171-0.873,0.513-1.255c0.342-0.379,0.778-0.569,1.311-0.569h17.557
		C-323.093-310.778-322.654-310.588-322.312-310.209z"/>
	<path fill="#1CADA6" d="M-306.182-303.482v27.02h9.918c1.215,0,1.824,0.609,1.824,1.824v3.648c0,0.456-0.171,0.874-0.513,1.254
		c-0.342,0.381-0.78,0.57-1.311,0.57h-9.918v32.377c0,1.217-0.609,1.824-1.824,1.824h-3.648c-1.217,0-1.824-0.607-1.824-1.824
		v-70.341c0-0.987,0.36-1.843,1.083-2.565c0.722-0.722,1.577-1.083,2.565-1.083h13.567c0.531,0,0.969,0.19,1.311,0.569
		c0.342,0.382,0.513,0.799,0.513,1.255v3.647c0,1.217-0.609,1.824-1.824,1.824H-306.182z"/>
	<path fill="#1CADA6" d="M-271.752-310.778c1.824,0,3.515,0.342,5.073,1.025c1.557,0.685,2.944,1.636,4.161,2.851
		c1.215,1.217,2.166,2.622,2.85,4.218c0.684,1.597,1.026,3.307,1.026,5.131v49.479c0,1.824-0.342,3.534-1.026,5.13
		s-1.635,2.983-2.85,4.161c-1.217,1.18-2.604,2.109-4.161,2.793c-1.559,0.685-3.249,1.026-5.073,1.026s-3.534-0.342-5.13-1.026
		c-1.596-0.684-3.003-1.613-4.218-2.793c-1.216-1.178-2.166-2.565-2.85-4.161s-1.026-3.306-1.026-5.13v-49.479
		c0-1.824,0.342-3.534,1.026-5.131c0.684-1.596,1.634-3.001,2.85-4.218c1.215-1.215,2.623-2.166,4.218-2.851
		C-275.286-310.437-273.576-310.778-271.752-310.778z M-265.938-297.554c0-1.671-0.57-3.078-1.71-4.219
		c-1.14-1.14-2.508-1.71-4.104-1.71c-1.673,0-3.078,0.57-4.218,1.71c-1.14,1.141-1.71,2.548-1.71,4.219v49.479
		c0,1.596,0.57,2.964,1.71,4.104c1.14,1.141,2.545,1.711,4.218,1.711c1.596,0,2.964-0.57,4.104-1.711
		c1.14-1.14,1.71-2.508,1.71-4.104V-297.554z"/>
	<path fill="#1CADA6" d="M-230.768-241.691c0.342,0.382,0.513,0.798,0.513,1.254v3.648c0,1.217-0.609,1.824-1.824,1.824h-13.453
		c-1.065,0-1.938-0.342-2.622-1.026c-0.684-0.684-1.026-1.557-1.026-2.622v-70.341c0-0.456,0.171-0.873,0.513-1.255
		c0.342-0.379,0.778-0.569,1.311-0.569h3.648c0.456,0,0.873,0.19,1.254,0.569c0.38,0.382,0.57,0.799,0.57,1.255v66.693h9.804
		C-231.548-242.261-231.11-242.07-230.768-241.691z"/>
	<path fill="#1CADA6" d="M-214.636-236.789c0,1.217-0.609,1.824-1.824,1.824h-3.648c-1.217,0-1.824-0.607-1.824-1.824v-72.052
		v-0.113c0-0.456,0.171-0.873,0.513-1.255c0.342-0.379,0.778-0.569,1.311-0.569h3.648c0.531,0,0.969,0.19,1.311,0.569
		c0.342,0.382,0.513,0.799,0.513,1.255V-236.789z"/>
	<path fill="#1CADA6" d="M-191.951-310.778c1.824,0,3.515,0.342,5.073,1.025c1.557,0.685,2.944,1.636,4.161,2.851
		c1.215,1.217,2.166,2.622,2.85,4.218c0.684,1.597,1.026,3.307,1.026,5.131v49.479c0,1.824-0.342,3.534-1.026,5.13
		s-1.635,2.983-2.85,4.161c-1.217,1.18-2.604,2.109-4.161,2.793c-1.559,0.685-3.249,1.026-5.073,1.026s-3.534-0.342-5.13-1.026
		c-1.596-0.684-3.003-1.613-4.218-2.793c-1.216-1.178-2.166-2.565-2.85-4.161s-1.026-3.306-1.026-5.13v-49.479
		c0-1.824,0.342-3.534,1.026-5.131c0.684-1.596,1.634-3.001,2.85-4.218c1.215-1.215,2.623-2.166,4.218-2.851
		C-195.485-310.437-193.775-310.778-191.951-310.778z M-186.136-297.554c0-1.671-0.57-3.078-1.71-4.219
		c-1.14-1.14-2.508-1.71-4.104-1.71c-1.673,0-3.078,0.57-4.218,1.71c-1.14,1.141-1.71,2.548-1.71,4.219v49.479
		c0,1.596,0.57,2.964,1.71,4.104c1.14,1.141,2.545,1.711,4.218,1.711c1.596,0,2.964-0.57,4.104-1.711
		c1.14-1.14,1.71-2.508,1.71-4.104V-297.554z"/>
</g>
<text transform="matrix(1 0 0 1 -442.771 -419.9644)" fill="#1CADA6" font-family="'Blanch-Condensed'" font-size="114.0052">portfolio</text>
</svg>
