<?xml version="1.0" encoding="utf-8"?>
<!-- Generator: Adobe Illustrator 16.0.0, SVG Export Plug-In . SVG Version: 6.00 Build 0)  -->
<!DOCTYPE svg PUBLIC "-//W3C//DTD SVG 1.1//EN" "http://www.w3.org/Graphics/SVG/1.1/DTD/svg11.dtd">
<svg version="1.1" id="Layer_1" xmlns="http://www.w3.org/2000/svg" xmlns:xlink="http://www.w3.org/1999/xlink" x="0px" y="0px"
	 width="233.334px" height="181.333px" viewBox="364.669 440.251 233.334 181.333"
	 enable-background="new 364.669 440.251 233.334 181.333" xml:space="preserve">
<g>
	<path fill="#1CADA6" d="M389.475,466.331v-3.43c0-1.413-0.505-2.623-1.514-3.632s-2.22-1.514-3.632-1.514
		c-1.413,0-2.623,0.505-3.632,1.514s-1.514,2.219-1.514,3.632v43.887c0,1.413,0.505,2.623,1.514,3.632
		c1.009,1.01,2.219,1.514,3.632,1.514c1.412,0,2.623-0.504,3.632-1.514c1.009-1.009,1.514-2.219,1.514-3.632v-18.866h-3.531
		c-1.077,0-1.614-0.537-1.614-1.614v-3.229c0-1.075,0.537-1.614,1.614-1.614h8.374c1.075,0,1.614,0.539,1.614,1.614v23.709
		c0,1.614-0.303,3.112-0.908,4.49c-0.605,1.379-1.447,2.607-2.522,3.682c-1.076,1.077-2.305,1.917-3.683,2.522
		c-1.379,0.605-2.875,0.908-4.489,0.908s-3.112-0.303-4.49-0.908c-1.379-0.605-2.606-1.445-3.682-2.522
		c-1.077-1.074-1.917-2.303-2.522-3.682c-0.605-1.378-0.908-2.876-0.908-4.49v-43.887c0-1.614,0.303-3.11,0.908-4.49
		c0.605-1.377,1.445-2.605,2.522-3.682c1.075-1.075,2.303-1.917,3.682-2.522c1.378-0.605,2.876-0.908,4.49-0.908
		s3.11,0.303,4.489,0.908c1.378,0.605,2.606,1.447,3.683,2.522c1.075,1.076,1.917,2.305,2.522,3.682
		c0.605,1.38,0.908,2.876,0.908,4.49v3.43c0,1.077-0.539,1.614-1.614,1.614h-3.229C390.012,467.945,389.475,467.408,389.475,466.331
		z"/>
	<path fill="#1CADA6" d="M427.004,476.421c0,3.363-1.178,6.154-3.531,8.373c2.354,2.22,3.531,5.045,3.531,8.476v23.507
		c0,1.077-0.539,1.614-1.614,1.614h-3.229c-1.076,0-1.614-0.537-1.614-1.614V493.27c0-1.479-0.504-2.725-1.514-3.733
		c-1.009-1.009-2.219-1.514-3.632-1.514h-5.146v28.754c0,0.472-0.168,0.857-0.504,1.16c-0.338,0.303-0.706,0.454-1.11,0.454h-3.229
		c-1.076,0-1.614-0.537-1.614-1.614v-62.249c0-0.873,0.303-1.63,0.908-2.271c0.605-0.638,1.378-0.958,2.32-0.958h8.374
		c1.614,0,3.128,0.303,4.54,0.908c1.413,0.605,2.64,1.447,3.683,2.522c1.042,1.076,1.866,2.32,2.472,3.732s0.908,2.926,0.908,4.54
		V476.421z M420.547,463.002c0-1.479-0.504-2.724-1.514-3.732c-1.009-1.009-2.219-1.514-3.632-1.514h-5.146v23.81h5.146
		c1.413,0,2.623-0.504,3.632-1.513c1.01-1.009,1.514-2.22,1.514-3.632V463.002z"/>
	<path fill="#1CADA6" d="M447.082,451.299c1.614,0,3.11,0.303,4.489,0.908c1.378,0.605,2.606,1.447,3.683,2.522
		c1.075,1.076,1.917,2.32,2.522,3.732s0.908,2.926,0.908,4.54v53.774c0,1.077-0.539,1.614-1.614,1.614h-3.229
		c-1.077,0-1.614-0.537-1.614-1.614v-28.754h-10.392v28.754c0,1.077-0.539,1.614-1.614,1.614h-3.229
		c-0.403,0-0.774-0.151-1.109-0.454c-0.338-0.303-0.505-0.688-0.505-1.16v-53.774c0-1.614,0.303-3.128,0.908-4.54
		s1.445-2.656,2.522-3.732c1.075-1.075,2.32-1.917,3.732-2.522S445.467,451.299,447.082,451.299z M452.227,481.565v-18.563
		c0-1.479-0.505-2.724-1.514-3.732s-2.22-1.514-3.632-1.514c-1.48,0-2.724,0.505-3.732,1.514s-1.514,2.254-1.514,3.732v18.563
		H452.227z"/>
	<path fill="#1CADA6" d="M488.9,451.804c0.303,0.337,0.454,0.706,0.454,1.109v23.508c0,2.69-0.792,5.044-2.371,7.062
		c-1.581,2.019-3.582,3.397-6.003,4.137v29.157c0,0.472-0.169,0.857-0.505,1.16c-0.337,0.303-0.706,0.454-1.109,0.454h-3.229
		c-1.076,0-1.614-0.537-1.614-1.614v-29.157c-2.489-0.739-4.524-2.118-6.104-4.137c-1.581-2.018-2.371-4.371-2.371-7.062v-23.508
		c0-0.403,0.151-0.772,0.454-1.109c0.303-0.336,0.688-0.505,1.16-0.505h3.229c0.47,0,0.857,0.169,1.16,0.505
		c0.303,0.337,0.454,0.706,0.454,1.109v23.508c0,1.412,0.504,2.623,1.514,3.632c1.009,1.009,2.252,1.513,3.732,1.513
		c1.412,0,2.623-0.504,3.632-1.513s1.514-2.22,1.514-3.632v-23.508c0-0.403,0.151-0.772,0.454-1.109
		c0.303-0.336,0.688-0.505,1.16-0.505h3.229C488.209,451.299,488.597,451.468,488.9,451.804z"/>
	<path fill="#1CADA6" d="M526.985,466.331v-3.43c0-1.413-0.505-2.623-1.514-3.632s-2.22-1.514-3.632-1.514
		c-1.413,0-2.623,0.505-3.632,1.514c-1.01,1.009-1.514,2.219-1.514,3.632v5.146c0,0.605,0.016,0.976,0.05,1.109
		c0.033,0.136,0.117,0.338,0.253,0.605l14.528,25.626c0.47,0.875,0.84,1.548,1.109,2.018c0.268,0.472,0.454,0.908,0.555,1.312
		c0.102,0.404,0.167,0.825,0.202,1.262c0.033,0.438,0.05,1.026,0.05,1.766v5.044c0,1.614-0.302,3.128-0.907,4.54
		c-0.605,1.413-1.447,2.641-2.522,3.683c-1.077,1.044-2.305,1.866-3.683,2.472c-1.379,0.605-2.875,0.908-4.489,0.908
		s-3.112-0.303-4.49-0.908c-1.379-0.605-2.607-1.428-3.683-2.472c-1.076-1.042-1.916-2.27-2.521-3.683
		c-0.605-1.412-0.908-2.926-0.908-4.54v-3.43c0-0.404,0.151-0.772,0.454-1.11c0.303-0.336,0.688-0.504,1.16-0.504h3.229
		c0.47,0,0.857,0.168,1.16,0.504c0.303,0.338,0.454,0.706,0.454,1.11v3.43c0,1.48,0.504,2.725,1.514,3.733
		c1.009,1.009,2.219,1.513,3.632,1.513c1.412,0,2.623-0.504,3.632-1.513s1.514-2.253,1.514-3.733v-5.044
		c0-0.538-0.018-0.874-0.051-1.009c-0.035-0.135-0.118-0.336-0.252-0.605l-14.528-25.626c-0.472-0.874-0.842-1.547-1.11-2.019
		c-0.27-0.47-0.453-0.907-0.555-1.312c-0.101-0.403-0.169-0.84-0.201-1.312c-0.035-0.47-0.051-1.075-0.051-1.815v-5.146
		c0-1.614,0.303-3.11,0.908-4.49c0.605-1.377,1.445-2.605,2.521-3.682c1.075-1.075,2.304-1.917,3.683-2.522
		c1.378-0.605,2.876-0.908,4.49-0.908s3.11,0.303,4.489,0.908c1.378,0.605,2.605,1.447,3.683,2.522
		c1.075,1.076,1.917,2.305,2.522,3.682c0.605,1.38,0.907,2.876,0.907,4.49v3.43c0,1.077-0.539,1.614-1.613,1.614h-3.229
		C527.522,467.945,526.985,467.408,526.985,466.331z"/>
	<path fill="#1CADA6" d="M547.263,457.756v23.911h8.777c1.075,0,1.614,0.539,1.614,1.614v3.229c0,0.403-0.151,0.773-0.454,1.109
		c-0.303,0.338-0.69,0.505-1.16,0.505h-8.777v23.81h8.777c0.47,0,0.857,0.169,1.16,0.505c0.303,0.337,0.454,0.706,0.454,1.109v3.229
		c0,1.077-0.539,1.614-1.614,1.614h-12.006c-0.942,0-1.715-0.303-2.32-0.908s-0.908-1.378-0.908-2.32v-60.635
		c0-0.873,0.303-1.63,0.908-2.271c0.605-0.638,1.378-0.958,2.32-0.958h12.006c0.47,0,0.857,0.169,1.16,0.505
		c0.303,0.337,0.454,0.706,0.454,1.109v3.229c0,1.076-0.539,1.614-1.614,1.614H547.263z"/>
	<path fill="#1CADA6" d="M577.732,451.299c1.614,0,3.11,0.303,4.489,0.908c1.378,0.605,2.606,1.447,3.683,2.522
		c1.075,1.076,1.917,2.32,2.522,3.732s0.908,2.926,0.908,4.54v53.774c0,1.077-0.539,1.614-1.614,1.614h-3.229
		c-1.077,0-1.614-0.537-1.614-1.614v-28.754h-10.392v28.754c0,1.077-0.539,1.614-1.614,1.614h-3.229
		c-0.403,0-0.774-0.151-1.109-0.454c-0.338-0.303-0.505-0.688-0.505-1.16v-53.774c0-1.614,0.303-3.128,0.908-4.54
		s1.445-2.656,2.522-3.732c1.075-1.075,2.32-1.917,3.732-2.522S576.118,451.299,577.732,451.299z M582.877,481.565v-18.563
		c0-1.479-0.505-2.724-1.514-3.732s-2.22-1.514-3.632-1.514c-1.48,0-2.724,0.505-3.732,1.514s-1.514,2.254-1.514,3.732v18.563
		H582.877z"/>
	<path fill="#1CADA6" d="M397.293,559.967v-3.43c0-1.413-0.505-2.623-1.514-3.632s-2.22-1.514-3.632-1.514
		c-1.413,0-2.623,0.505-3.632,1.514s-1.514,2.219-1.514,3.632v43.887c0,1.413,0.505,2.623,1.514,3.632
		c1.009,1.01,2.219,1.514,3.632,1.514c1.412,0,2.623-0.504,3.632-1.514c1.009-1.009,1.514-2.219,1.514-3.632v-3.732
		c0-1.075,0.548-1.614,1.647-1.614h3.296c1.075,0,1.614,0.539,1.614,1.614v3.732c0,1.614-0.305,3.112-0.911,4.49
		c-0.607,1.379-1.46,2.607-2.557,3.682c-1.1,1.077-2.343,1.917-3.731,2.522s-2.89,0.908-4.504,0.908s-3.128-0.303-4.54-0.908
		c-1.413-0.605-2.641-1.445-3.683-2.522c-1.044-1.074-1.866-2.303-2.472-3.682c-0.605-1.378-0.908-2.876-0.908-4.49v-43.887
		c0-1.614,0.303-3.11,0.908-4.49c0.605-1.377,1.428-2.605,2.472-3.682c1.042-1.075,2.27-1.917,3.683-2.522
		c1.412-0.605,2.926-0.908,4.54-0.908s3.115,0.303,4.504,0.908s2.632,1.447,3.731,2.522c1.097,1.076,1.949,2.305,2.557,3.682
		c0.606,1.38,0.911,2.876,0.911,4.49v3.43c0,1.077-0.539,1.614-1.614,1.614h-3.296C397.841,561.581,397.293,561.044,397.293,559.967
		z"/>
	<path fill="#1CADA6" d="M432.301,570.057c0,3.363-1.178,6.154-3.531,8.373c2.354,2.22,3.531,5.045,3.531,8.476v23.507
		c0,1.077-0.539,1.614-1.614,1.614h-3.229c-1.076,0-1.614-0.537-1.614-1.614v-23.507c0-1.479-0.504-2.725-1.514-3.733
		c-1.009-1.009-2.219-1.514-3.632-1.514h-5.146v28.754c0,0.472-0.168,0.857-0.504,1.16c-0.338,0.303-0.706,0.454-1.11,0.454h-3.229
		c-1.076,0-1.614-0.537-1.614-1.614v-62.249c0-0.873,0.303-1.63,0.908-2.271c0.605-0.638,1.378-0.958,2.32-0.958h8.374
		c1.614,0,3.128,0.303,4.54,0.908c1.413,0.605,2.64,1.447,3.683,2.522c1.042,1.076,1.866,2.32,2.472,3.732s0.908,2.926,0.908,4.54
		V570.057z M425.844,556.638c0-1.479-0.504-2.724-1.514-3.732c-1.009-1.009-2.219-1.514-3.632-1.514h-5.146v23.81h5.146
		c1.413,0,2.623-0.504,3.632-1.513c1.01-1.009,1.514-2.22,1.514-3.632V556.638z"/>
	<path fill="#1CADA6" d="M447.132,551.392v23.911h8.777c1.075,0,1.614,0.539,1.614,1.614v3.229c0,0.403-0.151,0.773-0.454,1.109
		c-0.303,0.338-0.69,0.505-1.16,0.505h-8.777v23.81h8.777c0.47,0,0.857,0.169,1.16,0.505c0.303,0.337,0.454,0.706,0.454,1.109v3.229
		c0,1.077-0.539,1.614-1.614,1.614h-12.006c-0.942,0-1.715-0.303-2.32-0.908s-0.908-1.378-0.908-2.32v-60.635
		c0-0.873,0.303-1.63,0.908-2.271c0.605-0.638,1.378-0.958,2.32-0.958h12.006c0.47,0,0.857,0.169,1.16,0.505
		c0.303,0.337,0.454,0.706,0.454,1.109v3.229c0,1.076-0.539,1.614-1.614,1.614H447.132z"/>
	<path fill="#1CADA6" d="M477.601,544.935c1.614,0,3.11,0.303,4.489,0.908c1.378,0.605,2.606,1.447,3.683,2.522
		c1.075,1.076,1.917,2.32,2.522,3.732s0.908,2.926,0.908,4.54v53.774c0,1.077-0.539,1.614-1.614,1.614h-3.229
		c-1.077,0-1.614-0.537-1.614-1.614v-28.754h-10.392v28.754c0,1.077-0.539,1.614-1.614,1.614h-3.229
		c-0.403,0-0.774-0.151-1.109-0.454c-0.338-0.303-0.505-0.688-0.505-1.16v-53.774c0-1.614,0.303-3.128,0.908-4.54
		s1.445-2.656,2.522-3.732c1.075-1.075,2.32-1.917,3.732-2.522S475.987,544.935,477.601,544.935z M482.747,575.201v-18.563
		c0-1.479-0.505-2.724-1.514-3.732s-2.22-1.514-3.632-1.514c-1.48,0-2.724,0.505-3.732,1.514s-1.514,2.254-1.514,3.732v18.563
		H482.747z"/>
	<path fill="#1CADA6" d="M511.853,545.439c0.303,0.337,0.454,0.706,0.454,1.109v3.229c0,1.076-0.539,1.614-1.614,1.614h-4.54v59.021
		c0,1.077-0.539,1.614-1.614,1.614h-3.229c-1.077,0-1.614-0.537-1.614-1.614v-59.021h-4.54c-1.077,0-1.614-0.538-1.614-1.614v-3.229
		c0-0.403,0.151-0.772,0.454-1.109c0.303-0.336,0.688-0.505,1.16-0.505h15.537C511.163,544.935,511.55,545.104,511.853,545.439z"/>
	<path fill="#1CADA6" d="M524.615,610.412c0,1.077-0.539,1.614-1.614,1.614h-3.229c-1.077,0-1.614-0.537-1.614-1.614v-63.763v-0.101
		c0-0.403,0.151-0.772,0.454-1.109c0.303-0.336,0.688-0.505,1.16-0.505H523c0.47,0,0.857,0.169,1.16,0.505
		c0.303,0.337,0.454,0.706,0.454,1.109V610.412z"/>
	<path fill="#1CADA6" d="M555.738,545.439c0.303,0.337,0.454,0.706,0.454,1.109v0.101v48.528c0,2.287-0.641,4.439-1.917,6.457
		l-5.448,9.585c-0.338,0.539-0.808,0.807-1.412,0.807h-5.65c-0.605,0-1.076-0.268-1.412-0.807l-5.448-9.585
		c-1.278-2.018-1.917-4.17-1.917-6.457v-48.629c0-0.403,0.151-0.772,0.454-1.109c0.303-0.336,0.688-0.505,1.16-0.505h3.229
		c0.403,0,0.772,0.169,1.109,0.505c0.336,0.337,0.505,0.706,0.505,1.109v48.629c0,0.337,0.016,0.623,0.051,0.857
		c0.032,0.236,0.083,0.489,0.151,0.757l4.943,8.677l4.843-8.677c0.201-0.47,0.303-1.009,0.303-1.614v-48.629
		c0-0.403,0.151-0.772,0.454-1.109c0.303-0.336,0.688-0.505,1.16-0.505h3.229C555.047,544.935,555.435,545.104,555.738,545.439z"/>
	<path fill="#1CADA6" d="M571.124,551.392v23.911h8.777c1.075,0,1.614,0.539,1.614,1.614v3.229c0,0.403-0.151,0.773-0.454,1.109
		c-0.303,0.338-0.69,0.505-1.16,0.505h-8.777v23.81h8.777c0.47,0,0.857,0.169,1.16,0.505c0.303,0.337,0.454,0.706,0.454,1.109v3.229
		c0,1.077-0.539,1.614-1.614,1.614h-12.006c-0.942,0-1.715-0.303-2.32-0.908s-0.908-1.378-0.908-2.32v-60.635
		c0-0.873,0.303-1.63,0.908-2.271c0.605-0.638,1.378-0.958,2.32-0.958h12.006c0.47,0,0.857,0.169,1.16,0.505
		c0.303,0.337,0.454,0.706,0.454,1.109v3.229c0,1.076-0.539,1.614-1.614,1.614H571.124z"/>
</g>
</svg>
