<?xml version="1.0" encoding="utf-8"?>
<!-- Generator: Adobe Illustrator 16.0.0, SVG Export Plug-In . SVG Version: 6.00 Build 0)  -->
<!DOCTYPE svg PUBLIC "-//W3C//DTD SVG 1.1//EN" "http://www.w3.org/Graphics/SVG/1.1/DTD/svg11.dtd">
<svg version="1.1" id="Layer_1" xmlns="http://www.w3.org/2000/svg" xmlns:xlink="http://www.w3.org/1999/xlink" x="0px" y="0px"
	 width="169.662px" height="103.5px" viewBox="613.675 0 169.662 103.5" enable-background="new 613.675 0 169.662 103.5"
	 xml:space="preserve">
<g>
	<path fill="#1CADA6" d="M650.377,28.337v-4.018c0-1.655-0.591-3.073-1.772-4.255c-1.183-1.182-2.601-1.772-4.255-1.772
		s-3.073,0.591-4.255,1.772c-1.182,1.182-1.772,2.6-1.772,4.255v51.41c0,1.654,0.591,3.072,1.772,4.254
		c1.182,1.183,2.601,1.773,4.255,1.773s3.072-0.591,4.255-1.773c1.182-1.182,1.772-2.6,1.772-4.254V53.629h-4.137
		c-1.261,0-1.891-0.63-1.891-1.891v-3.782c0-1.259,0.63-1.891,1.891-1.891h9.81c1.26,0,1.891,0.632,1.891,1.891v27.773
		c0,1.891-0.354,3.645-1.063,5.259c-0.709,1.616-1.695,3.055-2.954,4.313c-1.262,1.262-2.7,2.246-4.314,2.955
		c-1.615,0.709-3.368,1.063-5.259,1.063s-3.646-0.354-5.26-1.063c-1.615-0.709-3.054-1.693-4.313-2.955
		c-1.261-1.259-2.245-2.697-2.954-4.313c-0.709-1.614-1.063-3.368-1.063-5.259v-51.41c0-1.891,0.354-3.644,1.063-5.259
		c0.709-1.614,1.693-3.052,2.954-4.313c1.26-1.26,2.698-2.246,4.313-2.955c1.614-0.709,3.369-1.064,5.26-1.064
		s3.644,0.354,5.259,1.064c1.614,0.709,3.053,1.695,4.314,2.955c1.259,1.261,2.245,2.7,2.954,4.313
		c0.709,1.616,1.063,3.368,1.063,5.259v4.018c0,1.261-0.631,1.891-1.891,1.891h-3.782C651.007,30.229,650.377,29.599,650.377,28.337
		z"/>
	<path fill="#1CADA6" d="M694.34,40.156c0,3.941-1.379,7.209-4.137,9.81c2.758,2.6,4.137,5.909,4.137,9.927V87.43
		c0,1.261-0.632,1.891-1.891,1.891h-3.782c-1.261,0-1.891-0.63-1.891-1.891V59.893c0-1.732-0.591-3.191-1.772-4.373
		c-1.183-1.182-2.601-1.772-4.255-1.772h-6.027V87.43c0,0.552-0.198,1.004-0.591,1.358c-0.396,0.354-0.827,0.532-1.301,0.532h-3.781
		c-1.262,0-1.892-0.63-1.892-1.891V14.51c0-1.023,0.355-1.91,1.064-2.659c0.709-0.748,1.613-1.123,2.718-1.123h9.81
		c1.891,0,3.663,0.354,5.318,1.064c1.654,0.709,3.091,1.695,4.313,2.955c1.221,1.261,2.187,2.718,2.896,4.373
		c0.709,1.655,1.063,3.427,1.063,5.318V40.156z M686.777,24.438c0-1.732-0.591-3.191-1.772-4.373
		c-1.183-1.182-2.601-1.772-4.255-1.772h-6.027v27.891h6.027c1.654,0,3.072-0.591,4.255-1.772c1.182-1.182,1.772-2.6,1.772-4.255
		V24.438z"/>
	<path fill="#1CADA6" d="M717.859,10.728c1.891,0,3.644,0.354,5.259,1.064c1.614,0.709,3.053,1.695,4.314,2.955
		c1.259,1.261,2.245,2.718,2.954,4.373c0.709,1.655,1.063,3.427,1.063,5.318V87.43c0,1.261-0.631,1.891-1.891,1.891h-3.782
		c-1.261,0-1.891-0.63-1.891-1.891V53.747h-12.173V87.43c0,1.261-0.632,1.891-1.891,1.891h-3.782c-0.473,0-0.907-0.178-1.3-0.532
		c-0.396-0.354-0.591-0.807-0.591-1.358V24.438c0-1.891,0.354-3.664,1.063-5.318c0.709-1.654,1.693-3.111,2.954-4.373
		c1.26-1.26,2.719-2.246,4.373-2.955C714.195,11.083,715.968,10.728,717.859,10.728z M723.886,46.183V24.438
		c0-1.732-0.591-3.191-1.772-4.373c-1.183-1.182-2.601-1.772-4.255-1.772c-1.734,0-3.191,0.591-4.373,1.772
		c-1.182,1.182-1.772,2.641-1.772,4.373v21.746H723.886z"/>
	<path fill="#1CADA6" d="M766.845,11.319c0.354,0.396,0.532,0.828,0.532,1.3v27.537c0,3.152-0.927,5.909-2.777,8.273
		c-1.853,2.364-4.195,3.979-7.032,4.846V87.43c0,0.552-0.197,1.004-0.591,1.358c-0.395,0.354-0.827,0.532-1.3,0.532h-3.782
		c-1.261,0-1.891-0.63-1.891-1.891V53.274c-2.916-0.866-5.3-2.482-7.15-4.846c-1.852-2.364-2.777-5.121-2.777-8.273V12.619
		c0-0.473,0.178-0.905,0.532-1.3c0.354-0.393,0.807-0.591,1.359-0.591h3.781c0.551,0,1.005,0.198,1.359,0.591
		c0.354,0.396,0.532,0.828,0.532,1.3v27.537c0,1.655,0.591,3.073,1.772,4.255c1.182,1.182,2.639,1.772,4.373,1.772
		c1.654,0,3.072-0.591,4.254-1.772c1.183-1.182,1.773-2.6,1.773-4.255V12.619c0-0.473,0.177-0.905,0.531-1.3
		c0.354-0.393,0.808-0.591,1.359-0.591h3.782C766.037,10.728,766.491,10.926,766.845,11.319z"/>
</g>
</svg>
