<?xml version="1.0" encoding="utf-8"?>
<!-- Generator: Adobe Illustrator 16.0.0, SVG Export Plug-In . SVG Version: 6.00 Build 0)  -->
<!DOCTYPE svg PUBLIC "-//W3C//DTD SVG 1.1//EN" "http://www.w3.org/Graphics/SVG/1.1/DTD/svg11.dtd">
<svg version="1.1" id="Layer_1" xmlns="http://www.w3.org/2000/svg" xmlns:xlink="http://www.w3.org/1999/xlink" x="0px" y="0px"
	 width="327.872px" height="103px" viewBox="-452.535 -330.75 327.872 103" enable-background="new -452.535 -330.75 327.872 103"
	 xml:space="preserve">
<g>
	<path fill="#1CADA6" d="M-428.374-323.934c2.141,0,4.125,0.401,5.954,1.203c1.827,0.803,3.456,1.919,4.884,3.345
		c1.426,1.428,2.542,3.077,3.345,4.95c0.803,1.874,1.204,3.88,1.204,6.021v17.793c0,2.141-0.401,4.147-1.204,6.021
		c-0.803,1.873-1.919,3.501-3.345,4.883c-1.428,1.383-3.057,2.475-4.884,3.277c-1.829,0.804-3.813,1.205-5.954,1.205h-6.957v38.129
		c0,0.625-0.2,1.137-0.602,1.539c-0.401,0.401-0.87,0.602-1.405,0.602h-4.281c-1.428,0-2.141-0.713-2.141-2.141v-38.129v-8.563
		v-37.862v-0.133c0-0.535,0.201-1.024,0.602-1.473c0.401-0.445,0.914-0.668,1.539-0.668H-428.374z M-421.551-308.415
		c0-1.96-0.668-3.612-2.006-4.951c-1.338-1.337-2.944-2.007-4.817-2.007h-6.957v31.574h6.957c1.873,0,3.479-0.669,4.817-2.007
		s2.006-2.943,2.006-4.816V-308.415z"/>
	<path fill="#1CADA6" d="M-389.041-323.934c2.141,0,4.125,0.401,5.954,1.203c1.827,0.803,3.456,1.919,4.883,3.345
		c1.426,1.428,2.542,3.077,3.345,4.95c0.803,1.874,1.204,3.88,1.204,6.021v58.064c0,2.141-0.401,4.147-1.204,6.02
		s-1.919,3.501-3.345,4.883c-1.428,1.384-3.056,2.475-4.883,3.277c-1.829,0.803-3.812,1.205-5.954,1.205
		c-2.141,0-4.147-0.401-6.021-1.205c-1.873-0.802-3.524-1.893-4.95-3.277c-1.427-1.382-2.542-3.011-3.345-4.883
		s-1.204-3.879-1.204-6.02v-58.064c0-2.141,0.401-4.147,1.204-6.021c0.803-1.873,1.917-3.521,3.345-4.95
		c1.426-1.426,3.078-2.542,4.95-3.345C-393.188-323.533-391.181-323.934-389.041-323.934z M-382.217-308.415
		c0-1.96-0.669-3.612-2.007-4.951c-1.337-1.337-2.943-2.007-4.816-2.007c-1.963,0-3.612,0.669-4.95,2.007
		c-1.338,1.339-2.006,2.99-2.006,4.951v58.064c0,1.873,0.668,3.478,2.006,4.815c1.338,1.338,2.987,2.008,4.95,2.008
		c1.874,0,3.479-0.669,4.816-2.008c1.338-1.337,2.007-2.943,2.007-4.815V-308.415z"/>
	<path fill="#1CADA6" d="M-332.448-290.621c0,4.461-1.562,8.162-4.683,11.104c3.121,2.943,4.683,6.689,4.683,11.238v31.173
		c0,1.428-0.715,2.141-2.141,2.141h-4.282c-1.427,0-2.14-0.713-2.14-2.141v-31.173c0-1.961-0.669-3.612-2.007-4.95
		c-1.337-1.337-2.943-2.007-4.816-2.007h-6.823v38.129c0,0.625-0.224,1.137-0.669,1.539c-0.448,0.401-0.937,0.602-1.472,0.602
		h-4.281c-1.427,0-2.14-0.713-2.14-2.141v-82.547c0-1.159,0.401-2.163,1.204-3.01c0.803-0.847,1.827-1.271,3.077-1.271h11.104
		c2.141,0,4.147,0.401,6.021,1.203c1.873,0.803,3.5,1.919,4.883,3.345c1.381,1.428,2.475,3.077,3.277,4.95
		c0.803,1.874,1.205,3.88,1.205,6.021V-290.621z M-341.011-308.415c0-1.96-0.669-3.612-2.007-4.951
		c-1.337-1.337-2.943-2.007-4.816-2.007h-6.823v31.574h6.823c1.873,0,3.479-0.669,4.816-2.007c1.338-1.337,2.007-2.943,2.007-4.816
		V-308.415z"/>
	<path fill="#1CADA6" d="M-302.414-323.266c0.402,0.448,0.603,0.938,0.603,1.473v4.28c0,1.428-0.715,2.141-2.141,2.141h-6.021
		v78.267c0,1.428-0.714,2.141-2.14,2.141h-4.281c-1.428,0-2.14-0.713-2.14-2.141v-78.267h-6.021c-1.428,0-2.141-0.712-2.141-2.141
		v-4.28c0-0.535,0.201-1.024,0.602-1.473c0.401-0.445,0.914-0.668,1.539-0.668h20.604
		C-303.329-323.934-302.814-323.71-302.414-323.266z"/>
	<path fill="#1CADA6" d="M-283.483-315.372v31.708h11.64c1.425,0,2.141,0.715,2.141,2.141v4.281c0,0.536-0.201,1.026-0.602,1.472
		c-0.402,0.447-0.916,0.669-1.539,0.669h-11.64v37.995c0,1.428-0.715,2.141-2.141,2.141h-4.281c-1.428,0-2.141-0.713-2.141-2.141
		v-82.547c0-1.159,0.422-2.163,1.271-3.01c0.847-0.847,1.85-1.271,3.01-1.271h15.921c0.623,0,1.137,0.223,1.539,0.668
		c0.401,0.448,0.602,0.938,0.602,1.473v4.28c0,1.428-0.715,2.141-2.141,2.141H-283.483z"/>
	<path fill="#1CADA6" d="M-243.08-323.934c2.141,0,4.125,0.401,5.954,1.203c1.827,0.803,3.456,1.919,4.883,3.345
		c1.426,1.428,2.542,3.077,3.345,4.95c0.803,1.874,1.204,3.88,1.204,6.021v58.064c0,2.141-0.401,4.147-1.204,6.02
		s-1.919,3.501-3.345,4.883c-1.428,1.384-3.056,2.475-4.883,3.277c-1.829,0.803-3.812,1.205-5.954,1.205
		c-2.141,0-4.147-0.401-6.021-1.205c-1.873-0.802-3.524-1.893-4.95-3.277c-1.427-1.382-2.542-3.011-3.345-4.883
		s-1.204-3.879-1.204-6.02v-58.064c0-2.141,0.401-4.147,1.204-6.021c0.803-1.873,1.917-3.521,3.345-4.95
		c1.426-1.426,3.078-2.542,4.95-3.345C-247.227-323.533-245.22-323.934-243.08-323.934z M-236.256-308.415
		c0-1.96-0.669-3.612-2.007-4.951c-1.337-1.337-2.943-2.007-4.816-2.007c-1.963,0-3.612,0.669-4.95,2.007
		c-1.338,1.339-2.006,2.99-2.006,4.951v58.064c0,1.873,0.668,3.478,2.006,4.815c1.338,1.338,2.987,2.008,4.95,2.008
		c1.874,0,3.479-0.669,4.816-2.008c1.338-1.337,2.007-2.943,2.007-4.815V-308.415z"/>
	<path fill="#1CADA6" d="M-194.984-242.858c0.402,0.448,0.603,0.936,0.603,1.471v4.282c0,1.428-0.715,2.141-2.141,2.141h-15.787
		c-1.25,0-2.274-0.401-3.077-1.205c-0.803-0.802-1.204-1.827-1.204-3.077v-82.546c0-0.535,0.201-1.024,0.602-1.473
		c0.401-0.445,0.914-0.668,1.539-0.668h4.281c0.535,0,1.024,0.223,1.471,0.668c0.446,0.448,0.669,0.938,0.669,1.473v78.266h11.505
		C-195.899-243.527-195.385-243.303-194.984-242.858z"/>
	<path fill="#1CADA6" d="M-176.053-237.105c0,1.428-0.715,2.141-2.141,2.141h-4.281c-1.428,0-2.141-0.713-2.141-2.141v-84.555
		v-0.133c0-0.535,0.201-1.024,0.602-1.473c0.401-0.445,0.914-0.668,1.539-0.668h4.281c0.623,0,1.137,0.223,1.539,0.668
		c0.401,0.448,0.602,0.938,0.602,1.473V-237.105z"/>
	<path fill="#1CADA6" d="M-149.431-323.934c2.141,0,4.125,0.401,5.954,1.203c1.827,0.803,3.455,1.919,4.883,3.345
		c1.425,1.428,2.542,3.077,3.344,4.95c0.803,1.874,1.204,3.88,1.204,6.021v58.064c0,2.141-0.401,4.147-1.204,6.02
		s-1.919,3.501-3.344,4.883c-1.428,1.384-3.057,2.475-4.883,3.277c-1.829,0.803-3.813,1.205-5.954,1.205s-4.147-0.401-6.021-1.205
		c-1.873-0.802-3.525-1.893-4.95-3.277c-1.428-1.382-2.542-3.011-3.345-4.883s-1.204-3.879-1.204-6.02v-58.064
		c0-2.141,0.401-4.147,1.204-6.021c0.803-1.873,1.917-3.521,3.345-4.95c1.425-1.426,3.078-2.542,4.95-3.345
		C-153.578-323.533-151.571-323.934-149.431-323.934z M-142.607-308.415c0-1.96-0.669-3.612-2.007-4.951
		c-1.337-1.337-2.943-2.007-4.816-2.007c-1.963,0-3.612,0.669-4.95,2.007c-1.338,1.339-2.007,2.99-2.007,4.951v58.064
		c0,1.873,0.669,3.478,2.007,4.815c1.338,1.338,2.987,2.008,4.95,2.008c1.873,0,3.479-0.669,4.816-2.008
		c1.338-1.337,2.007-2.943,2.007-4.815V-308.415z"/>
</g>
</svg>
