<?xml version="1.0" encoding="utf-8"?>
<!-- Generator: Adobe Illustrator 16.0.0, SVG Export Plug-In . SVG Version: 6.00 Build 0)  -->
<!DOCTYPE svg PUBLIC "-//W3C//DTD SVG 1.1//EN" "http://www.w3.org/Graphics/SVG/1.1/DTD/svg11.dtd">
<svg version="1.1" id="Layer_1" xmlns="http://www.w3.org/2000/svg" xmlns:xlink="http://www.w3.org/1999/xlink" x="0px" y="0px"
	 width="186.592px" height="108.083px" viewBox="-704.362 245 186.592 108.083"
	 enable-background="new -704.362 245 186.592 108.083" xml:space="preserve">
<g>
	<path fill="#FFFFFF" d="M-665.623,253.966c0.397,0.443,0.597,0.929,0.597,1.459v83.948c0,1.415-0.709,2.122-2.122,2.122h-4.111
		c-1.415,0-2.121-0.707-2.121-2.122v-37.664h-13.66v37.664c0,1.415-0.709,2.122-2.122,2.122h-4.244
		c-1.415,0-2.121-0.707-2.121-2.122v-83.815v-0.133c0-0.53,0.198-1.016,0.597-1.459c0.397-0.441,0.905-0.663,1.524-0.663h4.244
		c0.617,0,1.127,0.222,1.525,0.663c0.397,0.443,0.597,0.929,0.597,1.459v37.797h13.66v-37.797c0-0.53,0.198-1.016,0.597-1.459
		c0.397-0.441,0.905-0.663,1.524-0.663h4.111C-666.53,253.303-666.02,253.524-665.623,253.966z"/>
	<path fill="#FFFFFF" d="M-638.636,253.303c2.122,0,4.089,0.398,5.901,1.193c1.812,0.796,3.426,1.902,4.841,3.315
		c1.413,1.416,2.52,3.051,3.315,4.907s1.193,3.846,1.193,5.968v57.557c0,2.122-0.397,4.111-1.193,5.969
		c-0.796,1.856-1.902,3.471-3.315,4.84c-1.415,1.372-3.029,2.454-4.841,3.25c-1.812,0.795-3.779,1.193-5.901,1.193
		s-4.111-0.398-5.968-1.193c-1.856-0.796-3.494-1.878-4.907-3.25c-1.415-1.369-2.52-2.983-3.315-4.84
		c-0.796-1.857-1.193-3.847-1.193-5.969v-57.557c0-2.122,0.397-4.111,1.193-5.968s1.9-3.491,3.315-4.907
		c1.413-1.413,3.051-2.52,4.907-3.315C-642.748,253.701-640.758,253.303-638.636,253.303z M-631.873,268.687
		c0-1.943-0.663-3.58-1.989-4.906s-2.918-1.989-4.774-1.989c-1.945,0-3.581,0.663-4.907,1.989s-1.989,2.963-1.989,4.906v57.557
		c0,1.857,0.663,3.448,1.989,4.774s2.962,1.989,4.907,1.989c1.856,0,3.448-0.663,4.774-1.989s1.989-2.917,1.989-4.774V268.687z"/>
	<path fill="#FFFFFF" d="M-574.979,253.303c2.122,0,4.111,0.398,5.968,1.193c1.856,0.796,3.491,1.902,4.907,3.315
		c1.413,1.416,2.52,3.051,3.315,4.907c0.795,1.856,1.193,3.846,1.193,5.968v70.687c0,0.619-0.222,1.127-0.663,1.525
		c-0.443,0.397-0.929,0.597-1.459,0.597h-4.244c-1.415,0-2.121-0.707-2.121-2.122v-70.687c0-1.943-0.664-3.58-1.99-4.906
		s-2.963-1.989-4.906-1.989c-1.856,0-3.448,0.663-4.774,1.989s-1.989,2.963-1.989,4.906v70.687c0,1.415-0.709,2.122-2.122,2.122
		h-4.244c-1.415,0-2.121-0.707-2.121-2.122v-70.687c0-1.943-0.663-3.58-1.99-4.906c-1.326-1.326-2.917-1.989-4.773-1.989
		c-1.946,0-3.581,0.663-4.907,1.989s-1.989,2.963-1.989,4.906v70.687c0,1.415-0.709,2.122-2.122,2.122h-4.244
		c-0.53,0-1.018-0.199-1.458-0.597c-0.444-0.398-0.663-0.906-0.663-1.525v-70.687c0-2.122,0.397-4.111,1.193-5.968
		s1.9-3.491,3.315-4.907c1.413-1.413,3.05-2.52,4.906-3.315c1.857-0.795,3.847-1.193,5.969-1.193c2.121,0,4.132,0.421,6.034,1.26
		c1.899,0.842,3.558,2.013,4.973,3.515c1.413-1.502,3.071-2.673,4.974-3.515C-579.113,253.724-577.101,253.303-574.979,253.303z"/>
	<path fill="#FFFFFF" d="M-540.102,261.791v31.431h11.538c1.413,0,2.122,0.708,2.122,2.122v4.243c0,0.53-0.199,1.018-0.598,1.459
		c-0.397,0.443-0.907,0.663-1.524,0.663h-11.538v31.298h11.538c0.617,0,1.127,0.222,1.524,0.663
		c0.398,0.443,0.598,0.929,0.598,1.459v4.244c0,1.415-0.709,2.122-2.122,2.122h-15.782c-1.239,0-2.254-0.398-3.05-1.193
		c-0.796-0.796-1.193-1.812-1.193-3.051v-79.704c0-1.148,0.397-2.143,1.193-2.984c0.796-0.839,1.811-1.26,3.05-1.26h15.782
		c0.617,0,1.127,0.222,1.524,0.663c0.398,0.443,0.598,0.929,0.598,1.459v4.244c0,1.415-0.709,2.122-2.122,2.122H-540.102z"/>
</g>
</svg>
