<?xml version="1.0" encoding="utf-8"?>
<!-- Generator: Adobe Illustrator 16.0.0, SVG Export Plug-In . SVG Version: 6.00 Build 0)  -->
<!DOCTYPE svg PUBLIC "-//W3C//DTD SVG 1.1//EN" "http://www.w3.org/Graphics/SVG/1.1/DTD/svg11.dtd">
<svg version="1.1" id="Layer_1" xmlns="http://www.w3.org/2000/svg" xmlns:xlink="http://www.w3.org/1999/xlink" x="0px" y="0px"
	 width="208.328px" height="108.084px" viewBox="-704.362 386.209 208.328 108.084"
	 enable-background="new -704.362 386.209 208.328 108.084" xml:space="preserve">
<g>
	<path fill="#FFFFFF" d="M-679.884,396.652c2.122,0,4.088,0.398,5.901,1.193c1.811,0.796,3.425,1.902,4.841,3.315
		c1.413,1.416,2.52,3.051,3.315,4.907c0.795,1.856,1.193,3.846,1.193,5.968v70.687c0,1.415-0.708,2.122-2.122,2.122h-4.244
		c-1.415,0-2.122-0.707-2.122-2.122v-37.797h-13.66v37.797c0,1.415-0.708,2.122-2.122,2.122h-4.244c-0.53,0-1.018-0.199-1.458-0.597
		c-0.444-0.398-0.663-0.906-0.663-1.525v-70.687c0-2.122,0.397-4.111,1.193-5.968s1.9-3.491,3.315-4.907
		c1.413-1.413,3.05-2.52,4.907-3.315C-683.995,397.051-682.006,396.652-679.884,396.652z M-673.12,436.438v-24.402
		c0-1.943-0.663-3.58-1.99-4.906c-1.326-1.326-2.917-1.989-4.774-1.989c-1.946,0-3.581,0.663-4.907,1.989s-1.989,2.963-1.989,4.906
		v24.402H-673.12z"/>
	<path fill="#FFFFFF" d="M-622.991,429.675c0,2.211-0.42,4.267-1.26,6.167c-0.841,1.902-2.012,3.56-3.515,4.973
		c1.502,1.416,2.673,3.051,3.515,4.907c0.839,1.856,1.26,3.892,1.26,6.101v17.771c0,2.122-0.398,4.091-1.193,5.902
		c-0.796,1.812-1.902,3.427-3.315,4.84c-1.416,1.416-3.03,2.521-4.841,3.316c-1.813,0.795-3.78,1.193-5.901,1.193h-11.14
		c-1.15,0-2.145-0.398-2.984-1.193c-0.841-0.796-1.26-1.812-1.26-3.051v-79.704c0-1.148,0.418-2.143,1.26-2.984
		c0.839-0.839,1.834-1.26,2.984-1.26h11.14c2.122,0,4.088,0.398,5.901,1.193c1.811,0.796,3.425,1.902,4.841,3.315
		c1.413,1.416,2.52,3.051,3.315,4.907c0.795,1.856,1.193,3.846,1.193,5.968V429.675z M-631.478,412.036
		c0-1.943-0.663-3.58-1.99-4.906c-1.326-1.326-2.917-1.989-4.774-1.989h-6.896v31.431h6.896c1.856,0,3.448-0.663,4.774-1.989
		c1.327-1.326,1.99-2.962,1.99-4.907V412.036z M-631.478,451.822c0-1.856-0.663-3.448-1.99-4.774
		c-1.326-1.326-2.917-1.989-4.774-1.989h-6.896v31.298h6.896c1.856,0,3.448-0.663,4.774-1.989c1.327-1.326,1.99-2.917,1.99-4.774
		V451.822z"/>
	<path fill="#FFFFFF" d="M-596.6,396.652c2.122,0,4.088,0.398,5.901,1.193c1.811,0.796,3.425,1.902,4.841,3.315
		c1.413,1.416,2.52,3.051,3.315,4.907c0.795,1.856,1.193,3.846,1.193,5.968v57.557c0,2.122-0.398,4.111-1.193,5.969
		c-0.796,1.856-1.902,3.471-3.315,4.84c-1.416,1.372-3.03,2.454-4.841,3.25c-1.813,0.795-3.78,1.193-5.901,1.193
		c-2.122,0-4.111-0.398-5.968-1.193c-1.856-0.796-3.494-1.878-4.907-3.25c-1.415-1.369-2.52-2.983-3.315-4.84
		c-0.796-1.857-1.193-3.847-1.193-5.969v-57.557c0-2.122,0.397-4.111,1.193-5.968s1.9-3.491,3.315-4.907
		c1.413-1.413,3.05-2.52,4.907-3.315C-600.711,397.051-598.722,396.652-596.6,396.652z M-589.836,412.036
		c0-1.943-0.663-3.58-1.99-4.906c-1.326-1.326-2.917-1.989-4.774-1.989c-1.946,0-3.581,0.663-4.907,1.989s-1.989,2.963-1.989,4.906
		v57.557c0,1.857,0.663,3.448,1.989,4.774s2.961,1.989,4.907,1.989c1.856,0,3.448-0.663,4.774-1.989
		c1.327-1.326,1.99-2.917,1.99-4.774V412.036z"/>
	<path fill="#FFFFFF" d="M-540.304,397.315c0.398,0.443,0.597,0.929,0.597,1.459v70.818c0,2.122-0.398,4.111-1.193,5.969
		c-0.796,1.856-1.902,3.471-3.315,4.84c-1.416,1.372-3.03,2.454-4.841,3.25c-1.813,0.795-3.78,1.193-5.901,1.193
		c-2.122,0-4.111-0.398-5.968-1.193c-1.856-0.796-3.494-1.878-4.907-3.25c-1.415-1.369-2.52-2.983-3.315-4.84
		c-0.796-1.857-1.193-3.847-1.193-5.969v-70.818c0-0.53,0.219-1.016,0.663-1.459c0.441-0.441,0.928-0.663,1.458-0.663h4.244
		c0.617,0,1.127,0.222,1.525,0.663c0.398,0.443,0.597,0.929,0.597,1.459v70.818c0,1.857,0.663,3.448,1.989,4.774
		s2.961,1.989,4.907,1.989c1.856,0,3.448-0.663,4.774-1.989c1.327-1.326,1.99-2.917,1.99-4.774v-70.818
		c0-0.53,0.199-1.016,0.597-1.459c0.398-0.441,0.905-0.663,1.525-0.663h4.244C-541.211,396.652-540.702,396.874-540.304,397.315z"/>
	<path fill="#FFFFFF" d="M-505.956,397.315c0.398,0.443,0.597,0.929,0.597,1.459v4.244c0,1.415-0.708,2.122-2.122,2.122h-5.968
		v77.582c0,1.415-0.708,2.122-2.122,2.122h-4.244c-1.415,0-2.122-0.707-2.122-2.122v-77.582h-5.968
		c-1.415,0-2.122-0.707-2.122-2.122v-4.244c0-0.53,0.199-1.016,0.597-1.459c0.398-0.441,0.905-0.663,1.525-0.663h20.423
		C-506.863,396.652-506.354,396.874-505.956,397.315z"/>
</g>
</svg>
