<?xml version="1.0" encoding="utf-8"?>
<!-- Generator: Adobe Illustrator 16.0.0, SVG Export Plug-In . SVG Version: 6.00 Build 0)  -->
<!DOCTYPE svg PUBLIC "-//W3C//DTD SVG 1.1//EN" "http://www.w3.org/Graphics/SVG/1.1/DTD/svg11.dtd">
<svg version="1.1" id="Layer_1" xmlns="http://www.w3.org/2000/svg" xmlns:xlink="http://www.w3.org/1999/xlink" x="0px" y="0px"
	 width="285.44px" height="89px" viewBox="-452.535 -316.75 285.44 89" enable-background="new -452.535 -316.75 285.44 89"
	 xml:space="preserve">
<g>
	<path fill="#1CADA6" d="M-429.648-310.778c1.824,0,3.515,0.342,5.073,1.025c1.557,0.685,2.945,1.636,4.162,2.851
		c1.215,1.217,2.166,2.622,2.85,4.218c0.684,1.597,1.026,3.307,1.026,5.131v15.162c0,1.824-0.342,3.534-1.026,5.131
		c-0.684,1.596-1.635,2.983-2.85,4.161c-1.217,1.179-2.604,2.109-4.162,2.793c-1.559,0.685-3.249,1.026-5.073,1.026h-5.928v32.491
		c0,0.533-0.171,0.969-0.513,1.312c-0.342,0.342-0.741,0.513-1.197,0.513h-3.648c-1.217,0-1.824-0.607-1.824-1.824v-32.491v-7.297
		v-32.264v-0.113c0-0.456,0.171-0.873,0.513-1.255c0.342-0.379,0.778-0.569,1.311-0.569H-429.648z M-423.833-297.554
		c0-1.671-0.57-3.078-1.71-4.219c-1.14-1.14-2.508-1.71-4.104-1.71h-5.928v26.905h5.928c1.596,0,2.964-0.57,4.104-1.71
		s1.71-2.508,1.71-4.104V-297.554z"/>
	<path fill="#1CADA6" d="M-396.13-310.778c1.824,0,3.515,0.342,5.073,1.025c1.557,0.685,2.944,1.636,4.161,2.851
		c1.215,1.217,2.166,2.622,2.85,4.218c0.684,1.597,1.026,3.307,1.026,5.131v49.479c0,1.824-0.342,3.534-1.026,5.13
		s-1.635,2.983-2.85,4.161c-1.217,1.18-2.604,2.109-4.161,2.793c-1.559,0.685-3.249,1.026-5.073,1.026s-3.534-0.342-5.13-1.026
		c-1.596-0.684-3.003-1.613-4.218-2.793c-1.216-1.178-2.166-2.565-2.85-4.161s-1.026-3.306-1.026-5.13v-49.479
		c0-1.824,0.342-3.534,1.026-5.131c0.684-1.596,1.634-3.001,2.85-4.218c1.215-1.215,2.623-2.166,4.218-2.851
		C-399.665-310.437-397.955-310.778-396.13-310.778z M-390.316-297.554c0-1.671-0.57-3.078-1.71-4.219
		c-1.14-1.14-2.508-1.71-4.104-1.71c-1.673,0-3.078,0.57-4.218,1.71c-1.14,1.141-1.71,2.548-1.71,4.219v49.479
		c0,1.596,0.57,2.964,1.71,4.104c1.14,1.141,2.545,1.711,4.218,1.711c1.596,0,2.964-0.57,4.104-1.711
		c1.14-1.14,1.71-2.508,1.71-4.104V-297.554z"/>
	<path fill="#1CADA6" d="M-347.906-282.392c0,3.802-1.331,6.955-3.99,9.463c2.659,2.508,3.99,5.7,3.99,9.576v26.563
		c0,1.217-0.609,1.824-1.824,1.824h-3.648c-1.216,0-1.824-0.607-1.824-1.824v-26.563c0-1.671-0.57-3.078-1.71-4.218
		c-1.14-1.14-2.508-1.71-4.104-1.71h-5.814v32.491c0,0.533-0.19,0.969-0.57,1.312c-0.381,0.342-0.798,0.513-1.254,0.513h-3.648
		c-1.216,0-1.824-0.607-1.824-1.824v-70.341c0-0.987,0.342-1.843,1.026-2.565c0.684-0.722,1.557-1.083,2.622-1.083h9.462
		c1.824,0,3.534,0.342,5.13,1.025c1.596,0.685,2.982,1.636,4.161,2.851c1.177,1.217,2.109,2.622,2.793,4.218
		c0.684,1.597,1.026,3.307,1.026,5.131V-282.392z M-355.203-297.554c0-1.671-0.57-3.078-1.71-4.219
		c-1.14-1.14-2.508-1.71-4.104-1.71h-5.814v26.905h5.814c1.596,0,2.964-0.57,4.104-1.71c1.14-1.14,1.71-2.508,1.71-4.104V-297.554z"
		/>
	<path fill="#1CADA6" d="M-322.312-310.209c0.342,0.382,0.513,0.799,0.513,1.255v3.647c0,1.217-0.609,1.824-1.824,1.824h-5.13
		v66.693c0,1.217-0.609,1.824-1.824,1.824h-3.648c-1.216,0-1.824-0.607-1.824-1.824v-66.693h-5.13c-1.217,0-1.824-0.607-1.824-1.824
		v-3.647c0-0.456,0.171-0.873,0.513-1.255c0.342-0.379,0.778-0.569,1.311-0.569h17.557
		C-323.093-310.778-322.654-310.588-322.312-310.209z"/>
	<path fill="#1CADA6" d="M-306.182-303.482v27.02h9.918c1.215,0,1.824,0.609,1.824,1.824v3.648c0,0.456-0.171,0.874-0.513,1.254
		c-0.342,0.381-0.78,0.57-1.311,0.57h-9.918v32.377c0,1.217-0.609,1.824-1.824,1.824h-3.648c-1.217,0-1.824-0.607-1.824-1.824
		v-70.341c0-0.987,0.36-1.843,1.083-2.565c0.722-0.722,1.577-1.083,2.565-1.083h13.567c0.531,0,0.969,0.19,1.311,0.569
		c0.342,0.382,0.513,0.799,0.513,1.255v3.647c0,1.217-0.609,1.824-1.824,1.824H-306.182z"/>
	<path fill="#1CADA6" d="M-271.752-310.778c1.824,0,3.515,0.342,5.073,1.025c1.557,0.685,2.944,1.636,4.161,2.851
		c1.215,1.217,2.166,2.622,2.85,4.218c0.684,1.597,1.026,3.307,1.026,5.131v49.479c0,1.824-0.342,3.534-1.026,5.13
		s-1.635,2.983-2.85,4.161c-1.217,1.18-2.604,2.109-4.161,2.793c-1.559,0.685-3.249,1.026-5.073,1.026s-3.534-0.342-5.13-1.026
		c-1.596-0.684-3.003-1.613-4.218-2.793c-1.216-1.178-2.166-2.565-2.85-4.161s-1.026-3.306-1.026-5.13v-49.479
		c0-1.824,0.342-3.534,1.026-5.131c0.684-1.596,1.634-3.001,2.85-4.218c1.215-1.215,2.623-2.166,4.218-2.851
		C-275.286-310.437-273.576-310.778-271.752-310.778z M-265.938-297.554c0-1.671-0.57-3.078-1.71-4.219
		c-1.14-1.14-2.508-1.71-4.104-1.71c-1.673,0-3.078,0.57-4.218,1.71c-1.14,1.141-1.71,2.548-1.71,4.219v49.479
		c0,1.596,0.57,2.964,1.71,4.104c1.14,1.141,2.545,1.711,4.218,1.711c1.596,0,2.964-0.57,4.104-1.711
		c1.14-1.14,1.71-2.508,1.71-4.104V-297.554z"/>
	<path fill="#1CADA6" d="M-230.768-241.691c0.342,0.382,0.513,0.798,0.513,1.254v3.648c0,1.217-0.609,1.824-1.824,1.824h-13.453
		c-1.065,0-1.938-0.342-2.622-1.026c-0.684-0.684-1.026-1.557-1.026-2.622v-70.341c0-0.456,0.171-0.873,0.513-1.255
		c0.342-0.379,0.778-0.569,1.311-0.569h3.648c0.456,0,0.873,0.19,1.254,0.569c0.38,0.382,0.57,0.799,0.57,1.255v66.693h9.804
		C-231.548-242.261-231.11-242.07-230.768-241.691z"/>
	<path fill="#1CADA6" d="M-214.636-236.789c0,1.217-0.609,1.824-1.824,1.824h-3.648c-1.217,0-1.824-0.607-1.824-1.824v-72.052
		v-0.113c0-0.456,0.171-0.873,0.513-1.255c0.342-0.379,0.778-0.569,1.311-0.569h3.648c0.531,0,0.969,0.19,1.311,0.569
		c0.342,0.382,0.513,0.799,0.513,1.255V-236.789z"/>
	<path fill="#1CADA6" d="M-191.951-310.778c1.824,0,3.515,0.342,5.073,1.025c1.557,0.685,2.944,1.636,4.161,2.851
		c1.215,1.217,2.166,2.622,2.85,4.218c0.684,1.597,1.026,3.307,1.026,5.131v49.479c0,1.824-0.342,3.534-1.026,5.13
		s-1.635,2.983-2.85,4.161c-1.217,1.18-2.604,2.109-4.161,2.793c-1.559,0.685-3.249,1.026-5.073,1.026s-3.534-0.342-5.13-1.026
		c-1.596-0.684-3.003-1.613-4.218-2.793c-1.216-1.178-2.166-2.565-2.85-4.161s-1.026-3.306-1.026-5.13v-49.479
		c0-1.824,0.342-3.534,1.026-5.131c0.684-1.596,1.634-3.001,2.85-4.218c1.215-1.215,2.623-2.166,4.218-2.851
		C-195.485-310.437-193.775-310.778-191.951-310.778z M-186.136-297.554c0-1.671-0.57-3.078-1.71-4.219
		c-1.14-1.14-2.508-1.71-4.104-1.71c-1.673,0-3.078,0.57-4.218,1.71c-1.14,1.141-1.71,2.548-1.71,4.219v49.479
		c0,1.596,0.57,2.964,1.71,4.104c1.14,1.141,2.545,1.711,4.218,1.711c1.596,0,2.964-0.57,4.104-1.711
		c1.14-1.14,1.71-2.508,1.71-4.104V-297.554z"/>
</g>
</svg>
