<?xml version="1.0" encoding="utf-8"?>
<!-- Generator: Adobe Illustrator 16.0.0, SVG Export Plug-In . SVG Version: 6.00 Build 0)  -->
<!DOCTYPE svg PUBLIC "-//W3C//DTD SVG 1.1//EN" "http://www.w3.org/Graphics/SVG/1.1/DTD/svg11.dtd">
<svg version="1.1" id="Layer_1" xmlns="http://www.w3.org/2000/svg" xmlns:xlink="http://www.w3.org/1999/xlink" x="0px" y="0px"
	 width="33.333px" height="33.334px" viewBox="127.333 127.333 33.333 33.334"
	 enable-background="new 127.333 127.333 33.333 33.334" xml:space="preserve">
<g>
	<polygon fill="#FFFFFF" points="150.82,140.318 150.82,137.653 150.82,137.255 150.421,137.256 147.757,137.266 147.767,140.329 	
		"/>
	<path fill="#FFFFFF" d="M143.875,147.391c1.753,0,3.182-1.427,3.182-3.18c0-0.693-0.225-1.333-0.603-1.855
		c-0.578-0.8-1.518-1.326-2.579-1.326s-2,0.526-2.58,1.326c-0.376,0.522-0.601,1.162-0.601,1.855
		C140.694,145.964,142.121,147.391,143.875,147.391z"/>
	<path fill="#FFFFFF" d="M143.958,127.333c-9.181,0-16.625,7.442-16.625,16.623c0,9.18,7.443,16.624,16.625,16.624
		c9.18,0,16.624-7.444,16.624-16.624C160.581,134.775,153.138,127.333,143.958,127.333z M152.911,142.355v7.4
		c0,1.923-1.566,3.491-3.492,3.491H138.33c-1.925,0-3.491-1.568-3.491-3.491v-7.4v-3.689c0-1.925,1.566-3.492,3.491-3.492h11.089
		c1.926,0,3.492,1.566,3.492,3.492V142.355z"/>
	<path fill="#FFFFFF" d="M148.816,144.21c0,2.723-2.216,4.942-4.941,4.942c-2.725,0-4.941-2.219-4.941-4.942
		c0-0.657,0.13-1.282,0.363-1.855h-2.698v7.4c0,0.954,0.777,1.729,1.731,1.729h11.089c0.954,0,1.73-0.775,1.73-1.729v-7.4h-2.697
		C148.685,142.929,148.816,143.554,148.816,144.21z"/>
</g>
</svg>
