<?xml version="1.0" encoding="utf-8"?>
<!-- Generator: Adobe Illustrator 16.0.0, SVG Export Plug-In . SVG Version: 6.00 Build 0)  -->
<!DOCTYPE svg PUBLIC "-//W3C//DTD SVG 1.1//EN" "http://www.w3.org/Graphics/SVG/1.1/DTD/svg11.dtd">
<svg version="1.1" id="Layer_1" xmlns="http://www.w3.org/2000/svg" xmlns:xlink="http://www.w3.org/1999/xlink" x="0px" y="0px"
	 width="31.501px" height="31.5px" viewBox="128.25 128.25 31.501 31.5" enable-background="new 128.25 128.25 31.501 31.5"
	 xml:space="preserve">
<g>
	<path fill="#FFFFFF" d="M150.195,142.421c-2.03,0-2.312,2.027-2.312,2.027h4.316C152.199,144.448,152.227,142.421,150.195,142.421z
		"/>
	<path fill="#FFFFFF" d="M140.402,144.448h-3.826v3.512h3.388c0.057,0,0.143,0.002,0.244,0c0.545-0.013,1.579-0.17,1.579-1.708
		C141.787,144.429,140.402,144.448,140.402,144.448z"/>
	<path fill="#FFFFFF" d="M144.001,128.25c-8.699,0-15.751,7.051-15.751,15.75s7.052,15.75,15.751,15.75
		c8.698,0,15.75-7.052,15.75-15.75S152.699,128.25,144.001,128.25z M147.316,137.927h5.422v1.619h-5.422V137.927z M144.576,146.416
		c0,4.012-4.174,3.88-4.174,3.88h-3.826h-0.112h-2.9v-13.143h2.9h0.112h3.826c2.078,0,3.718,1.147,3.718,3.499
		s-2.005,2.502-2.005,2.502C144.759,143.154,144.576,146.416,144.576,146.416z M154.718,146.201h-6.81
		c0,2.441,2.312,2.287,2.312,2.287c2.184,0,2.106-1.413,2.106-1.413h2.313c0,3.752-4.498,3.495-4.498,3.495
		c-5.396,0-5.05-5.024-5.05-5.024s-0.004-5.049,5.05-5.049C155.463,140.497,154.718,146.201,154.718,146.201z"/>
	<path fill="#FFFFFF" d="M141.331,140.855c0-1.367-0.929-1.367-0.929-1.367h-0.492h-3.334v2.933h3.589
		C140.785,142.421,141.331,142.223,141.331,140.855z"/>
</g>
</svg>
