<?xml version="1.0" encoding="utf-8"?>
<!-- Generator: Adobe Illustrator 16.0.0, SVG Export Plug-In . SVG Version: 6.00 Build 0)  -->
<!DOCTYPE svg PUBLIC "-//W3C//DTD SVG 1.1//EN" "http://www.w3.org/Graphics/SVG/1.1/DTD/svg11.dtd">
<svg version="1.1" id="Layer_1" xmlns="http://www.w3.org/2000/svg" xmlns:xlink="http://www.w3.org/1999/xlink" x="0px" y="0px"
	 width="31.499px" height="31.5px" viewBox="0 0 31.499 31.5" enable-background="new 0 0 31.499 31.5" xml:space="preserve">
<path fill="#FFFFFF" d="M15.75,0C7.052,0,0,7.052,0,15.75c0,8.7,7.052,15.75,15.75,15.75c8.698,0,15.748-7.05,15.748-15.75
	C31.499,7.052,24.449,0,15.75,0z M24.874,11.871c-1.052,5.928-6.93,10.946-8.698,12.092c-1.768,1.145-3.38-0.46-3.964-1.673
	c-0.67-1.385-2.678-8.889-3.203-9.511c-0.526-0.622-2.103,0.622-2.103,0.622l-0.765-1.004c0,0,3.202-3.822,5.639-4.302
	c2.583-0.504,2.579,3.968,3.201,6.452c0.601,2.404,1.005,3.777,1.529,3.777c0.526,0,1.53-1.339,2.629-3.394
	c1.102-2.056-0.048-3.872-2.199-2.581C17.8,7.189,25.925,5.947,24.874,11.871z"/>
</svg>
