<?xml version="1.0" encoding="utf-8"?>
<!-- Generator: Adobe Illustrator 16.0.0, SVG Export Plug-In . SVG Version: 6.00 Build 0)  -->
<!DOCTYPE svg PUBLIC "-//W3C//DTD SVG 1.1//EN" "http://www.w3.org/Graphics/SVG/1.1/DTD/svg11.dtd">
<svg version="1.1" id="Layer_1" xmlns="http://www.w3.org/2000/svg" xmlns:xlink="http://www.w3.org/1999/xlink" x="0px" y="0px"
	 width="31.975px" height="31.981px" viewBox="0 0 31.975 31.981" enable-background="new 0 0 31.975 31.981" xml:space="preserve">
<g>
	<path fill="#FFFFFF" d="M16,0C7.164,0,0,7.164,0,16c0,8.838,7.164,16,16,16c8.836,0,15.999-7.162,15.999-16
		C31.999,7.164,24.836,0,16,0z M24.911,23.771c0,0.712-0.591,1.288-1.32,1.288H8.377c-0.73,0-1.32-0.576-1.32-1.288V8.379
		c0-0.71,0.59-1.288,1.32-1.288h15.214c0.729,0,1.32,0.578,1.32,1.288V23.771z"/>
	<path fill="#FFFFFF" d="M19.088,13.83c-1.431,0-2.071,0.785-2.431,1.339v0.026H16.64c0.006-0.007,0.013-0.018,0.018-0.026v-1.148
		h-2.696c0.035,0.76,0,8.111,0,8.111h2.696v-4.53c0-0.244,0.018-0.483,0.089-0.657c0.195-0.483,0.64-0.987,1.384-0.987
		c0.977,0,1.366,0.745,1.366,1.835v4.34h2.696V17.48C22.192,14.989,20.862,13.83,19.088,13.83z"/>
	<path fill="#FFFFFF" d="M11.138,10.108c-0.922,0-1.525,0.606-1.525,1.402c0,0.778,0.585,1.402,1.49,1.402h0.018
		c0.94,0,1.526-0.625,1.526-1.402C12.628,10.714,12.061,10.108,11.138,10.108z"/>
	<rect x="9.772" y="14.021" fill="#FFFFFF" width="2.697" height="8.111"/>
</g>
</svg>
