<?xml version="1.0" encoding="utf-8"?>
<!-- Generator: Adobe Illustrator 16.0.0, SVG Export Plug-In . SVG Version: 6.00 Build 0)  -->
<!DOCTYPE svg PUBLIC "-//W3C//DTD SVG 1.1//EN" "http://www.w3.org/Graphics/SVG/1.1/DTD/svg11.dtd">
<svg version="1.1" id="Layer_1" xmlns="http://www.w3.org/2000/svg" xmlns:xlink="http://www.w3.org/1999/xlink" x="0px" y="0px"
	 width="33.333px" height="33.334px" viewBox="127.333 127.333 33.333 33.334"
	 enable-background="new 127.333 127.333 33.333 33.334" xml:space="preserve">
<path fill="#FFFFFF" d="M144,127.333c-9.205,0-16.667,7.464-16.667,16.668c0,9.205,7.462,16.666,16.667,16.666
	s16.666-7.461,16.666-16.666C160.666,134.797,153.205,127.333,144,127.333z M152.396,140.641c0.008,0.18,0.012,0.361,0.012,0.543
	c0,5.55-4.225,11.951-11.951,11.951c-2.372,0-4.58-0.695-6.439-1.887c0.329,0.038,0.663,0.059,1.001,0.059
	c1.969,0,3.78-0.672,5.217-1.799c-1.838-0.033-3.389-1.248-3.923-2.917c0.256,0.05,0.519,0.075,0.79,0.075
	c0.383,0,0.754-0.051,1.107-0.146c-1.922-0.387-3.37-2.084-3.37-4.119c0-0.018,0-0.035,0-0.053c0.566,0.314,1.214,0.504,1.903,0.525
	c-1.127-0.754-1.869-2.039-1.869-3.496c0-0.77,0.208-1.492,0.569-2.111c2.072,2.541,5.167,4.213,8.658,4.388
	c-0.071-0.308-0.108-0.628-0.108-0.957c0-2.319,1.881-4.2,4.2-4.2c1.207,0,2.3,0.511,3.064,1.326
	c0.958-0.188,1.855-0.538,2.668-1.021c-0.312,0.982-0.979,1.805-1.847,2.324c0.851-0.102,1.659-0.328,2.412-0.662
	C153.93,139.308,153.217,140.048,152.396,140.641z"/>
</svg>
