<?xml version="1.0" encoding="utf-8"?>
<!-- Generator: Adobe Illustrator 16.0.0, SVG Export Plug-In . SVG Version: 6.00 Build 0)  -->
<!DOCTYPE svg PUBLIC "-//W3C//DTD SVG 1.1//EN" "http://www.w3.org/Graphics/SVG/1.1/DTD/svg11.dtd">
<svg version="1.1" id="Layer_1" xmlns="http://www.w3.org/2000/svg" xmlns:xlink="http://www.w3.org/1999/xlink" x="0px" y="0px"
	 width="32.001px" height="32px" viewBox="128 128 32.001 32" enable-background="new 128 128 32.001 32" xml:space="preserve">
<path fill="#FFFFFF" d="M144,128c-8.836,0-16,7.165-16,16.001S135.164,160,144,160c8.837,0,16.001-7.163,16.001-15.999
	S152.837,128,144,128z M148.234,143.934h-2.771c0,4.427,0,9.88,0,9.88h-4.107c0,0,0-5.396,0-9.88h-1.953v-3.489h1.953v-2.26
	c0-1.618,0.768-4.144,4.145-4.144l3.04,0.011v3.389c0,0-1.849,0-2.208,0s-0.87,0.18-0.87,0.949v2.055h3.132L148.234,143.934z"/>
</svg>
